<?xml version="1.0" encoding="utf-8"?>
<!-- Generator: Adobe Illustrator 18.0.0, SVG Export Plug-In . SVG Version: 6.00 Build 0)  -->
<!DOCTYPE svg PUBLIC "-//W3C//DTD SVG 1.1//EN" "http://www.w3.org/Graphics/SVG/1.1/DTD/svg11.dtd">
<svg version="1.1" id="Layer_1" xmlns="http://www.w3.org/2000/svg" xmlns:xlink="http://www.w3.org/1999/xlink" x="0px" y="0px"
	 viewBox="0 0 217.8 237.3" enable-background="new 0 0 217.8 237.3" xml:space="preserve">
<path id="Form_9_copy_2" fill="#FFFFFF" d="M108.9,125.1l2.2-3.7c2.9-4.9,5.8-9.8,8.6-14.7c1.5-2.5,3-5.1,4.5-7.6l0.1-0.2
	c0,0,0.1-0.1,0.1-0.1c2.1-3.5,4.1-7.1,6.2-10.6c12.8-21.8,25.5-43.6,38.3-65.4l11.8-20.2c0.1-0.1,0.2-0.3,0.3-0.4
	c0.2-0.3,0.4-0.5,0.7-0.8c1.2-1,2.7-1.4,4.3-1.1c0.3,0.1,0.7,0.2,1,0.3c0.2,0.1,0.3,0.1,0.5,0.2l23.2,13.2c0.1,0.1,0.3,0.2,0.4,0.3
	c0.3,0.2,0.5,0.4,0.8,0.7c1,1.1,1.5,2.7,1.1,4.2c-0.1,0.3-0.2,0.6-0.3,1c-0.1,0.2-0.2,0.3-0.2,0.4l-50.9,86.9
	c-0.1,0.1-0.2,0.3-0.3,0.4c-0.2,0.3-0.4,0.5-0.6,0.7c-0.7,0.6-1.6,1.1-2.5,1.2c-0.3,0.1-0.6,0.1-1,0.1c-0.7-0.1-1.4-0.1-2.1-0.2
	c-1.9-0.1-3.9-0.2-5.8-0.1c-1.4,0-2.9,0.1-4.3,0.3c-1.1,0.1-2.1,0.3-3.2,0.4c-0.9,0.1-1.7,0.3-2.6,0.5c-5.3,1-10.3,3.6-14.2,7.4
	c-0.5,0.5-0.9,1-1.3,1.5l-9,15.4l34.9,60c1.4-5.6,4.2-10.8,8.2-15c5.4-5.7,12.6-9.5,20.4-10.6c1.5-0.2,3.1-0.3,4.6-0.4h0.8
	c1.3,0,2.5,0.1,3.7,0.2c2.6,0.3,5.2,0.9,7.7,1.8c4,1.4,7.6,3.5,10.8,6.2c5.3,4.5,9.1,10.5,11,17.2c0.9,3.4,1.3,6.8,1.1,10.3
	c-0.4,8.2-3.8,16-9.4,22c-6.6,6.8-15.6,10.7-25.1,10.7c-4.2,0-8.3-0.7-12.2-2.2c-3.5-1.3-6.8-3.2-9.8-5.5c-2.7-2.2-5-4.7-6.9-7.5
	c-0.4-0.6-0.8-1.2-1.2-1.9l-44.2-75.5l-44.2,75.5c-0.4,0.6-0.8,1.3-1.2,1.9c-1.9,2.8-4.3,5.4-6.9,7.5c-2.9,2.4-6.2,4.2-9.8,5.5
	c-8.5,3.2-18,2.9-26.3-0.8c-4.1-1.8-7.9-4.4-11-7.7c-5.7-5.9-9.1-13.7-9.4-22c-0.2-3.5,0.2-7,1.1-10.3c1.8-6.6,5.5-12.5,10.6-16.9
	c5.3-4.6,11.9-7.5,18.8-8.3c1.2-0.1,2.5-0.2,3.7-0.2h0.8c1.5,0,3.1,0.1,4.6,0.4c7.8,1.1,15,4.9,20.4,10.6c3.9,4.2,6.8,9.4,8.2,15
	l34.9-60l-9-15.4c-0.4-0.5-0.8-1-1.3-1.5c-3.9-3.8-8.8-6.4-14.2-7.4c-0.8-0.2-1.7-0.4-2.6-0.5c-1.1-0.2-2.1-0.3-3.2-0.4
	c-1.4-0.2-2.9-0.2-4.3-0.3c-1.9-0.1-3.9,0-5.8,0.1c-0.7,0.1-1.4,0.1-2.1,0.2c-1.3,0-2.5-0.4-3.5-1.3c-0.2-0.2-0.4-0.4-0.6-0.7
	c-0.1-0.1-0.2-0.3-0.3-0.4L5.5,20.4c-0.1-0.1-0.2-0.3-0.2-0.4c-0.1-0.3-0.2-0.6-0.3-1c-0.3-1.5,0.1-3.1,1.1-4.2
	c0.2-0.2,0.5-0.5,0.8-0.7C7,14,7.1,13.9,7.3,13.8L30.4,0.6c0.2-0.1,0.3-0.2,0.5-0.2c0.3-0.1,0.6-0.2,1-0.3c1.5-0.3,3.1,0.1,4.3,1.1
	c0.3,0.2,0.5,0.5,0.7,0.7c0.1,0.2,0.2,0.3,0.3,0.4l11.8,20.2C61.7,44.4,74.4,66.2,87.2,88c2.1,3.5,4.1,7.1,6.2,10.6
	c0,0,0.1,0.1,0.1,0.1l0.1,0.2c1.5,2.5,3,5.1,4.5,7.6c2.9,4.9,5.8,9.8,8.6,14.7L108.9,125.1z M182.8,178.4c-1.1,0-2.2,0.1-3.3,0.3
	c-5.6,0.8-10.8,3.5-14.7,7.7c-4.1,4.4-6.5,10.2-6.6,16.2c-0.1,4.8,1.2,9.6,3.8,13.7c1.3,2.1,3,4,4.9,5.6c4.5,3.8,10.2,5.9,16,5.9
	c6.8,0.1,13.4-2.6,18.1-7.5c4.2-4.2,6.6-9.8,7-15.7c0.2-2.6-0.1-5.2-0.8-7.7c-1.9-7-6.8-12.9-13.5-16c-2.1-1-4.3-1.7-6.6-2
	c-1-0.2-2-0.3-3-0.3C183.8,178.4,183.3,178.4,182.8,178.4z M34.4,178.4c-2.8,0-5.6,0.5-8.2,1.5c-2.9,1-5.7,2.6-8,4.7
	c-3.6,3.2-6.3,7.3-7.6,11.9c-0.7,2.4-1,4.9-0.9,7.4c0.2,5.9,2.6,11.6,6.6,15.9c4.7,5,11.2,7.8,18,7.9c5.9,0.1,11.6-1.9,16.2-5.5
	c3.7-3,6.5-7,8-11.6c0.8-2.4,1.2-4.9,1.2-7.4c0-6-2.2-11.8-6.2-16.3c-3.8-4.2-8.9-7-14.5-8c-1.1-0.2-2.2-0.3-3.3-0.3
	C35.2,178.4,34.8,178.4,34.4,178.4L34.4,178.4z M81.1,96.8l-2.4-4C62.9,65.6,47,38.5,31.1,11.3l-14.8,8.4l46.9,80.1
	c0.8,0,1.6-0.1,2.4-0.1c2.1,0,4.2,0,6.3,0.2c3.2,0.2,6.3,0.7,9.5,1.4c0.5,0.1,0.9,0.2,1.4,0.4c0.4,0.1,0.8,0.2,1.2,0.3l-2.4-4.1
	c-0.1-0.1-0.2-0.3-0.2-0.4C81.3,97.3,81.2,97.1,81.1,96.8z M133.8,102c0.4-0.1,0.8-0.2,1.2-0.3c0.5-0.1,0.9-0.2,1.4-0.4
	c3.1-0.7,6.3-1.2,9.5-1.4c2.1-0.2,4.2-0.2,6.3-0.2c0.8,0,1.6,0,2.4,0.1l46.9-80.1l-14.8-8.4c-15.9,27.2-31.8,54.3-47.7,81.5l-2.4,4
	c-0.1,0.2-0.2,0.5-0.3,0.7c-0.1,0.1-0.1,0.3-0.2,0.4L133.8,102z"/>
</svg>
