<?xml version="1.0" encoding="utf-8"?>
<!-- Generator: Adobe Illustrator 17.1.0, SVG Export Plug-In . SVG Version: 6.00 Build 0)  -->
<!DOCTYPE svg PUBLIC "-//W3C//DTD SVG 1.1//EN" "http://www.w3.org/Graphics/SVG/1.1/DTD/svg11.dtd">
<svg version="1.1" id="Layer_1" xmlns="http://www.w3.org/2000/svg" xmlns:xlink="http://www.w3.org/1999/xlink" x="0px" y="0px"
	 viewBox="0 0 56.9 47.9" enable-background="new 0 0 56.9 47.9" xml:space="preserve">
<path fill-rule="evenodd" clip-rule="evenodd" d="M56,44.4c-2.2,0-3.9-0.7-5.7-1.3l-0.1,0c0.4-1.2,0.4-2.5,0-3.7
	c-1.1-3.2-4.5-4.9-7.7-3.9c-0.8,0.3-1.6,0.7-2.2,1.3l-10.1-8.5c-1,1-1.9,1.8-2.7,2.5c0.6,0,1.2,0.2,1.8,0.6l9.9,6.5
	c-1,1.5-1.3,3.4-0.7,5.3c1.1,3.2,4.5,4.9,7.7,3.9c1.3-0.4,2.4-1.3,3.1-2.4c2,0.6,4.3,1.2,6.4,1C57.1,45.6,57.3,44.5,56,44.4L56,44.4
	z M9.8,15.2c0.5,0.6,1,1.2,1.6,1.8c3.3,3.7,6.7,7.3,9.5,10l3.9-3.2L11.4,12.6L1.2,4C2.6,6.5,5.9,10.7,9.8,15.2L9.8,15.2z M10.5,14.1
	c0.6,0.7,1.2,1.3,1.8,2c3,3.2,6.3,6.4,9.2,9.2l-0.7,0.6c-2.8-2.7-6.1-6.1-8.9-9.3c-0.6-0.6-1.1-1.3-1.7-1.9c-2-2.4-3.8-4.5-4.8-6.1
	L5.9,9C7.3,10.6,8.8,12.3,10.5,14.1L10.5,14.1z M24.1,13c2,0.5,4,0.9,6,1.5c1.4,0.4,2.7,0.8,4.1,1.3l-1.9,1.6
	C28.1,15.6,25.3,13.8,24.1,13L24.1,13z M39,19.9c2.7,0.8,5.7,1.4,8.9,1.8c-1.7-0.9-3.5-1.8-5.3-2.6c-0.7-0.3-1.3-0.6-2-0.9
	C40,18.8,39.5,19.3,39,19.9L39,19.9z M23.8,12c0.4-1.7,0.8-3.4,1.3-5.4c0.5-2,1-4.1,1.6-6.6c2.3,2.6,3.7,4.9,5.7,7.7
	c2.2-1.1,6.2-2.9,8.7-3.9c1.2,2.4,3.1,6.4,4.1,8.6c3.4-0.8,5.9-1.6,9.3-2.2c-1.1,2.3-2.2,4.2-3.1,6c-0.9,1.8-1.7,3.4-2.5,5
	c-3.9-2.1-8-4-12.2-5.5C32.5,14.1,28.1,13,23.8,12L23.8,12z M36.4,7.6l2.9-0.8l3.8,4.7c-0.9-1.9-2-4.1-2.8-5.7
	C39.2,6.3,37.8,6.9,36.4,7.6L36.4,7.6z M48,18.3c-5.1-2.7-15-6.4-22.4-7.3c3.6,0.9,7.2,1.9,10.6,3.2c4.2,1.5,8.3,3.5,12.2,5.5
	l4.5-8.3L48,18.3L48,18.3z M44.4,8.5c0.4,0.9,0.8,1.8,1.2,2.6c3.4-3.9,6.1-7.4,7.1-9.5L44.4,8.5L44.4,8.5z M39.5,17.8
	c-6.4,6.7-13,13-14.8,14c-1.3-0.6-2.4-0.6-3.6,0.1l-9.9,6.5c1,1.5,1.3,3.4,0.7,5.3c-1.1,3.2-4.5,4.9-7.7,3.9C1,46.5-0.8,43,0.3,39.8
	C1.4,36.6,4.8,34.9,8,36c0.8,0.3,1.6,0.7,2.2,1.3l25.1-21.1c0.4,0.1,0.7,0.2,1.1,0.4C37.4,16.9,38.5,17.3,39.5,17.8L39.5,17.8z
	 M7.5,37.5c-2.4-0.8-4.9,0.5-5.7,2.9c-0.8,2.4,0.5,4.9,2.9,5.7c2.4,0.8,4.9-0.5,5.7-2.9C11.2,40.8,9.9,38.3,7.5,37.5L7.5,37.5z
	 M25.7,27c0.5,0.2,0.7,0.7,0.6,1.2c-0.2,0.5-0.7,0.7-1.2,0.6c-0.5-0.2-0.7-0.7-0.6-1.2C24.6,27.1,25.2,26.8,25.7,27L25.7,27z M43,37
	c2.4-0.8,4.9,0.5,5.7,2.9c0.8,2.4-0.5,4.9-2.9,5.7c-2.4,0.8-4.9-0.5-5.7-2.9C39.3,40.4,40.6,37.8,43,37z"/>
</svg>
