<svg xmlns="http://www.w3.org/2000/svg" width="217.781" height="237.281" viewBox="0 0 72.594 79.094">
  <defs>
    <style>
      .cls-1 {
        fill-rule: evenodd;
      }
    </style>
  </defs>
  <path id="Form_9_copy_2" data-name="Form 9 copy 2" class="cls-1" d="M37.021,41.686l0.73-1.242q1.437-2.457,2.881-4.912,0.745-1.271,1.492-2.541l0.044-.072c0.011-.014.021-0.029,0.031-0.042q1.037-1.771,2.071-3.539,6.378-10.9,12.754-21.8l3.948-6.75C61,0.746,61.031.7,61.065,0.652A1.614,1.614,0,0,1,61.29.4,1.644,1.644,0,0,1,62.709.03a1.48,1.48,0,0,1,.321.1c0.052,0.022.1,0.05,0.152,0.075l7.723,4.4c0.048,0.031.1,0.06,0.142,0.092a1.68,1.68,0,0,1,.251.223,1.6,1.6,0,0,1,.38,1.4,1.664,1.664,0,0,1-.105.317c-0.023.051-.051,0.1-0.077,0.148L54.541,35.751c-0.028.043-.054,0.089-0.085,0.131a1.568,1.568,0,0,1-.209.234,1.628,1.628,0,0,1-.842.41,1.611,1.611,0,0,1-.317.02c-0.236-.019-0.472-0.048-0.711-0.067q-0.972-.068-1.946-0.042c-0.478.015-.955,0.044-1.431,0.094q-0.538.056-1.074,0.147c-0.287.048-.572,0.106-0.855,0.171a9.266,9.266,0,0,0-4.717,2.471c-0.152.159-.293,0.327-0.427,0.5l-3,5.122,11.622,20a11.38,11.38,0,0,1,2.723-4.994A11.651,11.651,0,0,1,60.063,56.4a12.312,12.312,0,0,1,1.538-.122h0.279a12.322,12.322,0,0,1,1.25.08,11.74,11.74,0,0,1,2.558.6,11.6,11.6,0,0,1,3.606,2.068,11.436,11.436,0,0,1,3.653,5.738,11.223,11.223,0,0,1,.371,3.439,11.36,11.36,0,0,1-3.149,7.317A11.633,11.633,0,0,1,61.8,79.081a11.756,11.756,0,0,1-4.076-.723,11.6,11.6,0,0,1-3.26-1.842A11.423,11.423,0,0,1,52.151,74c-0.137-.2-0.267-0.412-0.391-0.622L37.021,48.2,22.285,73.378c-0.124.211-.256,0.421-0.392,0.624a11.443,11.443,0,0,1-2.314,2.514,11.61,11.61,0,0,1-3.26,1.842,11.709,11.709,0,0,1-8.775-.273,11.626,11.626,0,0,1-3.67-2.567A11.36,11.36,0,0,1,.725,68.2,11.217,11.217,0,0,1,1.1,64.762a11.452,11.452,0,0,1,3.545-5.648,11.676,11.676,0,0,1,6.272-2.754,12.3,12.3,0,0,1,1.25-.08h0.279a12.315,12.315,0,0,1,1.538.122,11.65,11.65,0,0,1,6.787,3.543A11.374,11.374,0,0,1,23.49,64.94l11.622-20-3-5.122c-0.134-.172-0.276-0.339-0.427-0.5a9.266,9.266,0,0,0-4.717-2.471c-0.283-.065-0.569-0.123-0.855-0.171q-0.535-.09-1.074-0.147c-0.475-.05-0.953-0.079-1.431-0.094q-0.975-.027-1.946.042c-0.238.019-.474,0.048-0.711,0.067a1.621,1.621,0,0,1-1.159-.43,1.569,1.569,0,0,1-.209-0.234c-0.031-.042-0.057-0.088-0.085-0.131L2.546,6.784c-0.026-.049-0.054-0.1-0.078-0.148a1.631,1.631,0,0,1-.1-0.317,1.6,1.6,0,0,1,.38-1.4A1.67,1.67,0,0,1,3,4.7C3.041,4.665,3.09,4.636,3.138,4.6l7.723-4.4c0.051-.025.1-0.053,0.152-0.075a1.486,1.486,0,0,1,.321-0.1A1.644,1.644,0,0,1,12.753.4a1.626,1.626,0,0,1,.226.249C13.012,0.7,13.04.746,13.071,0.792l3.948,6.75q6.376,10.9,12.754,21.8,1.035,1.771,2.071,3.539c0.011,0.013.021,0.028,0.031,0.042l0.044,0.072q0.747,1.27,1.492,2.541,1.441,2.456,2.881,4.912ZM61.646,59.471a8.966,8.966,0,0,0-1.106.089,8.4,8.4,0,0,0-4.887,2.551,8.2,8.2,0,0,0-2.2,5.4,8.079,8.079,0,0,0,1.281,4.551,8.224,8.224,0,0,0,1.622,1.857A8.472,8.472,0,0,0,61.7,75.892,8.384,8.384,0,0,0,67.749,73.4a8.187,8.187,0,0,0,2.333-5.247,8.085,8.085,0,0,0-.261-2.571,8.232,8.232,0,0,0-4.487-5.318,8.438,8.438,0,0,0-2.191-.677,8.987,8.987,0,0,0-.995-0.105C61.98,59.472,61.813,59.47,61.646,59.471Zm-49.449,0a8.671,8.671,0,0,0-2.747.487,8.4,8.4,0,0,0-2.675,1.553,8.253,8.253,0,0,0-2.526,3.971,8.074,8.074,0,0,0-.3,2.471,8.183,8.183,0,0,0,2.2,5.3,8.39,8.39,0,0,0,5.993,2.639,8.492,8.492,0,0,0,5.389-1.846,8.24,8.24,0,0,0,2.67-3.872,8.061,8.061,0,0,0,.39-2.468,8.183,8.183,0,0,0-2.07-5.445A8.386,8.386,0,0,0,13.7,59.591a8.765,8.765,0,0,0-1.105-.115C12.464,59.472,12.331,59.47,12.2,59.471ZM27.759,32.278l-0.787-1.345q-7.95-13.581-15.9-27.165l-4.921,2.8L21.788,33.277c0.27-.016.542-0.026,0.813-0.031,0.7-.011,1.407,0,2.108.055a20.175,20.175,0,0,1,3.151.479c0.153,0.037.305,0.076,0.457,0.117,0.133,0.036.265,0.072,0.4,0.112l-0.8-1.361c-0.024-.046-0.051-0.091-0.072-0.14A1.591,1.591,0,0,1,27.759,32.278Zm17.571,1.73c0.131-.04.264-0.076,0.4-0.112,0.152-.041.3-0.08,0.457-0.117a20.171,20.171,0,0,1,3.151-.479c0.7-.051,1.4-0.066,2.108-0.055q0.406,0.008.813,0.031L67.888,6.571l-4.922-2.8q-7.948,13.584-15.9,27.165l-0.787,1.345a1.6,1.6,0,0,1-.084.229c-0.023.048-.048,0.094-0.073,0.14Z" transform="translate(-0.719)"/>
</svg>
