<?xml version="1.0" encoding="utf-8"?>
<!-- Generator: Adobe Illustrator 18.0.0, SVG Export Plug-In . SVG Version: 6.00 Build 0)  -->
<!DOCTYPE svg PUBLIC "-//W3C//DTD SVG 1.1//EN" "http://www.w3.org/Graphics/SVG/1.1/DTD/svg11.dtd">
<svg version="1.1" id="Layer_1" xmlns="http://www.w3.org/2000/svg" xmlns:xlink="http://www.w3.org/1999/xlink" x="0px" y="0px"
	 viewBox="0 0 153.9 95.4" enable-background="new 0 0 153.9 95.4" xml:space="preserve">
<path fill-rule="evenodd" clip-rule="evenodd" fill="#FFFFFF" d="M7,95.4h139.9c0-3.9,3.1-7,7-7V7c-3.9,0-7-3.1-7-7H7
	c0,3.9-3.1,7-7,7v81.4C3.9,88.4,7,91.6,7,95.4L7,95.4z M9,93.2c-0.4-1.6-1.3-3.1-2.4-4.3c-1.2-1.2-2.6-2-4.3-2.4V9
	c1.6-0.4,3.1-1.3,4.3-2.4c1.2-1.2,2-2.6,2.4-4.3h135.9c0.4,1.6,1.3,3.1,2.4,4.3c1.2,1.2,2.6,2,4.3,2.4v77.5
	c-1.6,0.4-3.1,1.3-4.3,2.4c-1.2,1.2-2,2.6-2.4,4.3H9L9,93.2z M8.1,94.3c-0.3-1.8-1.1-3.4-2.3-4.6c-1.2-1.2-2.8-2.1-4.6-2.3V8.1
	C2.9,7.8,4.5,7,5.8,5.8C7,4.5,7.8,2.9,8.1,1.1h137.8c0.3,1.8,1.1,3.4,2.3,4.6c1.2,1.2,2.8,2.1,4.6,2.3v79.3
	c-1.8,0.3-3.4,1.1-4.6,2.3c-1.2,1.2-2.1,2.8-2.3,4.6H8.1z"/>
</svg>
