<?xml version="1.0" encoding="utf-8"?>
<!-- Generator: Adobe Illustrator 18.0.0, SVG Export Plug-In . SVG Version: 6.00 Build 0)  -->
<!DOCTYPE svg PUBLIC "-//W3C//DTD SVG 1.1//EN" "http://www.w3.org/Graphics/SVG/1.1/DTD/svg11.dtd">
<svg version="1.1" id="Layer_1" xmlns="http://www.w3.org/2000/svg" xmlns:xlink="http://www.w3.org/1999/xlink" x="0px" y="0px"
	 viewBox="0 0 544.2 19.1" enable-background="new 0 0 544.2 19.1" xml:space="preserve">
<path fill-rule="evenodd" clip-rule="evenodd" fill="#ABABAB" d="M97.9,2.2c0.4,0.3,0.7,0.6,1,0.9v0c0.6,0.6,1.1,1.2,1.5,1.9l0,0
	l0,0l0,0.1l0,0l0,0l0,0l0,0l0,0l0,0l0,0l0,0l0,0l0,0l0,0l0,0l0,0l0,0l0,0l0,0l0,0l0,0l0,0l0,0l0,0l0,0l0,0l0,0l0,0l0,0l0,0l0,0l0,0
	l0,0l0,0l0,0l0,0l0,0l0,0l0,0l0,0l0,0l0,0l0,0l0,0l0,0l0,0l0,0l0,0l0,0l0,0l0,0l0,0l0,0l0,0l0,0l0,0l0,0l0,0l0,0l0,0l0,0l0,0l0,0
	l0,0l0,0l0,0l0,0l0,0l0,0l0,0l0,0l0.1,0.2l0,0.1c0.4,1,0.6,2.2,0.6,3.3v0c0,0.5,0,1-0.1,1.5l-3.5,0c-0.2,0-0.4,0-0.6-0.1
	c-0.1-0.1-0.2-0.1-0.3-0.2L97,10.9c-0.1-0.1-0.2-0.2-0.3-0.4c0-0.2,0.1-0.5,0.1-0.7l0,0c0-1.3-0.5-2.4-1.3-3.2l0,0
	c-0.3-0.3-0.7-0.6-1.1-0.8L97.9,2.2L97.9,2.2z M92.2,8l-3.5,3.5c0.4,1.8,1.3,3.4,2.6,4.7h0C93,18,95.4,19,98,19l16.2,0
	c2.6,0,5-1.1,6.7-2.8c1.7-1.7,2.8-4.1,2.8-6.7v0c0-0.4,0-0.8-0.1-1.2l-3.5,0c-0.2,0-0.4,0-0.6,0.1c-0.2,0.1-0.4,0.2-0.5,0.3l0,0
	c-0.1,0.1-0.2,0.3-0.3,0.5l0,0l0,0.2l0,0c0,1.3-0.5,2.4-1.3,3.2c-0.8,0.8-2,1.3-3.2,1.3l-16.2,0c-1.3,0-2.4-0.5-3.2-1.3l0,0
	c-0.8-0.8-1.3-2-1.3-3.2l0,0c0-0.2,0-0.5,0.1-0.7c0-0.1-0.1-0.1-0.1-0.2l-0.1-0.1c-0.1-0.1-0.3-0.3-0.5-0.3C92.5,8.1,92.4,8,92.2,8
	L92.2,8z M110.7,9.9L110.7,9.9c0-2.6,1.1-5,2.8-6.7l0,0c1.7-1.7,4.1-2.8,6.7-2.8l16.3,0c2.6,0,5,1.1,6.7,2.8v0
	c0.6,0.6,1.1,1.2,1.5,1.9l0,0l0,0l0,0.1l0,0l0,0l0,0l0,0l0,0l0,0l0,0l0,0l0,0l0,0l0,0l0,0l0,0l0,0l0,0l0,0l0,0l0,0l0,0l0,0l0,0l0,0
	l0,0l0,0l0,0l0,0l0,0l0,0l0,0l0,0l0,0l0,0l0,0l0,0l0,0l0,0l0,0l0,0l0,0l0,0l0,0l0,0l0,0l0,0l0,0l0,0l0,0l0,0l0,0l0,0l0,0l0,0l0,0
	l0,0l0,0l0,0l0,0l0,0l0,0l0,0l0,0l0,0l0,0l0,0l0,0l0,0l0,0l0,0l0.1,0.2l0,0.1c0.4,1,0.6,2.2,0.6,3.3v0c0,0.5,0,1-0.1,1.5l-3.5,0
	c-0.2,0-0.4,0-0.6-0.1c-0.1-0.1-0.2-0.1-0.3-0.2l-0.1-0.1c-0.1-0.1-0.2-0.2-0.3-0.4c0-0.2,0.1-0.5,0.1-0.7l0,0
	c0-1.3-0.5-2.4-1.3-3.2l0,0c-0.8-0.8-2-1.3-3.2-1.3l-3.1,0l-9.7,0l-3.5,0l0,0l0,0l0,0h0l0,0l0,0h0h0l0,0l0,0l0,0l0,0l0,0l0,0h0h0
	l0,0l0,0l0,0l0,0l0,0c-0.5,0-0.9,0.1-1.3,0.3l0,0l0,0l0,0l0,0l0,0l0,0l0,0l0,0l0,0l0,0l0,0l0,0l0,0l0,0l0,0l0,0l0,0l0,0l0,0l0,0l0,0
	l0,0l0,0l0,0l0,0l0,0l0,0l0,0l0,0l0,0l0,0l0,0l0,0l0,0l0,0l0,0l0,0l0,0v0l0,0l-0.1,0l0,0c-0.1,0.1-0.3,0.2-0.4,0.2h0
	c-0.2,0.1-0.4,0.3-0.6,0.5l0,0l0,0l0,0l0,0l0,0l0,0l0,0l0,0l0,0l0,0l0,0l0,0l0,0l0,0l0,0c-0.2,0.2-0.4,0.4-0.5,0.6v0
	c-0.1,0.1-0.2,0.3-0.2,0.4l0,0l0,0.1l0,0h0l0,0l0,0l0,0l0,0l0,0l0,0l0,0l0,0l0,0l0,0l0,0l0,0l0,0l0,0l0,0l0,0l0,0l0,0l0,0l0,0l0,0
	l0,0c0,0.1-0.1,0.2-0.1,0.3l-0.2,0.4l0,0.2c-0.1,0.3-0.1,0.6-0.1,0.9v0l0,0.2l0,0.1c-0.1,0.2-0.2,0.3-0.3,0.5l0,0
	c-0.1,0.1-0.3,0.3-0.5,0.3c-0.2,0.1-0.4,0.1-0.6,0.1l-3.5,0C110.7,10.6,110.7,10.3,110.7,9.9L110.7,9.9z M107.8,5
	c0.8-1.2,1.7-2.3,2.7-3.3l0,0c0.6-0.6,1.2-1.1,1.9-1.7l-3.5,0l-5.4,0l-3.4,0l0,0c0.4,0.3,0.8,0.7,1.1,1l1.6,1.8
	c0.6,0.7,1.1,1.4,1.5,2.2L107.8,5L107.8,5z M132.7,9.5c0,2.6,1.1,5,2.8,6.7h0c1.7,1.7,4.1,2.8,6.7,2.8l16.2,0c2.6,0,5-1.1,6.7-2.8
	c1.7-1.7,2.8-4.1,2.8-6.7v0c0-0.4,0-0.8-0.1-1.2l-3.5,0c-0.2,0-0.4,0-0.6,0.1c-0.2,0.1-0.4,0.2-0.5,0.3l0,0
	c-0.1,0.1-0.2,0.3-0.3,0.5l0,0l0,0.2l0,0c0,1.3-0.5,2.4-1.3,3.2c-0.8,0.8-2,1.3-3.2,1.3l-16.2,0c-1.3,0-2.4-0.5-3.2-1.3l0,0
	c-0.8-0.8-1.3-2-1.3-3.2l0,0c0-0.2,0-0.5,0.1-0.7c0-0.1-0.1-0.1-0.1-0.2l-0.1-0.1c-0.1-0.1-0.3-0.3-0.5-0.3
	c-0.2-0.1-0.4-0.1-0.6-0.1l-3.5,0C132.8,8.5,132.7,9,132.7,9.5L132.7,9.5L132.7,9.5z M129.9,14c0.8,1.2,1.7,2.3,2.7,3.3l0,0
	c0.6,0.6,1.2,1.1,1.9,1.7l-3.5,0l-5.4,0l-3.5,0c0.4-0.3,0.8-0.7,1.1-1.1l1.6-1.8c0.6-0.7,1.1-1.4,1.5-2.2L129.9,14L129.9,14z
	 M155,9.9L155,9.9c0-2.6,1.1-5,2.8-6.7l0,0c1.7-1.7,4.1-2.8,6.7-2.8l16.3,0c2.6,0,5,1.1,6.7,2.8v0c0.6,0.6,1.1,1.2,1.5,1.9l0,0l0,0
	l0,0.1l0,0l0,0l0,0l0,0l0,0l0,0l0,0l0,0l0,0l0,0l0,0l0,0l0,0l0,0l0,0l0,0l0,0l0,0l0,0l0,0l0,0l0,0l0,0l0,0l0,0l0,0l0,0l0,0l0,0l0,0
	l0,0l0,0l0,0l0,0l0,0l0,0l0,0l0,0l0,0l0,0l0,0l0,0l0,0l0,0l0,0l0,0l0,0l0,0l0,0l0,0l0,0l0,0l0,0l0,0l0,0l0,0l0,0l0,0l0,0l0,0l0,0
	l0,0l0,0l0,0v0l0,0l0,0l0,0l0.1,0.2l0,0.1c0.4,1,0.6,2.2,0.6,3.3v0c0,0.5,0,1-0.1,1.5l-3.5,0c-0.2,0-0.4,0-0.6-0.1
	c-0.1-0.1-0.2-0.1-0.3-0.2l-0.1-0.1c-0.1-0.1-0.2-0.2-0.3-0.4c0-0.2,0.1-0.5,0.1-0.7l0,0c0-1.3-0.5-2.4-1.3-3.2l0,0
	c-0.8-0.8-2-1.3-3.2-1.3l-3.1,0l-9.7,0l-3.5,0l0,0l0,0l0,0h0l0,0l0,0h0h0l0,0l0,0h0h0l0,0l0,0h0h0l0,0l0,0l0,0l0,0l0,0
	c-0.5,0-0.9,0.1-1.3,0.3l0,0l0,0l0,0l0,0l0,0l0,0l0,0l0,0l0,0l0,0l0,0l0,0l0,0l0,0l0,0l0,0l0,0l0,0l0,0l0,0l0,0l0,0l0,0l0,0l0,0l0,0
	l0,0l0,0l0,0l0,0l0,0l0,0l0,0l0,0l0,0l0,0l0,0l0,0l0,0l0,0l-0.1,0l0,0C162.2,5.9,162.1,6,162,6l0,0c-0.2,0.1-0.4,0.3-0.6,0.5l0,0
	l0,0l0,0l0,0l0,0l0,0l0,0l0,0l0,0l0,0l0,0l0,0l0,0l0,0l0,0c-0.2,0.2-0.4,0.4-0.5,0.6v0c-0.1,0.1-0.2,0.3-0.2,0.4l0,0l0,0.1l0,0l0,0
	l0,0l0,0l0,0l0,0l0,0l0,0l0,0l0,0l0,0l0,0l0,0l0,0l0,0l0,0l0,0l0,0l0,0l0,0l0,0l0,0l0,0l0,0c0,0.1-0.1,0.2-0.1,0.3L160,8.8l0,0.2
	c-0.1,0.3-0.1,0.6-0.1,0.9v0l0,0.2l0,0.1c-0.1,0.2-0.2,0.3-0.3,0.5l0,0c-0.1,0.1-0.3,0.3-0.5,0.3c-0.2,0.1-0.4,0.1-0.6,0.1l-3.5,0
	C155,10.6,155,10.3,155,9.9L155,9.9z M152,5c0.8-1.2,1.7-2.3,2.7-3.3l0,0c0.6-0.6,1.2-1.1,1.9-1.7l-3.5,0l-5.4,0l-3.5,0
	c0.4,0.3,0.8,0.7,1.1,1.1l1.6,1.8c0.6,0.7,1.1,1.4,1.5,2.2L152,5L152,5z M174.2,14c0.8,1.2,1.7,2.3,2.7,3.3l0,0
	c0.6,0.6,1.2,1.1,1.9,1.7l-3.5,0l-5.4,0l-3.5,0c0.4-0.3,0.8-0.7,1.1-1.1l1.6-1.8c0.6-0.7,1.1-1.4,1.5-2.2L174.2,14L174.2,14z
	 M212.2,9.5c0-2.6-1.1-5-2.8-6.7h0c-1.7-1.7-4.1-2.8-6.7-2.8l-13.8,0l0.6,0.6c1.2,1.2,2.1,2.5,2.7,4.1l0.1,0.2l10.4,0
	c1.3,0,2.4,0.5,3.2,1.3l0,0c0.8,0.8,1.3,2,1.3,3.2l0,0c0,1.3-0.5,2.4-1.3,3.2c-0.8,0.8-2,1.3-3.2,1.3l-16.2,0
	c-1.3,0-2.4-0.5-3.2-1.3l0,0c-0.8-0.8-1.3-2-1.3-3.2l0,0c0-0.2,0-0.5,0.1-0.7c-0.1-0.1-0.2-0.3-0.3-0.4l-0.1-0.1
	c-0.1-0.1-0.2-0.1-0.3-0.2C181,8.1,180.8,8,180.6,8l-3.5,0C177,8.5,177,9,177,9.5v0c0,1.2,0.2,2.3,0.6,3.3l0,0.1l0.1,0.2l0,0l0,0
	l0,0v0l0,0l0,0l0,0l0,0l0,0l0,0l0,0l0,0l0,0l0,0l0,0l0,0l0,0l0,0l0,0l0,0l0,0l0,0l0,0l0,0l0,0l0,0l0,0l0,0l0,0l0,0l0,0l0,0l0,0l0,0
	l0,0l0,0l0,0l0,0l0,0l0,0l0,0l0,0l0,0l0,0l0,0l0,0l0,0l0,0l0,0l0,0l0,0l0,0l0,0l0,0l0,0l0,0l0,0l0,0l0,0l0,0l0,0l0,0l0,0l0,0l0,0
	l0,0l0,0l0,0l0,0.1l0,0l0,0c0.4,0.7,0.9,1.3,1.5,1.9l0,0c1.7,1.7,4.1,2.8,6.7,2.8l16.2,0c2.6,0,5-1.1,6.7-2.8l0,0
	C211.2,14.5,212.2,12.2,212.2,9.5L212.2,9.5z"/>
<path fill-rule="evenodd" clip-rule="evenodd" fill="#ABABAB" d="M114.3,2.3c-0.4,0.3-0.7,0.6-1,0.9v0c-0.6,0.6-1.1,1.2-1.5,1.9l0,0
	l0,0l0,0.1l0,0l0,0l0,0l0,0l0,0l0,0l0,0l0,0l0,0l0,0l0,0l0,0l0,0l0,0l0,0l0,0l0,0l0,0l0,0l0,0l0,0l0,0l0,0l0,0l0,0l0,0l0,0l0,0l0,0
	l0,0l0,0l0,0l0,0l0,0l0,0l0,0l0,0l0,0l0,0l0,0l0,0l0,0l0,0l0,0l0,0l0,0l0,0l0,0l0,0l0,0l0,0l0,0l0,0l0,0l0,0l0,0l0,0l0,0l0,0l0,0
	l0,0l0,0l0,0l0,0l0,0l0,0l0,0l0,0l-0.1,0.2l0,0.1c-0.4,1-0.6,2.2-0.6,3.3v0c0,0.5,0,1,0.1,1.5l3.5,0c0.2,0,0.4,0,0.6-0.1
	c0.1-0.1,0.2-0.1,0.3-0.2l0.1-0.1c0.1-0.1,0.2-0.2,0.3-0.4c0-0.2-0.1-0.5-0.1-0.7l0,0c0-1.3,0.5-2.4,1.3-3.2l0,0
	c0.3-0.3,0.7-0.6,1.1-0.8L114.3,2.3L114.3,2.3z M120,8l3.5,3.5c-0.4,1.8-1.3,3.4-2.6,4.7h0c-1.7,1.7-4.1,2.8-6.7,2.8L98,19
	c-2.6,0-5-1.1-6.7-2.8c-1.7-1.7-2.8-4.1-2.8-6.7v0c0-0.4,0-0.8,0.1-1.2l3.5,0c0.2,0,0.4,0,0.6,0.1c0.2,0.1,0.4,0.2,0.5,0.3l0,0
	c0.1,0.1,0.2,0.3,0.3,0.5l0,0l0,0.2l0,0c0,1.3,0.5,2.4,1.3,3.2c0.8,0.8,2,1.3,3.2,1.3l16.2,0c1.3,0,2.4-0.5,3.2-1.3l0,0
	c0.8-0.8,1.3-2,1.3-3.2l0,0c0-0.2,0-0.5-0.1-0.7c0-0.1,0.1-0.1,0.1-0.2l0.1-0.1c0.1-0.1,0.3-0.3,0.5-0.3C119.7,8.1,119.9,8,120,8
	L120,8z M101.5,9.9L101.5,9.9c0-2.6-1.1-5-2.8-6.7l0,0C97,1.4,94.6,0.4,92,0.4l-16.3,0c-2.6,0-5,1.1-6.7,2.8v0
	c-0.6,0.6-1.1,1.2-1.5,1.9l0,0l0,0l0,0.1l0,0l0,0l0,0l0,0l0,0l0,0l0,0l0,0l0,0l0,0l0,0l0,0l0,0l0,0l0,0l0,0l0,0l0,0l0,0l0,0l0,0l0,0
	l0,0l0,0l0,0l0,0l0,0l0,0l0,0l0,0l0,0l0,0l0,0l0,0l0,0l0,0l0,0l0,0l0,0l0,0l0,0l0,0l0,0l0,0l0,0l0,0l0,0l0,0l0,0l0,0l0,0l0,0l0,0
	l0,0l0,0l0,0l0,0l0,0l0,0l0,0l0,0l0,0l0,0l0,0l0,0l0,0l0,0l0,0l-0.1,0.2l0,0.1c-0.4,1-0.6,2.2-0.6,3.3v0c0,0.5,0,1,0.1,1.5l3.5,0
	c0.2,0,0.4,0,0.6-0.1c0.1-0.1,0.2-0.1,0.3-0.2l0.1-0.1c0.1-0.1,0.2-0.2,0.3-0.4c0-0.2-0.1-0.5-0.1-0.7l0,0c0-1.3,0.5-2.4,1.3-3.2
	l0,0c0.8-0.8,2-1.3,3.2-1.3l3.1,0l9.7,0l3.5,0l0,0l0,0l0,0h0l0,0l0,0h0h0l0,0l0,0l0,0l0,0l0,0l0,0h0h0l0,0l0,0l0,0l0,0l0,0
	c0.5,0,0.9,0.1,1.3,0.3l0,0l0,0l0,0l0,0l0,0l0,0l0,0l0,0l0,0l0,0l0,0l0,0l0,0l0,0l0,0l0,0l0,0l0,0l0,0l0,0l0,0l0,0l0,0l0,0l0,0l0,0
	l0,0l0,0l0,0l0,0l0,0l0,0l0,0l0,0l0,0l0,0l0,0l0,0v0l0,0l0.1,0l0,0C94.2,5.9,94.4,6,94.5,6h0c0.2,0.1,0.4,0.3,0.6,0.5l0,0l0,0l0,0
	l0,0l0,0l0,0l0,0l0,0l0,0l0,0l0,0l0,0l0,0l0,0l0,0c0.2,0.2,0.4,0.4,0.5,0.6v0c0.1,0.1,0.2,0.3,0.2,0.4l0,0l0,0.1l0,0h0l0,0l0,0l0,0
	l0,0l0,0l0,0l0,0l0,0l0,0l0,0l0,0l0,0l0,0l0,0l0,0l0,0l0,0l0,0l0,0l0,0l0,0l0,0c0,0.1,0.1,0.2,0.1,0.3l0.2,0.4l0,0.2
	c0.1,0.3,0.1,0.6,0.1,0.9v0l0,0.2l0,0.1c0.1,0.2,0.2,0.3,0.3,0.5l0,0c0.1,0.1,0.3,0.3,0.5,0.3C97.6,11,97.8,11,98,11l3.5,0
	C101.5,10.6,101.5,10.3,101.5,9.9L101.5,9.9z M104.5,5c-0.8-1.2-1.7-2.3-2.7-3.3l0,0c-0.6-0.6-1.2-1.1-1.9-1.7l3.5,0l5.4,0l3.4,0
	l0,0c-0.4,0.3-0.8,0.7-1.1,1l-1.6,1.8c-0.6,0.7-1.1,1.4-1.5,2.2L104.5,5L104.5,5z M79.5,9.5c0,2.6-1.1,5-2.8,6.7h0
	C75,18,72.6,19,70,19.1l-16.2,0c-2.6,0-5-1.1-6.7-2.8c-1.7-1.7-2.8-4.1-2.8-6.7v0c0-0.4,0-0.8,0.1-1.2l3.5,0c0.2,0,0.4,0,0.6,0.1
	c0.2,0.1,0.4,0.2,0.5,0.3l0,0c0.1,0.1,0.2,0.3,0.3,0.5l0,0l0,0.2l0,0c0,1.3,0.5,2.4,1.3,3.2c0.8,0.8,2,1.3,3.2,1.3l16.2,0
	c1.3,0,2.4-0.5,3.2-1.3l0,0c0.8-0.8,1.3-2,1.3-3.2l0,0c0-0.2,0-0.5-0.1-0.7c0-0.1,0.1-0.1,0.1-0.2l0.1-0.1c0.1-0.1,0.3-0.3,0.5-0.3
	C75.4,8.1,75.6,8,75.8,8l3.5,0C79.5,8.5,79.5,9,79.5,9.5L79.5,9.5L79.5,9.5z M82.3,14c-0.8,1.2-1.7,2.3-2.7,3.3l0,0
	C79,18,78.4,18.5,77.7,19l3.5,0l5.4,0l3.5,0c-0.4-0.3-0.8-0.7-1.1-1.1l-1.6-1.8c-0.6-0.7-1.1-1.4-1.5-2.2L82.3,14L82.3,14z
	 M57.3,9.9L57.3,9.9c0-2.6-1.1-5-2.8-6.7l0,0c-1.7-1.7-4.1-2.8-6.7-2.8l-16.3,0c-2.6,0-5,1.1-6.7,2.8v0c-0.6,0.6-1.1,1.2-1.5,1.9
	l0,0l0,0l0,0.1l0,0l0,0l0,0l0,0l0,0l0,0l0,0l0,0l0,0l0,0l0,0l0,0l0,0l0,0l0,0l0,0l0,0l0,0l0,0l0,0l0,0l0,0l0,0l0,0l0,0l0,0l0,0l0,0
	l0,0l0,0l0,0l0,0l0,0l0,0l0,0l0,0l0,0l0,0l0,0l0,0l0,0l0,0l0,0l0,0l0,0l0,0l0,0l0,0l0,0l0,0l0,0l0,0l0,0l0,0l0,0l0,0l0,0l0,0l0,0
	l0,0l0,0l0,0l0,0l0,0v0l0,0l0,0l0,0l-0.1,0.2l0,0.1c-0.4,1-0.6,2.2-0.6,3.3v0c0,0.5,0,1,0.1,1.5l3.5,0c0.2,0,0.4,0,0.6-0.1
	c0.1-0.1,0.2-0.1,0.3-0.2l0.1-0.1c0.1-0.1,0.2-0.2,0.3-0.4c0-0.2-0.1-0.5-0.1-0.7l0,0c0-1.3,0.5-2.4,1.3-3.2l0,0
	c0.8-0.8,2-1.3,3.2-1.3l3.1,0l9.7,0l3.5,0l0,0l0,0l0,0h0l0,0l0,0h0l0,0l0,0l0,0h0h0l0,0l0,0h0h0l0,0l0,0l0,0l0,0l0,0
	c0.5,0,0.9,0.1,1.3,0.3l0,0l0,0l0,0l0,0l0,0l0,0l0,0l0,0l0,0l0,0l0,0l0,0l0,0l0,0l0,0l0,0l0,0l0,0l0,0l0,0l0,0l0,0l0,0l0,0l0,0l0,0
	l0,0l0,0l0,0l0,0l0,0l0,0l0,0l0,0l0,0l0,0l0,0l0,0l0,0l0,0l0.1,0l0,0C50,5.9,50.1,6,50.3,6.1l0,0c0.2,0.1,0.4,0.3,0.6,0.5l0,0l0,0
	l0,0l0,0l0,0l0,0l0,0l0,0l0,0l0,0l0,0l0,0l0,0l0,0l0,0c0.2,0.2,0.4,0.4,0.5,0.6v0c0.1,0.1,0.2,0.3,0.2,0.4l0,0l0,0.1l0,0l0,0l0,0
	l0,0l0,0l0,0l0,0l0,0l0,0l0,0l0,0l0,0l0,0l0,0l0,0l0,0l0,0l0,0l0,0l0,0l0,0l0,0l0,0l0,0c0,0.1,0.1,0.2,0.1,0.3l0.2,0.4l0,0.2
	c0.1,0.3,0.1,0.6,0.1,0.9v0l0,0.2l0,0.1c0.1,0.2,0.2,0.3,0.3,0.5l0,0c0.1,0.1,0.3,0.3,0.5,0.3c0.2,0.1,0.4,0.1,0.6,0.1l3.5,0
	C57.2,10.7,57.3,10.3,57.3,9.9L57.3,9.9z M60.2,5c-0.8-1.2-1.7-2.3-2.7-3.3l0,0c-0.6-0.6-1.2-1.1-1.9-1.7l3.5,0l5.4,0l3.5,0
	c-0.4,0.3-0.8,0.7-1.1,1.1l-1.6,1.8c-0.6,0.7-1.1,1.4-1.5,2.2L60.2,5L60.2,5z M38.1,14c-0.8,1.2-1.7,2.3-2.7,3.3l0,0
	c-0.6,0.6-1.2,1.1-1.9,1.7l3.5,0l5.4,0l3.5,0c-0.4-0.3-0.8-0.7-1.1-1.1l-1.6-1.8c-0.6-0.7-1.1-1.4-1.5-2.2L38.1,14L38.1,14z M0,9.6
	c0-2.6,1.1-5,2.8-6.7h0C4.5,1.1,6.9,0,9.5,0l13.8,0l-0.6,0.6c-1.2,1.2-2.1,2.5-2.7,4.1L19.9,5L9.5,5C8.3,5,7.1,5.5,6.3,6.3l0,0
	c-0.8,0.8-1.3,2-1.3,3.2l0,0c0,1.3,0.5,2.4,1.3,3.2c0.8,0.8,2,1.3,3.2,1.3l16.2,0c1.3,0,2.4-0.5,3.2-1.3l0,0c0.8-0.8,1.3-2,1.3-3.2
	l0,0c0-0.2,0-0.5-0.1-0.7c0.1-0.1,0.2-0.3,0.3-0.4l0.1-0.1c0.1-0.1,0.2-0.1,0.3-0.2C31.2,8.1,31.4,8,31.6,8l3.5,0
	c0.1,0.5,0.1,1,0.1,1.5v0c0,1.2-0.2,2.3-0.6,3.3l0,0.1l-0.1,0.2l0,0l0,0l0,0v0l0,0l0,0l0,0l0,0l0,0l0,0l0,0l0,0l0,0l0,0l0,0l0,0l0,0
	l0,0l0,0l0,0l0,0l0,0l0,0l0,0l0,0l0,0l0,0l0,0l0,0l0,0l0,0l0,0l0,0l0,0l0,0l0,0l0,0l0,0l0,0l0,0l0,0l0,0l0,0l0,0l0,0l0,0l0,0l0,0
	l0,0l0,0l0,0l0,0l0,0l0,0l0,0l0,0l0,0l0,0l0,0l0,0l0,0l0,0l0,0l0,0l0,0l0,0l0,0l0,0l0,0.1l0,0l0,0c-0.4,0.7-0.9,1.3-1.5,1.9l0,0
	c-1.7,1.7-4.1,2.8-6.7,2.8l-16.2,0c-2.6,0-5-1.1-6.7-2.8l0,0C1.1,14.5,0,12.2,0,9.6L0,9.6z"/>
<path fill-rule="evenodd" clip-rule="evenodd" fill="#ABABAB" d="M429.9,2.2c0.4,0.3,0.7,0.6,1,0.9v0c0.6,0.6,1.1,1.2,1.5,1.9l0,0
	l0,0l0,0.1l0,0l0,0l0,0l0,0l0,0l0,0l0,0l0,0l0,0l0,0l0,0l0,0l0,0l0,0l0,0l0,0l0,0l0,0l0,0l0,0l0,0l0,0l0,0l0,0l0,0l0,0l0,0l0,0l0,0
	l0,0l0,0l0,0l0,0l0,0l0,0l0,0l0,0l0,0l0,0l0,0l0,0l0,0l0,0l0,0l0,0l0,0l0,0l0,0l0,0l0,0l0,0l0,0l0,0l0,0l0,0l0,0l0,0l0,0l0,0l0,0
	l0,0l0,0l0,0l0,0l0,0l0,0l0,0l0,0l0.1,0.2l0,0.1c0.4,1,0.6,2.2,0.6,3.3v0c0,0.5,0,1-0.1,1.5l-3.5,0c-0.2,0-0.4,0-0.6-0.1
	c-0.1-0.1-0.2-0.1-0.3-0.2l-0.1-0.1c-0.1-0.1-0.2-0.2-0.3-0.4c0-0.2,0.1-0.5,0.1-0.7l0,0c0-1.3-0.5-2.4-1.3-3.2l0,0
	c-0.3-0.3-0.7-0.6-1.1-0.8L429.9,2.2L429.9,2.2z M424.2,8l-3.5,3.5c0.4,1.8,1.3,3.4,2.6,4.7h0C425,18,427.4,19,430,19l16.2,0
	c2.6,0,5-1.1,6.7-2.8c1.7-1.7,2.8-4.1,2.8-6.7v0c0-0.4,0-0.8-0.1-1.2l-3.5,0c-0.2,0-0.4,0-0.6,0.1c-0.2,0.1-0.4,0.2-0.5,0.3l0,0
	c-0.1,0.1-0.2,0.3-0.3,0.5l0,0l0,0.2l0,0c0,1.3-0.5,2.4-1.3,3.2c-0.8,0.8-2,1.3-3.2,1.3l-16.2,0c-1.3,0-2.4-0.5-3.2-1.3l0,0
	c-0.8-0.8-1.3-2-1.3-3.2l0,0c0-0.2,0-0.5,0.1-0.7c0-0.1-0.1-0.1-0.1-0.2l-0.1-0.1c-0.1-0.1-0.3-0.3-0.5-0.3
	C424.5,8.1,424.4,8,424.2,8L424.2,8z M442.7,9.9L442.7,9.9c0-2.6,1.1-5,2.8-6.7l0,0c1.7-1.7,4.1-2.8,6.7-2.8l16.3,0
	c2.6,0,5,1.1,6.7,2.8v0c0.6,0.6,1.1,1.2,1.5,1.9l0,0l0,0l0,0.1l0,0l0,0l0,0l0,0l0,0l0,0l0,0l0,0l0,0l0,0l0,0l0,0l0,0l0,0l0,0l0,0
	l0,0l0,0l0,0l0,0l0,0l0,0l0,0l0,0l0,0l0,0l0,0l0,0l0,0l0,0l0,0l0,0l0,0l0,0l0,0l0,0l0,0l0,0l0,0l0,0l0,0l0,0l0,0l0,0l0,0l0,0l0,0
	l0,0l0,0l0,0l0,0l0,0l0,0l0,0l0,0l0,0l0,0l0,0l0,0l0,0l0,0l0,0l0,0l0,0l0,0l0,0l0,0l0,0l0.1,0.2l0,0.1c0.4,1,0.6,2.2,0.6,3.3v0
	c0,0.5,0,1-0.1,1.5l-3.5,0c-0.2,0-0.4,0-0.6-0.1c-0.1-0.1-0.2-0.1-0.3-0.2l-0.1-0.1c-0.1-0.1-0.2-0.2-0.3-0.4c0-0.2,0.1-0.5,0.1-0.7
	l0,0c0-1.3-0.5-2.4-1.3-3.2l0,0c-0.8-0.8-2-1.3-3.2-1.3l-3.1,0l-9.7,0l-3.5,0l0,0l0,0l0,0h0l0,0l0,0h0h0l0,0l0,0l0,0l0,0l0,0l0,0h0
	h0l0,0l0,0l0,0l0,0l0,0c-0.5,0-0.9,0.1-1.3,0.3l0,0l0,0l0,0l0,0l0,0l0,0l0,0l0,0l0,0l0,0l0,0l0,0l0,0l0,0l0,0l0,0l0,0l0,0l0,0l0,0
	l0,0l0,0l0,0l0,0l0,0l0,0l0,0l0,0l0,0l0,0l0,0l0,0l0,0l0,0l0,0l0,0l0,0l0,0v0l0,0l-0.1,0l0,0c-0.1,0.1-0.3,0.2-0.4,0.2h0
	c-0.2,0.1-0.4,0.3-0.6,0.5l0,0l0,0l0,0l0,0l0,0l0,0l0,0l0,0l0,0l0,0l0,0l0,0l0,0l0,0l0,0c-0.2,0.2-0.4,0.4-0.5,0.6v0
	c-0.1,0.1-0.2,0.3-0.2,0.4l0,0l0,0.1l0,0h0l0,0l0,0l0,0l0,0l0,0l0,0l0,0l0,0l0,0l0,0l0,0l0,0l0,0l0,0l0,0l0,0l0,0l0,0l0,0l0,0l0,0
	l0,0c0,0.1-0.1,0.2-0.1,0.3l-0.2,0.4l0,0.2c-0.1,0.3-0.1,0.6-0.1,0.9v0l0,0.2l0,0.1c-0.1,0.2-0.2,0.3-0.3,0.5l0,0
	c-0.1,0.1-0.3,0.3-0.5,0.3c-0.2,0.1-0.4,0.1-0.6,0.1l-3.5,0C442.7,10.6,442.7,10.3,442.7,9.9L442.7,9.9z M439.8,5
	c0.8-1.2,1.7-2.3,2.7-3.3l0,0c0.6-0.6,1.2-1.1,1.9-1.7l-3.5,0l-5.4,0l-3.4,0l0,0c0.4,0.3,0.8,0.7,1.1,1l1.6,1.8
	c0.6,0.7,1.1,1.4,1.5,2.2L439.8,5L439.8,5z M464.7,9.5c0,2.6,1.1,5,2.8,6.7h0c1.7,1.7,4.1,2.8,6.7,2.8l16.2,0c2.6,0,5-1.1,6.7-2.8
	c1.7-1.7,2.8-4.1,2.8-6.7v0c0-0.4,0-0.8-0.1-1.2l-3.5,0c-0.2,0-0.4,0-0.6,0.1c-0.2,0.1-0.4,0.2-0.5,0.3l0,0
	c-0.1,0.1-0.2,0.3-0.3,0.5l0,0l0,0.2l0,0c0,1.3-0.5,2.4-1.3,3.2c-0.8,0.8-2,1.3-3.2,1.3l-16.2,0c-1.3,0-2.4-0.5-3.2-1.3l0,0
	c-0.8-0.8-1.3-2-1.3-3.2l0,0c0-0.2,0-0.5,0.1-0.7c0-0.1-0.1-0.1-0.1-0.2l-0.1-0.1c-0.1-0.1-0.3-0.3-0.5-0.3
	c-0.2-0.1-0.4-0.1-0.6-0.1l-3.5,0C464.8,8.5,464.7,9,464.7,9.5L464.7,9.5L464.7,9.5z M461.9,14c0.8,1.2,1.7,2.3,2.7,3.3l0,0
	c0.6,0.6,1.2,1.1,1.9,1.7l-3.5,0l-5.4,0l-3.5,0c0.4-0.3,0.8-0.7,1.1-1.1l1.6-1.8c0.6-0.7,1.1-1.4,1.5-2.2L461.9,14L461.9,14z
	 M487,9.9L487,9.9c0-2.6,1.1-5,2.8-6.7l0,0c1.7-1.7,4.1-2.8,6.7-2.8l16.3,0c2.6,0,5,1.1,6.7,2.8v0c0.6,0.6,1.1,1.2,1.5,1.9l0,0l0,0
	l0,0.1l0,0l0,0l0,0l0,0l0,0l0,0l0,0l0,0l0,0l0,0l0,0l0,0l0,0l0,0l0,0l0,0l0,0l0,0l0,0l0,0l0,0l0,0l0,0l0,0l0,0l0,0l0,0l0,0l0,0l0,0
	l0,0l0,0l0,0l0,0l0,0l0,0l0,0l0,0l0,0l0,0l0,0l0,0l0,0l0,0l0,0l0,0l0,0l0,0l0,0l0,0l0,0l0,0l0,0l0,0l0,0l0,0l0,0l0,0l0,0l0,0l0,0
	l0,0l0,0l0,0v0l0,0l0,0l0,0l0.1,0.2l0,0.1c0.4,1,0.6,2.2,0.6,3.3v0c0,0.5,0,1-0.1,1.5l-3.5,0c-0.2,0-0.4,0-0.6-0.1
	c-0.1-0.1-0.2-0.1-0.3-0.2l-0.1-0.1c-0.1-0.1-0.2-0.2-0.3-0.4c0-0.2,0.1-0.5,0.1-0.7l0,0c0-1.3-0.5-2.4-1.3-3.2l0,0
	c-0.8-0.8-2-1.3-3.2-1.3l-3.1,0l-9.7,0l-3.5,0l0,0l0,0l0,0h0l0,0l0,0h0h0l0,0l0,0h0h0l0,0l0,0h0h0l0,0l0,0l0,0l0,0l0,0
	c-0.5,0-0.9,0.1-1.3,0.3l0,0l0,0l0,0l0,0l0,0l0,0l0,0l0,0l0,0l0,0l0,0l0,0l0,0l0,0l0,0l0,0l0,0l0,0l0,0l0,0l0,0l0,0l0,0l0,0l0,0l0,0
	l0,0l0,0l0,0l0,0l0,0l0,0l0,0l0,0l0,0l0,0l0,0l0,0l0,0l0,0l-0.1,0l0,0C494.2,5.9,494.1,6,494,6l0,0c-0.2,0.1-0.4,0.3-0.6,0.5l0,0
	l0,0l0,0l0,0l0,0l0,0l0,0l0,0l0,0l0,0l0,0l0,0l0,0l0,0l0,0c-0.2,0.2-0.4,0.4-0.5,0.6v0c-0.1,0.1-0.2,0.3-0.2,0.4l0,0l0,0.1l0,0l0,0
	l0,0l0,0l0,0l0,0l0,0l0,0l0,0l0,0l0,0l0,0l0,0l0,0l0,0l0,0l0,0l0,0l0,0l0,0l0,0l0,0l0,0l0,0c0,0.1-0.1,0.2-0.1,0.3L492,8.8l0,0.2
	c-0.1,0.3-0.1,0.6-0.1,0.9v0l0,0.2l0,0.1c-0.1,0.2-0.2,0.3-0.3,0.5l0,0c-0.1,0.1-0.3,0.3-0.5,0.3c-0.2,0.1-0.4,0.1-0.6,0.1l-3.5,0
	C487,10.7,487,10.3,487,9.9L487,9.9z M484,5c0.8-1.2,1.7-2.3,2.7-3.3l0,0c0.6-0.6,1.2-1.1,1.9-1.7l-3.5,0l-5.4,0l-3.5,0
	c0.4,0.3,0.8,0.7,1.1,1.1l1.6,1.8c0.6,0.7,1.1,1.4,1.5,2.2L484,5L484,5z M506.2,14c0.8,1.2,1.7,2.3,2.7,3.3l0,0
	c0.6,0.6,1.2,1.1,1.9,1.7l-3.5,0l-5.4,0l-3.5,0c0.4-0.3,0.8-0.7,1.1-1.1l1.6-1.8c0.6-0.7,1.1-1.4,1.5-2.2L506.2,14L506.2,14z
	 M544.2,9.6c0-2.6-1.1-5-2.8-6.7h0c-1.7-1.7-4.1-2.8-6.7-2.8l-13.8,0l0.6,0.6c1.2,1.2,2.1,2.5,2.7,4.1l0.1,0.2l10.4,0
	c1.3,0,2.4,0.5,3.2,1.3l0,0c0.8,0.8,1.3,2,1.3,3.2l0,0c0,1.3-0.5,2.4-1.3,3.2c-0.8,0.8-2,1.3-3.2,1.3l-16.2,0
	c-1.3,0-2.4-0.5-3.2-1.3l0,0c-0.8-0.8-1.3-2-1.3-3.2l0,0c0-0.2,0-0.5,0.1-0.7c-0.1-0.1-0.2-0.3-0.3-0.4l-0.1-0.1
	c-0.1-0.1-0.2-0.1-0.3-0.2C513,8.1,512.8,8,512.6,8l-3.5,0C509,8.5,509,9,509,9.5v0c0,1.2,0.2,2.3,0.6,3.3l0,0.1l0.1,0.2l0,0l0,0
	l0,0v0l0,0l0,0l0,0l0,0l0,0l0,0l0,0l0,0l0,0l0,0l0,0l0,0l0,0l0,0l0,0l0,0l0,0l0,0l0,0l0,0l0,0l0,0l0,0l0,0l0,0l0,0l0,0l0,0l0,0l0,0
	l0,0l0,0l0,0l0,0l0,0l0,0l0,0l0,0l0,0l0,0l0,0l0,0l0,0l0,0l0,0l0,0l0,0l0,0l0,0l0,0l0,0l0,0l0,0l0,0l0,0l0,0l0,0l0,0l0,0l0,0l0,0
	l0,0l0,0l0,0l0,0.1l0,0l0,0c0.4,0.7,0.9,1.3,1.5,1.9l0,0c1.7,1.7,4.1,2.8,6.7,2.8l16.2,0c2.6,0,5-1.1,6.7-2.8l0,0
	C543.2,14.5,544.2,12.2,544.2,9.6L544.2,9.6z"/>
<path fill-rule="evenodd" clip-rule="evenodd" fill="#ABABAB" d="M446.3,2.3c-0.4,0.3-0.7,0.6-1,0.9v0c-0.6,0.6-1.1,1.2-1.5,1.9l0,0
	l0,0l0,0.1l0,0l0,0l0,0l0,0l0,0l0,0l0,0l0,0l0,0l0,0l0,0l0,0l0,0l0,0l0,0l0,0l0,0l0,0l0,0l0,0l0,0l0,0l0,0l0,0l0,0l0,0l0,0l0,0l0,0
	l0,0l0,0l0,0l0,0l0,0l0,0l0,0l0,0l0,0l0,0l0,0l0,0l0,0l0,0l0,0l0,0l0,0l0,0l0,0l0,0l0,0l0,0l0,0l0,0l0,0l0,0l0,0l0,0l0,0l0,0l0,0
	l0,0l0,0l0,0l0,0l0,0l0,0l0,0l0,0l-0.1,0.2l0,0.1c-0.4,1-0.6,2.2-0.6,3.3v0c0,0.5,0,1,0.1,1.5l3.5,0c0.2,0,0.4,0,0.6-0.1
	c0.1-0.1,0.2-0.1,0.3-0.2l0.1-0.1c0.1-0.1,0.2-0.2,0.3-0.4c0-0.2-0.1-0.5-0.1-0.7l0,0c0-1.3,0.5-2.4,1.3-3.2l0,0
	c0.3-0.3,0.7-0.6,1.1-0.8L446.3,2.3L446.3,2.3z M452,8l3.5,3.5c-0.4,1.8-1.3,3.4-2.6,4.7h0c-1.7,1.7-4.1,2.8-6.7,2.8L430,19
	c-2.6,0-5-1.1-6.7-2.8c-1.7-1.7-2.8-4.1-2.8-6.7v0c0-0.4,0-0.8,0.1-1.2l3.5,0c0.2,0,0.4,0,0.6,0.1c0.2,0.1,0.4,0.2,0.5,0.3l0,0
	c0.1,0.1,0.2,0.3,0.3,0.5l0,0l0,0.2l0,0c0,1.3,0.5,2.4,1.3,3.2c0.8,0.8,2,1.3,3.2,1.3l16.2,0c1.3,0,2.4-0.5,3.2-1.3l0,0
	c0.8-0.8,1.3-2,1.3-3.2l0,0c0-0.2,0-0.5-0.1-0.7c0-0.1,0.1-0.1,0.1-0.2l0.1-0.1c0.1-0.1,0.3-0.3,0.5-0.3C451.7,8.1,451.9,8,452,8
	L452,8z M433.5,9.9L433.5,9.9c0-2.6-1.1-5-2.8-6.7l0,0c-1.7-1.7-4.1-2.8-6.7-2.8l-16.3,0c-2.6,0-5,1.1-6.7,2.8v0
	c-0.6,0.6-1.1,1.2-1.5,1.9l0,0l0,0l0,0.1l0,0l0,0l0,0l0,0l0,0l0,0l0,0l0,0l0,0l0,0l0,0l0,0l0,0l0,0l0,0l0,0l0,0l0,0l0,0l0,0l0,0l0,0
	l0,0l0,0l0,0l0,0l0,0l0,0l0,0l0,0l0,0l0,0l0,0l0,0l0,0l0,0l0,0l0,0l0,0l0,0l0,0l0,0l0,0l0,0l0,0l0,0l0,0l0,0l0,0l0,0l0,0l0,0l0,0
	l0,0l0,0l0,0l0,0l0,0l0,0l0,0l0,0l0,0l0,0l0,0l0,0l0,0l0,0l0,0l-0.1,0.2l0,0.1c-0.4,1-0.6,2.2-0.6,3.3v0c0,0.5,0,1,0.1,1.5l3.5,0
	c0.2,0,0.4,0,0.6-0.1c0.1-0.1,0.2-0.1,0.3-0.2l0.1-0.1c0.1-0.1,0.2-0.2,0.3-0.4c0-0.2-0.1-0.5-0.1-0.7l0,0c0-1.3,0.5-2.4,1.3-3.2
	l0,0c0.8-0.8,2-1.3,3.2-1.3l3.1,0l9.7,0l3.5,0l0,0l0,0l0,0h0l0,0l0,0h0h0l0,0l0,0l0,0l0,0l0,0l0,0h0h0l0,0l0,0l0,0l0,0l0,0
	c0.5,0,0.9,0.1,1.3,0.3l0,0l0,0l0,0l0,0l0,0l0,0l0,0l0,0l0,0l0,0l0,0l0,0l0,0l0,0l0,0l0,0l0,0l0,0l0,0l0,0l0,0l0,0l0,0l0,0l0,0l0,0
	l0,0l0,0l0,0l0,0l0,0l0,0l0,0l0,0l0,0l0,0l0,0l0,0v0l0,0l0.1,0l0,0c0.1,0.1,0.3,0.2,0.4,0.2h0c0.2,0.1,0.4,0.3,0.6,0.5l0,0l0,0l0,0
	l0,0l0,0l0,0l0,0l0,0l0,0l0,0l0,0l0,0l0,0l0,0l0,0c0.2,0.2,0.4,0.4,0.5,0.6v0c0.1,0.1,0.2,0.3,0.2,0.4l0,0l0,0.1l0,0h0l0,0l0,0l0,0
	l0,0l0,0l0,0l0,0l0,0l0,0l0,0l0,0l0,0l0,0l0,0l0,0l0,0l0,0l0,0l0,0l0,0l0,0l0,0c0,0.1,0.1,0.2,0.1,0.3l0.2,0.4l0,0.2
	c0.1,0.3,0.1,0.6,0.1,0.9v0l0,0.2l0,0.1c0.1,0.2,0.2,0.3,0.3,0.5l0,0c0.1,0.1,0.3,0.3,0.5,0.3c0.2,0.1,0.4,0.1,0.6,0.1l3.5,0
	C433.5,10.6,433.5,10.3,433.5,9.9L433.5,9.9z M436.5,5c-0.8-1.2-1.7-2.3-2.7-3.3l0,0c-0.6-0.6-1.2-1.1-1.9-1.7l3.5,0l5.4,0l3.4,0
	l0,0c-0.4,0.3-0.8,0.7-1.1,1l-1.6,1.8c-0.6,0.7-1.1,1.4-1.5,2.2L436.5,5L436.5,5z M411.5,9.5c0,2.6-1.1,5-2.8,6.7h0
	c-1.7,1.7-4.1,2.8-6.7,2.8l-16.2,0c-2.6,0-5-1.1-6.7-2.8c-1.7-1.7-2.8-4.1-2.8-6.7v0c0-0.4,0-0.8,0.1-1.2l3.5,0c0.2,0,0.4,0,0.6,0.1
	c0.2,0.1,0.4,0.2,0.5,0.3l0,0c0.1,0.1,0.2,0.3,0.3,0.5l0,0l0,0.2l0,0c0,1.3,0.5,2.4,1.3,3.2c0.8,0.8,2,1.3,3.2,1.3l16.2,0
	c1.3,0,2.4-0.5,3.2-1.3l0,0c0.8-0.8,1.3-2,1.3-3.2l0,0c0-0.2,0-0.5-0.1-0.7c0-0.1,0.1-0.1,0.1-0.2l0.1-0.1c0.1-0.1,0.3-0.3,0.5-0.3
	c0.2-0.1,0.4-0.1,0.6-0.1l3.5,0C411.5,8.5,411.5,9,411.5,9.5L411.5,9.5L411.5,9.5z M414.3,14c-0.8,1.2-1.7,2.3-2.7,3.3l0,0
	c-0.6,0.6-1.2,1.1-1.9,1.7l3.5,0l5.4,0l3.5,0c-0.4-0.3-0.8-0.7-1.1-1.1l-1.6-1.8c-0.6-0.7-1.1-1.4-1.5-2.2L414.3,14L414.3,14z
	 M389.3,9.9L389.3,9.9c0-2.6-1.1-5-2.8-6.7l0,0c-1.7-1.7-4.1-2.8-6.7-2.8l-16.3,0c-2.6,0-5,1.1-6.7,2.8v0c-0.6,0.6-1.1,1.2-1.5,1.9
	l0,0l0,0l0,0.1l0,0l0,0l0,0l0,0l0,0l0,0l0,0l0,0l0,0l0,0l0,0l0,0l0,0l0,0l0,0l0,0l0,0l0,0l0,0l0,0l0,0l0,0l0,0l0,0l0,0l0,0l0,0l0,0
	l0,0l0,0l0,0l0,0l0,0l0,0l0,0l0,0l0,0l0,0l0,0l0,0l0,0l0,0l0,0l0,0l0,0l0,0l0,0l0,0l0,0l0,0l0,0l0,0l0,0l0,0l0,0l0,0l0,0l0,0l0,0
	l0,0l0,0l0,0l0,0l0,0v0l0,0l0,0l0,0l-0.1,0.2l0,0.1c-0.4,1-0.6,2.2-0.6,3.3v0c0,0.5,0,1,0.1,1.5l3.5,0c0.2,0,0.4,0,0.6-0.1
	c0.1-0.1,0.2-0.1,0.3-0.2l0.1-0.1c0.1-0.1,0.2-0.2,0.3-0.4c0-0.2-0.1-0.5-0.1-0.7l0,0c0-1.3,0.5-2.4,1.3-3.2l0,0
	c0.8-0.8,2-1.3,3.2-1.3l3.1,0l9.7,0l3.5,0l0,0l0,0l0,0h0l0,0l0,0h0l0,0l0,0l0,0h0h0l0,0l0,0h0h0l0,0l0,0l0,0l0,0l0,0
	c0.5,0,0.9,0.1,1.3,0.3l0,0l0,0l0,0l0,0l0,0l0,0l0,0l0,0l0,0l0,0l0,0l0,0l0,0l0,0l0,0l0,0l0,0l0,0l0,0l0,0l0,0l0,0l0,0l0,0l0,0l0,0
	l0,0l0,0l0,0l0,0l0,0l0,0l0,0l0,0l0,0l0,0l0,0l0,0l0,0l0,0l0.1,0l0,0c0.1,0.1,0.3,0.2,0.4,0.2l0,0c0.2,0.1,0.4,0.3,0.6,0.5l0,0l0,0
	l0,0l0,0l0,0l0,0l0,0l0,0l0,0l0,0l0,0l0,0l0,0l0,0l0,0c0.2,0.2,0.4,0.4,0.5,0.6v0c0.1,0.1,0.2,0.3,0.2,0.4l0,0l0,0.1l0,0l0,0l0,0
	l0,0l0,0l0,0l0,0l0,0l0,0l0,0l0,0l0,0l0,0l0,0l0,0l0,0l0,0l0,0l0,0l0,0l0,0l0,0l0,0l0,0c0,0.1,0.1,0.2,0.1,0.3l0.2,0.4l0,0.2
	c0.1,0.3,0.1,0.6,0.1,0.9v0l0,0.2l0,0.1c0.1,0.2,0.2,0.3,0.3,0.5l0,0c0.1,0.1,0.3,0.3,0.5,0.3c0.2,0.1,0.4,0.1,0.6,0.1l3.5,0
	C389.2,10.7,389.3,10.3,389.3,9.9L389.3,9.9z M392.2,5c-0.8-1.2-1.7-2.3-2.7-3.3l0,0c-0.6-0.6-1.2-1.1-1.9-1.7l3.5,0l5.4,0l3.5,0
	c-0.4,0.3-0.8,0.7-1.1,1.1l-1.6,1.8c-0.6,0.7-1.1,1.4-1.5,2.2L392.2,5L392.2,5z M370.1,14c-0.8,1.2-1.7,2.3-2.7,3.3l0,0
	c-0.6,0.6-1.2,1.1-1.9,1.7l3.5,0l5.4,0l3.5,0c-0.4-0.3-0.8-0.7-1.1-1.1l-1.6-1.8c-0.6-0.7-1.1-1.4-1.5-2.2L370.1,14L370.1,14z
	 M332,9.6c0-2.6,1.1-5,2.8-6.7h0c1.7-1.7,4.1-2.8,6.7-2.8l13.8,0l-0.6,0.6c-1.2,1.2-2.1,2.5-2.7,4.1L351.9,5l-10.4,0
	c-1.3,0-2.4,0.5-3.2,1.3l0,0c-0.8,0.8-1.3,2-1.3,3.2l0,0c0,1.3,0.5,2.4,1.3,3.2c0.8,0.8,2,1.3,3.2,1.3l16.2,0c1.3,0,2.4-0.5,3.2-1.3
	l0,0c0.8-0.8,1.3-2,1.3-3.2l0,0c0-0.2,0-0.5-0.1-0.7c0.1-0.1,0.2-0.3,0.3-0.4l0.1-0.1c0.1-0.1,0.2-0.1,0.3-0.2
	c0.2-0.1,0.4-0.1,0.6-0.1l3.5,0c0.1,0.5,0.1,1,0.1,1.5v0c0,1.2-0.2,2.3-0.6,3.3l0,0.1l-0.1,0.2l0,0l0,0l0,0v0l0,0l0,0l0,0l0,0l0,0
	l0,0l0,0l0,0l0,0l0,0l0,0l0,0l0,0l0,0l0,0l0,0l0,0l0,0l0,0l0,0l0,0l0,0l0,0l0,0l0,0l0,0l0,0l0,0l0,0l0,0l0,0l0,0l0,0l0,0l0,0l0,0
	l0,0l0,0l0,0l0,0l0,0l0,0l0,0l0,0l0,0l0,0l0,0l0,0l0,0l0,0l0,0l0,0l0,0l0,0l0,0l0,0l0,0l0,0l0,0l0,0l0,0l0,0l0,0l0,0l0,0.1l0,0l0,0
	c-0.4,0.7-0.9,1.3-1.5,1.9l0,0c-1.7,1.7-4.1,2.8-6.7,2.8l-16.2,0c-2.6,0-5-1.1-6.7-2.8l0,0C333.1,14.5,332,12.2,332,9.6L332,9.6z"/>
</svg>
