<?xml version="1.0" encoding="utf-8"?>
<!-- Generator: Adobe Illustrator 18.0.0, SVG Export Plug-In . SVG Version: 6.00 Build 0)  -->
<!DOCTYPE svg PUBLIC "-//W3C//DTD SVG 1.1//EN" "http://www.w3.org/Graphics/SVG/1.1/DTD/svg11.dtd">
<svg version="1.1" id="Layer_1" xmlns="http://www.w3.org/2000/svg" xmlns:xlink="http://www.w3.org/1999/xlink" x="0px" y="0px"
	 viewBox="0 0 297.4 259.4" enable-background="new 0 0 297.4 259.4" xml:space="preserve">
<g>
	<g>
		<path fill-rule="evenodd" clip-rule="evenodd" fill="#FFFFFF" d="M150.1,199.2l-0.5-0.1c-4.6-0.8-9-1.9-13.2-3.2
			c-4.2-1.4-8.2-3-12-4.9c-2.4-1.2-4.8-2.6-7.2-4.2c-2.3-1.5-4.6-3.2-6.6-4.9c-2.9-2.4-5.5-5-8-7.7c-2.5-2.8-4.9-5.8-7-9
			c-0.5-0.7-1-1.6-1.6-2.5c-0.5-0.9-1.1-1.7-1.5-2.5c-3.1-5.3-5.8-11.3-8.1-17.8c-2.3-6.6-4.2-13.7-5.7-21.5
			c-1.5-7.7-2.5-16.1-3.2-25.2c-0.6-9.1-0.8-18.9-0.5-29.3h0l0.4,0h0c0,0,0.1,0,0.3,0h0.1l0.6,0v0c2.7,0,5.3-0.5,7.7-1.5
			c2.5-1,4.7-2.5,6.6-4.4c0.4-0.4,0.8-0.9,1.2-1.3c-0.8-1-1.6-1.9-1.8-2.2c-2.4-2.9-4.3-5.5-5.3-7.3v0c-0.1-0.3-0.2-0.4-0.3-0.7l0,0
			c-0.1-0.4-0.1-0.6,0-0.8l0.6-3.6l2.8,2.4l7.5,6.3c0.8-2.2,1.2-4.5,1.2-6.9c0-0.6,0-1.2-0.1-1.9h0c-0.1-0.7-0.1-1.3-0.3-1.8
			c-0.1-0.7-0.3-1.3-0.4-1.8c-0.2-0.6-0.4-1.2-0.6-1.8l1.7-0.6c1.8-0.7,3.7-1.4,5.7-2c1.9-0.6,4-1.2,6.1-1.8
			c2.1-0.5,4.2-1.1,6.5-1.5c2.2-0.5,4.5-0.9,6.7-1.3c2.2-0.4,4.5-0.7,6.9-1c2.3-0.3,4.7-0.5,7-0.7c2.5-0.2,4.8-0.4,7.1-0.4
			c2.2-0.1,4.6-0.1,7.1-0.1h0.1h0.1c2.5,0,4.9,0,7.1,0.1c2.3,0.1,4.7,0.2,7.1,0.4c2.4,0.2,4.7,0.4,7,0.7c2.4,0.3,4.7,0.6,6.9,1
			c2.3,0.4,4.5,0.8,6.7,1.3c2.2,0.5,4.4,1,6.5,1.5c2.1,0.6,4.2,1.2,6.1,1.8c2,0.6,3.9,1.3,5.7,2l1.7,0.6c-0.2,0.6-0.4,1.2-0.6,1.8
			c-0.2,0.6-0.3,1.2-0.4,1.8c-0.1,0.6-0.2,1.2-0.3,1.8h0c-0.1,0.7-0.1,1.3-0.1,1.9c0,2.7,0.5,5.3,1.5,7.7c1,2.5,2.5,4.7,4.4,6.6
			s4.1,3.4,6.6,4.4c2.4,1,5,1.5,7.7,1.5v0l0.6,0h0.1c0.2,0,0.2,0,0.3,0h0l0.4,0h0c0.3,10.4,0.1,20.1-0.5,29.3
			c-0.6,9.1-1.7,17.5-3.2,25.2c-1.5,7.8-3.4,14.9-5.7,21.5c-2.3,6.5-5,12.4-8.1,17.8c-0.5,0.8-1,1.7-1.5,2.5
			c-0.6,0.9-1.1,1.7-1.6,2.5c-0.8,1.2-1.6,2.4-2.5,3.5l1.9,1.9c0.5,0.5,0.9,1.1,1.1,1.7c0.3,0.8,0.4,1.2,0.4,2c0,0.7-0.1,1.4-0.4,2
			c-0.5,1.3-1.5,2.3-2.8,2.8c-1.3,0.5-2.7,0.5-4,0c-0.6-0.3-1.2-0.6-1.7-1.1l-1.4-1.4c-1.8,1.8-3.7,3.5-5.6,5.2
			c-2.1,1.7-4.3,3.4-6.6,4.9c-2.4,1.6-4.8,3-7.2,4.2c-3.8,1.9-7.8,3.6-12,4.9c-4.2,1.4-8.6,2.4-13.2,3.2L150.1,199.2L150.1,199.2z
			 M201.8,141.3c-1.4,0.4-3.2,0.6-5.1,0.7c0.1,0.6,0.1,1.1-0.1,1.7c2.2-0.2,4.3-0.5,5.7-1.1C203.7,142,203.6,140.8,201.8,141.3
			L201.8,141.3z M158.4,132.5c-0.6,0.6-0.9,1.4-0.9,2.2l0,0c0,0.8,0.3,1.6,0.9,2.2l3.2,3.2l0-0.3c0-0.5,0.1-1.1,0.3-1.6l0-0.1
			l-2.4-2.4c-0.3-0.3-0.4-0.7-0.4-1.1h0c0-0.4,0.1-0.8,0.4-1.1l0,0c0.3-0.3,0.7-0.4,1.1-0.4c0.4,0,0.8,0.1,1.1,0.4l3.8,3.8
			c0.3,0.3,0.4,0.7,0.4,1.1h0c0,0.4-0.1,0.8-0.4,1.1l0,0c-0.1,0.1-0.1,0.1-0.2,0.1c0,0,0,0.1,0,0.1v0.1c0,0,0,0.1,0,0.1
			c0,0.1,0.1,0.1,0.1,0.2l0.8,0.8c0.1-0.1,0.3-0.2,0.4-0.3l0,0c0.3-0.3,0.5-0.6,0.6-0.9l0,0l0-0.1l0,0l0,0l0,0l0,0l0,0l0,0l0,0l0,0
			l0,0l0,0l0,0l0,0l0,0l0,0l0,0l0,0l0,0l0,0l0,0l0,0l0,0l0,0l0,0l0,0l0,0l0,0l0,0l0,0l0,0l0,0l0,0l0,0l0,0l0,0l0,0l0,0l0,0l0,0l0,0
			l0,0l0,0l0,0l0,0l0,0l0,0l0,0l0,0l0,0l0,0l0,0l0,0l0,0l0,0l0,0l0,0l0,0l0,0l0,0l0,0l0,0l0,0l0,0l0,0l0,0l0,0l0,0v0l0,0l0,0l0,0
			l0,0c0.1-0.3,0.1-0.5,0.1-0.8l0,0c0-0.8-0.3-1.6-0.9-2.2l-3.8-3.8c-0.6-0.6-1.4-0.9-2.2-0.9h0C159.8,131.6,159,131.9,158.4,132.5
			L158.4,132.5L158.4,132.5z M163.5,137.6c-0.6,0.6-0.9,1.4-0.9,2.2l0,0c0,0.4,0.1,0.8,0.2,1.2c0.7,0,1.3,0,2,0l-0.2-0.2
			c-0.3-0.3-0.4-0.7-0.4-1.1h0c0-0.4,0.1-0.8,0.4-1.1v0c0.1-0.1,0.1-0.1,0.2-0.1c0,0,0-0.1,0-0.1v-0.1c0-0.1,0-0.1,0-0.2
			c0-0.1-0.1-0.1-0.1-0.2l-0.8-0.8C163.8,137.4,163.7,137.5,163.5,137.6L163.5,137.6L163.5,137.6z M177.7,148.4l-1.6,0
			c0,0.1,0.1,0.3,0.1,0.4h0c0,0.4-0.1,0.8-0.4,1.1v0c-0.1,0.1-0.1,0.1-0.2,0.1c0,0,0,0.1,0,0.1v0.1c0,0,0,0.1,0,0.1
			c0,0.1,0.1,0.1,0.1,0.2l0.8,0.8c0.1-0.1,0.3-0.2,0.4-0.3l0,0c0.3-0.3,0.5-0.6,0.6-0.9l0,0l0-0.1h0l0,0l0,0l0,0l0,0l0,0l0,0l0,0
			l0,0l0,0l0,0l0,0l0,0l0,0l0,0l0,0v0l0,0l0,0l0,0l0,0l0,0l0,0l0,0l0,0l0,0l0,0l0,0l0,0l0,0l0,0l0,0l0,0l0,0l0,0l0,0l0,0l0,0l0,0
			l0,0l0,0v0l0,0l0,0l0,0l0,0l0,0l0,0l0,0l0,0l0,0l0,0l0,0l0,0l0,0l0,0l0,0l0,0l0,0l0,0l0,0l0,0l0,0l0,0l0,0l0,0v0l0,0l0,0l0,0l0,0
			c0.1-0.3,0.1-0.5,0.1-0.8l0,0C177.7,148.7,177.7,148.5,177.7,148.4L177.7,148.4z M169,141l0.3,0c0.4-0.1,0.8-0.1,1.2-0.1h0
			c0.3,0,0.5,0,0.8,0l-0.8-0.8l-1.3-1.3l-0.8-0.8c0,0.2,0,0.3,0,0.5l0,0.8c0,0.3-0.1,0.6-0.1,0.9L169,141L169,141z M175,148.4
			l-1.6,0c-0.3,0.5-0.5,1.1-0.5,1.7l0,0c0,0.8,0.3,1.6,0.9,2.2l3.8,3.8c0.6,0.6,1.4,0.9,2.2,0.9c0.8,0,1.6-0.3,2.2-0.9l0,0
			c0.1-0.1,0.2-0.2,0.3-0.3l-0.8-0.8c0,0-0.1-0.1-0.2-0.1c-0.1,0-0.1,0-0.2,0h0c-0.1,0-0.1,0-0.2,0l0,0l0,0v0
			c-0.3,0.3-0.7,0.4-1.1,0.4c-0.4,0-0.8-0.1-1.1-0.4l-3.8-3.8c-0.3-0.3-0.4-0.7-0.4-1.1h0c0-0.4,0.1-0.8,0.4-1.1l0,0
			c0.1-0.1,0.1-0.1,0.2-0.1c0,0,0-0.1,0-0.1v-0.1c0-0.1,0-0.1,0-0.2C175.1,148.5,175.1,148.5,175,148.4L175,148.4z M170,148.5
			L170,148.5l1.3,1.3l0.8,0.8c0-0.3,0-0.5,0-0.8v0c0-0.4,0-0.8,0.1-1.3L170,148.5L170,148.5z M178.9,153.1c-0.1,0.1-0.2,0.2-0.3,0.3
			l0.8,0.8c0,0,0.1,0.1,0.2,0.1c0.1,0,0.1,0,0.2,0v0c0.1,0,0.1,0,0.2,0l0,0l0,0l0,0c0.1-0.1,0.1-0.1,0.2-0.2l0,0l0.1-0.1
			c0,0,0.1,0,0.1,0l0,0l0,0l0,0l0,0l0,0l0,0l0,0l0,0h0l0,0l0,0l0,0l0,0l0,0l0,0l0,0l0,0l0,0l0,0l0,0l0,0l0,0l0,0l0,0l0,0l0,0
			c0.1,0,0.1,0,0.2,0l0,0c0.1,0,0.2,0,0.3,0l0,0l0,0h0l0,0l0,0h0l0,0h0l0,0l0,0h0h0h0l0,0l0,0c0.1,0,0.2,0,0.3,0l0,0
			c0.1,0,0.1,0,0.2,0l0,0l0,0l0,0l0,0l0,0l0,0l0,0l0,0l0,0l0,0l0,0l0,0l0,0l0,0l0,0l0,0l0,0h0l0,0l0,0l0,0l0,0l0,0l0,0l0,0l0,0h0
			l0,0l0,0l0,0l0,0h0l0,0l0,0l0,0l0,0h0l0,0l0,0l0,0l0,0l0,0c0.1,0.1,0.3,0.1,0.4,0.2l0,0l0,0l0,0l0,0l0,0l0,0l0,0l0,0l0,0l0,0v0
			l0,0l0,0l0,0l0,0l0,0l0,0l0,0l0,0l0,0l0,0l0.8,0.8l2.2,2.2l0.7,0.7c0.3,0.3,0.4,0.7,0.4,1.1h0c0,0.4-0.1,0.8-0.4,1.1l0,0
			c-0.1,0.1-0.1,0.1-0.2,0.1c0,0,0,0.1,0,0.1v0.1c0,0,0,0.1,0,0.1c0,0.1,0.1,0.1,0.1,0.2l0.8,0.8c0.1-0.1,0.3-0.2,0.4-0.3l0,0
			c0.3-0.3,0.5-0.6,0.6-0.9l0,0l0-0.1l0,0l0,0l0,0l0,0l0,0l0,0l0,0l0,0l0,0l0,0l0,0l0,0l0,0l0,0l0,0l0,0v0l0,0l0,0l0,0l0,0l0,0l0,0
			l0,0l0,0l0,0l0,0l0,0l0,0l0,0l0,0l0,0l0,0l0,0l0,0l0,0l0,0l0,0l0,0l0,0l0,0v0l0,0l0,0l0,0l0,0l0,0l0,0l0,0l0,0l0,0l0,0l0,0l0,0
			l0,0l0,0l0,0l0,0l0,0l0,0l0,0l0,0l0,0l0,0l0,0l0,0v0l0,0l0,0l0,0l0,0c0.1-0.3,0.1-0.5,0.1-0.8l0,0c0-0.8-0.3-1.6-0.9-2.2l-3.8-3.8
			c-0.6-0.6-1.4-0.9-2.2-0.9h0C180.3,152.2,179.5,152.5,178.9,153.1L178.9,153.1L178.9,153.1z M179.3,151.3c0.5-0.1,0.9-0.1,1.4-0.1
			h0c0.3,0,0.5,0,0.8,0l-0.8-0.8l-1.3-1.3l-0.8-0.8l0,0c0,0.2,0,0.3,0,0.5l0,0.8c0,0.3-0.1,0.6-0.1,0.9L179.3,151.3L179.3,151.3z
			 M184.1,158.2c-0.6,0.6-0.9,1.4-0.9,2.2l0,0c0,0.8,0.3,1.6,0.9,2.2l3.8,3.8c0.6,0.6,1.4,0.9,2.2,0.9c0.8,0,1.6-0.3,2.2-0.9l0,0
			c0.1-0.1,0.2-0.2,0.3-0.3l-0.8-0.8c0,0-0.1-0.1-0.2-0.1c-0.1,0-0.1,0-0.2,0h0c-0.1,0-0.1,0-0.2,0l0,0l0,0l0,0
			c-0.3,0.3-0.7,0.4-1.1,0.4c-0.4,0-0.8-0.1-1.1-0.4l-3.8-3.8c-0.3-0.3-0.4-0.7-0.4-1.1h0c0-0.4,0.1-0.8,0.4-1.1h0
			c0.1-0.1,0.1-0.1,0.2-0.1c0,0,0-0.1,0-0.1V159c0-0.1,0-0.1,0-0.2c0-0.1-0.1-0.1-0.1-0.2l-0.8-0.8
			C184.3,157.9,184.2,158,184.1,158.2L184.1,158.2L184.1,158.2z M182.4,158.5l-0.8-0.8c-0.3,0.1-0.6,0.1-0.9,0.1l-0.8,0
			c-0.2,0-0.3,0-0.5,0l0.8,0.8l1.3,1.3l0.8,0.8c0-0.3,0-0.5,0-0.8v0C182.2,159.5,182.3,159,182.4,158.5L182.4,158.5z M189.2,163.4
			c-0.1,0.1-0.2,0.2-0.3,0.3l0.8,0.8c0,0,0.1,0.1,0.2,0.1c0.1,0,0.1,0,0.2,0v0c0.1,0,0.1,0,0.2,0l0,0l0,0l0,0
			c0.1-0.1,0.1-0.1,0.2-0.2l0,0l0.1-0.1c0,0,0.1,0,0.1,0l0,0l0,0l0,0l0,0l0,0l0,0l0,0l0,0h0l0,0l0,0l0,0l0,0l0,0l0,0l0,0l0,0l0,0
			l0,0l0,0l0,0l0,0h0l0,0l0,0l0,0c0.1,0,0.1,0,0.2,0l0,0c0.1,0,0.2,0,0.3,0l0,0l0,0h0l0,0l0,0h0l0,0h0l0,0l0,0h0h0h0l0,0l0,0
			c0.1,0,0.2,0,0.3,0l0,0c0.1,0,0.1,0,0.2,0l0,0l0,0l0,0h0l0,0l0,0l0,0l0,0l0,0l0,0l0,0l0,0l0,0l0,0l0,0l0,0l0,0h0l0,0l0,0l0,0l0,0
			l0,0l0,0l0,0l0,0l0,0l0,0l0,0l0,0l0,0h0l0,0l0,0l0,0l0,0h0l0,0l0,0l0,0l0,0l0,0c0.1,0.1,0.3,0.1,0.4,0.2l0,0l0,0l0,0l0,0l0,0l0,0
			l0,0l0,0l0,0l0,0l0,0l0,0l0,0l0,0l0,0l0,0l0,0l0,0l0,0l0,0l0,0l0.8,0.8l2.2,2.2l0.7,0.7c0.3,0.3,0.4,0.7,0.4,1.1h0
			c0,0.4-0.1,0.8-0.4,1.1l0,0c-0.1,0.1-0.1,0.1-0.2,0.1c0,0,0,0.1,0,0.1v0.1c0,0,0,0.1,0,0.1c0,0.1,0.1,0.1,0.1,0.2l0.8,0.8
			c0.1-0.1,0.3-0.2,0.4-0.3l0,0c0.3-0.3,0.5-0.6,0.6-0.9l0,0l0-0.1l0,0l0,0l0,0l0,0l0,0l0,0l0,0l0,0l0,0l0,0l0,0l0,0l0,0l0,0l0,0
			l0,0v0l0,0l0,0l0,0l0,0l0,0l0,0l0,0l0,0l0,0l0,0l0,0l0,0l0,0l0,0l0,0l0,0l0,0l0,0l0,0l0,0l0,0l0,0l0,0l0,0v0l0,0l0,0l0,0l0,0l0,0
			l0,0l0,0l0,0l0,0l0,0l0,0l0,0l0,0l0,0l0,0l0,0l0,0l0,0l0,0l0,0l0,0l0,0l0,0l0,0v0l0,0l0,0l0,0l0,0c0.1-0.3,0.1-0.5,0.1-0.8l0,0
			c0-0.8-0.3-1.6-0.9-2.2l-3.8-3.8c-0.6-0.6-1.4-0.9-2.2-0.9h0C190.6,162.5,189.8,162.8,189.2,163.4L189.2,163.4L189.2,163.4z
			 M189.6,161.6c0.5-0.1,0.9-0.1,1.4-0.1h0c0.3,0,0.5,0,0.8,0l-0.8-0.8l-1.3-1.3l-0.8-0.8c0,0.2,0,0.3,0,0.5l0,0.8
			c0,0.3-0.1,0.6-0.1,0.9L189.6,161.6L189.6,161.6z M192.6,168.8l-0.8-0.8c-0.3,0.1-0.6,0.1-0.9,0.1l-0.8,0c-0.2,0-0.3,0-0.5,0
			l0.8,0.8l1.3,1.3l0.8,0.8c0-0.3,0-0.5,0-0.8v0C192.5,169.7,192.5,169.3,192.6,168.8L192.6,168.8z M202.5,176.6
			c0.6-0.6,0.9-1.4,0.9-2.2l0,0c0-0.8-0.3-1.6-0.9-2.2l-3.2-3.2l0,0.3c0,0.5-0.1,1.1-0.3,1.6l0,0.1l2.4,2.4c0.3,0.3,0.4,0.7,0.4,1.1
			h0c0,0.4-0.1,0.8-0.4,1.1h0c-0.3,0.3-0.7,0.4-1.1,0.4c-0.4,0-0.8-0.1-1.1-0.4l-3.8-3.8c-0.3-0.3-0.4-0.7-0.4-1.1h0
			c0-0.4,0.1-0.8,0.4-1.1v0c0.1-0.1,0.1-0.1,0.2-0.1c0,0,0-0.1,0-0.1v-0.1c0,0,0-0.1,0-0.1c0-0.1-0.1-0.1-0.1-0.2l-0.8-0.8
			c-0.1,0.1-0.3,0.2-0.4,0.3l0,0c-0.3,0.3-0.5,0.6-0.6,0.9l0,0l0,0.1l0,0l0,0l0,0l0,0l0,0l0,0l0,0l0,0l0,0l0,0l0,0l0,0l0,0l0,0l0,0
			l0,0l0,0l0,0l0,0l0,0l0,0l0,0l0,0l0,0l0,0l0,0l0,0l0,0l0,0l0,0l0,0l0,0l0,0l0,0l0,0l0,0l0,0l0,0l0,0l0,0l0,0v0l0,0l0,0l0,0l0,0
			l0,0l0,0l0,0l0,0l0,0l0,0l0,0l0,0l0,0l0,0l0,0l0,0l0,0l0,0l0,0l0,0l0,0l0,0l0,0l0,0v0l0,0l0,0l0,0l0,0c-0.1,0.3-0.1,0.5-0.1,0.8
			l0,0c0,0.8,0.3,1.6,0.9,2.2l3.8,3.8c0.6,0.6,1.4,0.9,2.2,0.9h0C201.1,177.5,201.9,177.2,202.5,176.6L202.5,176.6L202.5,176.6z
			 M182.4,161.8c-0.3,0-0.5,0-0.7-0.2c-1,0.9-2,1.7-3,2.5c-1.7,1.3-3.7,2.5-5.5,3.8c-0.3,0.2-0.6,0.3-1,0c-0.4-0.3,0.2-0.7,0.4-0.9
			c3.1-1.9,6-3.9,8.6-6l-0.4-0.4l-1.3-1.3l0,0l-0.8-0.8c-0.2-0.2-0.4-0.5-0.3-0.9l0,0c-0.1,0-0.1-0.1-0.2-0.1
			c-3.1,2.3-6.6,4.4-10.8,6.5c-4.2,2-0.1,8.9,3.9,6.5c4.4-2.7,8.1-5.4,11.3-8.4c-0.1-0.1-0.1-0.2-0.2-0.4
			C182.4,161.9,182.4,161.9,182.4,161.8L182.4,161.8z M170.3,166.5c-0.5-0.4-1.2-0.2-1.6,0.3c-0.4,0.5-0.2,1.2,0.3,1.6
			c0.5,0.4,1.2,0.2,1.6-0.3C170.9,167.5,170.8,166.8,170.3,166.5L170.3,166.5z M184.1,152.4l2.9,2.9c1.5-1.8,2.9-3.8,4.2-5.9
			c-1.1,2.3-2.4,4.3-3.9,6.2c0.3,0.3,0.5,0.5,0.8,0.8c2.8-3.6,5.2-7.8,7.4-12.7h0c1.3-2.5-2.5-4.5-3.8-1.9h0
			C189.2,146,186.8,149.5,184.1,152.4L184.1,152.4z M193.5,143.6c0.4,0,0.7-0.3,0.7-0.7c0-0.4-0.3-0.7-0.7-0.7
			c-0.4,0-0.7,0.3-0.7,0.7C192.8,143.2,193.1,143.6,193.5,143.6L193.5,143.6z M190.2,142c-1.7-0.1-3.3-0.1-4.5-0.1
			c-7.6,0.1-15.2,0.2-23,0.2c-0.8,0-1.7,0.2-1.7,1.1c0.1,1.1,0.1,2.1,0.2,3.1l0.5,1.2l20.1-0.1l0.7-1l0.2-1.8c0-0.3,0.2-0.5,0.5-0.5
			c0.9,0,4.4,0,5.8,0C189.5,143.3,189.9,142.7,190.2,142L190.2,142z M180.1,143c-5.3,0.1-10.6,0.1-16.1,0.1c-1.5,0-1.7,0.2-1.7,1.1
			c0,0.2,0,0.3,0,0.5C165.5,143.8,174.1,143.4,180.1,143L180.1,143z M141.1,89c-2.2,0-3.9-0.7-5.7-1.3l-0.1,0c0.4-1.2,0.4-2.5,0-3.7
			c-1.1-3.2-4.5-4.9-7.7-3.9c-0.8,0.3-1.6,0.7-2.2,1.3l-10.1-8.5c-1,1-1.9,1.8-2.7,2.5c0.6,0,1.2,0.2,1.8,0.6l9.9,6.5
			c-1,1.5-1.3,3.4-0.7,5.3c1.1,3.2,4.5,4.9,7.7,3.9c1.3-0.4,2.4-1.3,3.1-2.4c2,0.6,4.3,1.2,6.4,1C142.2,90.1,142.5,89,141.1,89
			L141.1,89z M94.9,59.7c0.5,0.6,1,1.2,1.6,1.8c3.3,3.7,6.7,7.3,9.5,10l3.9-3.2L96.6,57.1l-10.2-8.6C87.7,51,91.1,55.2,94.9,59.7
			L94.9,59.7z M95.6,58.7c-1.7-1.8-3.2-3.6-4.6-5.1L90.5,53c1.1,1.6,2.8,3.8,4.8,6.1c0.6,0.6,1.1,1.3,1.7,1.9
			c2.9,3.2,6.1,6.6,8.9,9.3l0.7-0.6c-2.9-2.7-6.1-6-9.2-9.2C96.9,60,96.2,59.3,95.6,58.7L95.6,58.7z M109.2,57.5
			c1.2,0.8,4,2.6,8.1,4.4l1.9-1.6c-1.4-0.5-2.7-0.9-4.1-1.3C113.2,58.5,111.2,58,109.2,57.5L109.2,57.5z M124.1,64.4
			c2.7,0.8,5.7,1.4,8.9,1.8c-1.7-0.9-3.5-1.8-5.3-2.6c-0.7-0.3-1.3-0.6-2-0.9C125.1,63.3,124.6,63.8,124.1,64.4L124.1,64.4z
			 M108.9,56.5c4.3,1,8.7,2.1,12.9,3.7c4.2,1.5,8.3,3.5,12.2,5.5c0.8-1.5,1.6-3.2,2.5-5c0.9-1.8,1.9-3.8,3.1-6
			c-3.4,0.5-6,1.4-9.3,2.2c-1-2.2-2.9-6.2-4.1-8.6c-2.5,1-6.5,2.8-8.7,3.9c-2-2.8-3.5-5.1-5.7-7.7c-0.6,2.5-1.1,4.6-1.6,6.6
			C109.8,53.1,109.3,54.8,108.9,56.5L108.9,56.5z M121.5,52.1l2.9-0.8l3.8,4.7c-0.9-1.9-2-4.1-2.8-5.7
			C124.3,50.9,122.9,51.5,121.5,52.1L121.5,52.1z M133.2,62.8c-5.1-2.7-15-6.4-22.4-7.3c3.6,0.9,7.2,1.9,10.6,3.2
			c4.2,1.5,8.3,3.5,12.2,5.5l4.5-8.3L133.2,62.8L133.2,62.8z M129.5,53.1c0.4,0.9,0.8,1.8,1.2,2.6c3.4-3.9,6.1-7.4,7.1-9.5
			L129.5,53.1L129.5,53.1z M124.6,62.3c-1-0.4-2.1-0.8-3.1-1.2c-0.4-0.1-0.7-0.3-1.1-0.4L95.4,81.8c-0.6-0.6-1.3-1-2.2-1.3
			c-3.2-1.1-6.7,0.7-7.7,3.9c-1.1,3.2,0.7,6.7,3.9,7.7c3.2,1.1,6.7-0.7,7.7-3.9c0.6-1.8,0.3-3.8-0.7-5.3l9.9-6.5
			c1.2-0.8,2.3-0.8,3.6-0.1C111.6,75.3,118.2,69,124.6,62.3L124.6,62.3z M92.7,82c-2.4-0.8-4.9,0.5-5.7,2.9
			c-0.8,2.4,0.5,4.9,2.9,5.7c2.4,0.8,4.9-0.5,5.7-2.9C96.3,85.3,95.1,82.8,92.7,82L92.7,82z M110.8,71.5c-0.5-0.2-1,0.1-1.2,0.6
			c-0.2,0.5,0.1,1,0.6,1.2c0.5,0.2,1-0.1,1.2-0.6C111.5,72.2,111.3,71.7,110.8,71.5L110.8,71.5z M128.1,81.6
			c-2.4,0.8-3.7,3.4-2.9,5.7c0.8,2.4,3.4,3.7,5.7,2.9c2.4-0.8,3.7-3.4,2.9-5.7C133.1,82,130.5,80.8,128.1,81.6z"/>
		<path fill-rule="evenodd" clip-rule="evenodd" fill="#C0032F" d="M96.4,161.3c-1.7-2.8-3.3-5.7-4.8-8.8l32.2-32.2V134L96.4,161.3
			L96.4,161.3z M163.1,32.6c0.4,0,0.9,0.1,1.3,0.1l0,0l0.3,0l0.1,0l0.4,0l0,0l0.3,0l0.2,0l0.1,0c0.3,0,0.5,0,0.8,0.1l0.1,0l0.3,0
			l0.1,0c0.9,0.1,1.8,0.2,2.7,0.3l0,0c3.2,0.4,6.3,0.8,9.3,1.4l-1.8,1.8c-3-0.5-6.2-0.9-9.4-1.3l-14.2,14.1v10.6l-2.1,2.1V51.4V32.1
			l0.3,0l0.2,0l0.1,0l0.3,0l0,0l0.3,0l0.2,0l0.1,0l0.3,0l0.1,0l0,0l0.4,0l0,0l0.1,0l0.3,0l0.1,0l0.2,0l0.2,0l0,0l0.3,0l0.1,0l0.2,0
			l0.3,0l0,0l0.4,0l0.1,0l0.3,0l0,0l0.3,0l0.2,0l0.1,0l0.3,0l0,0l0.2,0l0.2,0l0.4,0l0.1,0l0.2,0l0.2,0l0.1,0l0.3,0l0.1,0l0.2,0
			l0.3,0l0,0l0.3,0l0.1,0l0.2,0l0.3,0l0,0c0.3,0,0.6,0,0.9,0.1l0,0l0.4,0l0.1,0l0.3,0l0.1,0l0.2,0l0.2,0l0.1,0L163.1,32.6
			L163.1,32.6L163.1,32.6z M220,92.3l-28.8,28.7h10.7l-0.6,0.6l-1.5,1.5H189h-13.7h-10.7l2.1-2.1h10.7l43-42.7l0,0
			c0-2.3,0-4.7,0-7.1c-1-0.1-2-0.3-3-0.6l0.9-0.9l0.9-0.9c1.1,0.2,2.2,0.4,3.3,0.4c0.2,11.6-0.1,22.3-1.1,32.2l-2.4,2.4l0,0
			c0.3-2.4,0.5-4.9,0.7-7.4C219.8,95.1,219.9,93.7,220,92.3L220,92.3z M200.9,56.7c1.1,2.4,2.5,4.5,4.2,6.4l1.5-1.5l0,0
			c-3.7-4.1-5.9-9.5-5.9-15.4c0-1.4,0.1-2.9,0.4-4.3c0.1-0.5,0.2-0.9,0.3-1.4c-2-0.8-4.2-1.5-6.4-2.2l-0.8,0.8l-0.9,0.9
			c0.8,0.2,1.6,0.5,2.3,0.7c1.1,0.4,2.2,0.7,3.3,1.1c-0.1,0.6-0.2,1.3-0.3,2c0,0.5-0.1,1-0.1,1.5l-45,44.7V79.5l-0.6,0.6l-1.5,1.5
			v10.6v13.6v10.6l2.1-2.1v-10.6L200.9,56.7L200.9,56.7z M148.6,196.1v-93.8H78.8c0.3,3.3,0.7,6.5,1.2,9.6h49.8v78.5
			C135.6,192.9,141.9,194.8,148.6,196.1z"/>
		<path fill-rule="evenodd" clip-rule="evenodd" fill="#004D8F" d="M124.1,187.6c-10.2-5.5-19-13.3-26-23.7L99,163l25.1-25.1V187.6
			L124.1,187.6z M151.5,78.6V65l30.1-29.9c3.9,0.8,7.6,1.6,11.1,2.6L151.5,78.6L151.5,78.6z M151.5,123.1h10.1l55.2-54.9
			c-3.3-1-6.2-2.8-8.6-5l-56.7,56.4V123.1L151.5,123.1z M221.1,104.8c-0.7,6.5-1.7,12.5-2.9,18.3h-15.5L221.1,104.8L221.1,104.8z
			 M89.2,147.2l0.8-0.8l29.2-29.2H81.4h-0.6C82.7,128.6,85.5,138.5,89.2,147.2z"/>
	</g>
	<path fill-rule="evenodd" clip-rule="evenodd" fill="#FFFFFF" d="M15.6,258.4c-3,0-5.8,0-8.5,0.1L7,257.2l4.1-1.1
		c0.4-0.1,0.6-0.4,0.7-0.8c0-1.3,0.1-2.9,0.1-4.9v-24.9H4.4l-2.3,6.8l-1.4,0.2L0,223l0.2-0.2c4.2,0.1,8.2,0.1,12,0.1h7.1
		c3.8,0,7.8,0,12.1-0.1l0.2,0.2l-1.7,9.3l-1.4,0.2l-1.6-7h-7.4v24.9c0,2,0,3.6,0.1,4.9c0,0.4,0.2,0.7,0.7,0.8l4,1.1l0.1,1.3
		C21.4,258.4,18.5,258.4,15.6,258.4L15.6,258.4z M51.9,250.4c0,1,0,1.9,0,2.7c0,0.8,0,1.5,0,2.2c0,0.5,0.2,0.9,0.6,1l2.6,0.9
		l0.1,1.3c-1.9-0.1-4.2-0.1-7-0.1c-3,0-5.6,0-7.9,0.1l-0.1-1.3l3.4-0.9c0.4-0.1,0.7-0.4,0.7-0.8c0-0.7,0-1.4,0-2.3
		c0-0.8,0-1.8,0-2.8v-20.3c0-0.9,0-1.6,0-2.3c0-0.7,0-1.3,0-1.9c0-0.4-0.2-0.7-0.6-0.8l-3.4-1l-0.1-1.3c2.4,0.1,4.8,0.1,7.3,0.1
		c0.5,0,1.2,0,2,0c0.8,0,1.7-0.1,2.8-0.1c1,0,1.9-0.1,2.6-0.1c0.7,0,1.2,0,1.6,0c4.4,0,7.6,0.7,9.8,2.2c2.2,1.4,3.3,3.6,3.3,6.4
		c0,2.5-0.7,4.6-2,6.1c-1.3,1.5-3.3,2.7-5.9,3.6c1.4,2.1,2.5,3.8,3.3,5.1c0.8,1.3,1.5,2.6,2.3,3.9c0.8,1.3,1.5,2.4,2.1,3.3
		c0.6,1,1.2,1.7,1.8,2.3c0.3,0.3,0.6,0.5,0.9,0.7c0.3,0.2,0.6,0.3,0.9,0.5c0.3,0.1,0.6,0.2,1,0.3c0.3,0.1,0.7,0.2,1.2,0.3l0.1,1.3
		c-1.7,0.2-3.6,0.4-5.7,0.4c-1.7,0-2.9-0.1-3.6-0.3s-1.3-0.5-1.8-0.9c-0.8-0.6-1.5-1.4-2.2-2.4c-0.7-1-1.3-2.1-2.1-3.3
		c-0.7-1.2-1.5-2.6-2.2-3.9c-0.8-1.4-1.6-2.8-2.4-4.1c-0.3-0.4-0.5-0.7-0.6-1c-0.2-0.3-0.3-0.4-0.5-0.6c-0.2-0.1-0.3-0.2-0.5-0.3
		c-0.2-0.1-0.4-0.1-0.7-0.1l-1.1,0V250.4L51.9,250.4z M51.9,239.7c0.9,0.1,1.7,0.1,2.4,0.1c2.4,0,4.2-0.6,5.3-1.8
		c1.1-1.2,1.7-3.1,1.7-5.7c0-2.5-0.5-4.3-1.6-5.4c-1.1-1.1-2.8-1.7-5-1.7c-0.4,0-0.8,0-1.3,0.1c-0.5,0-1,0.1-1.5,0.1V239.7
		L51.9,239.7z M80.7,222.8c2.4,0.1,5,0.1,7.8,0.1c2.9,0,5.6,0,7.8-0.1l0.1,1.3l-3.3,0.9c-0.4,0.1-0.6,0.4-0.7,0.8c0,0.6,0,1.3,0,2
		c0,0.7,0,1.5,0,2.3v14c0,4.6,0.7,7.8,2.1,9.6c1.4,1.8,3.7,2.7,6.8,2.7c3.1,0,5.4-0.9,6.9-2.8c1.5-1.9,2.3-4.9,2.3-9.1V230
		c0-0.8,0-1.6,0-2.3c0-0.7,0-1.4-0.1-2c0-0.4-0.2-0.6-0.7-0.8l-3.2-0.9l-0.1-1.4c2.3,0.1,4.2,0.1,5.8,0.1c1.5,0,3.4,0,5.7-0.1
		l0.1,1.3l-3.5,1c-0.4,0.1-0.6,0.4-0.6,0.8c0,0.6,0,1.2,0,1.9c0,0.7,0,1.5,0,2.3v12.9c0,5.8-1.2,10-3.6,12.6
		c-2.4,2.5-5.9,3.8-10.5,3.8c-5.2,0-9-1.2-11.5-3.6c-2.5-2.4-3.7-6.3-3.7-11.6v-14.1c0-0.9,0-1.6,0-2.3c0-0.7,0-1.3,0-1.9
		c0-0.4-0.2-0.7-0.6-0.8l-3.4-1L80.7,222.8L80.7,222.8z M134.6,222.9h6.4c4.1,0,8.4,0,12.8-0.1l0.2,0.2l-1.6,8.5l-1.4,0.2l-1.6-6.2
		h-9.8V239h1.4c1.5,0,3.1,0,4.8-0.1c0.4,0,0.7-0.2,0.9-0.7l0.9-3.5l1.7-0.1c0,2.5-0.1,4.3-0.1,5.5c0,1.2,0,3,0.1,5.4l-1.7,0.1
		l-0.9-3.6c-0.1-0.5-0.4-0.7-0.8-0.7c-1.7,0-3.3-0.1-4.8-0.1h-1.3v8.7c0,1.9,0,3.7,0.1,5.5h10.2l3.2-6.7l1.6-0.2l-0.6,9.5l-0.2,0.2
		c-4.2-0.1-8.3-0.1-12.3-0.1h-6.7c-2.2,0-4.4,0-6.8,0.1l-0.1-1.3l3.4-0.9c0.4-0.1,0.7-0.4,0.7-0.8c0-0.7,0-1.4,0-2.3
		c0-0.8,0-1.8,0-2.8v-20.3c0-0.9,0-1.6,0-2.3c0-0.7,0-1.3,0-1.9c0-0.4-0.2-0.7-0.6-0.8l-3.4-1l-0.1-1.3
		C130.2,222.8,132.4,222.9,134.6,222.9L134.6,222.9z M197.3,222.8c2.3,0.1,4.5,0.1,6.3,0.1c1.7,0,3.7,0,5.9-0.1l0.2,1.3l-3.5,1
		c-0.4,0.1-0.6,0.4-0.6,0.8c0,1.1-0.1,2.5-0.1,4.2v20.3c0,2,0,3.7,0.1,5.1c0,0.4,0.2,0.7,0.7,0.8l3.3,0.9l0.1,1.3
		c-2.4-0.1-5.1-0.1-8.1-0.1c-2.9,0-5.3,0-7.2,0.1l-0.1-1.3l2.9-0.9c0.4-0.1,0.6-0.4,0.6-0.9c0.1-1.3,0.1-3,0.1-5v-16.3
		c0-0.9,0-2.6,0.1-5.1c-0.6,1.5-1.2,3-1.8,4.5l-10.1,24.8l-2.3,0.2l-9.7-24.1c-0.6-1.4-1.2-2.9-1.8-4.6c0,2.4,0.1,4,0.1,4.8v15.8
		c0,2,0,3.7,0.1,5c0,0.5,0.2,0.8,0.7,0.9l2.8,0.9l0.1,1.3c-2-0.1-3.7-0.1-5.2-0.1c-1.5,0-3.4,0-5.7,0.1l-0.1-1.3l3.4-0.9
		c0.4-0.1,0.7-0.4,0.7-0.8c0-1.4,0.1-3.1,0.1-5.1v-20.3c0-1.7,0-3.1-0.1-4.2c0-0.4-0.2-0.7-0.6-0.8l-3.4-1l-0.1-1.3
		c2.8,0.1,4.9,0.1,6.3,0.1c1.9,0,3.9,0,5.9-0.1l8.9,22.4c0.4,1,0.7,1.9,1,2.7c0.3-0.9,0.7-1.8,1.1-2.7L197.3,222.8L197.3,222.8z
		 M227.8,247.1l-1.8,4.8c-0.4,0.9-0.6,1.7-0.8,2.3c-0.2,0.6-0.3,1-0.3,1.3c0,0.3,0.1,0.5,0.2,0.7c0.1,0.1,0.4,0.3,0.7,0.4l2.4,0.7
		l0.1,1.3c-2.5-0.1-4.5-0.1-6-0.1c-1.6,0-3.4,0-5.5,0.1l-0.1-1.3l2.7-0.8c0.6-0.2,1.1-0.5,1.4-0.9c0.3-0.4,0.6-1.1,1-2l12.7-30.9
		l2.7-0.4l11,31c0.4,1.2,0.8,2,1.2,2.4c0.3,0.4,0.8,0.7,1.5,0.9l2.5,0.7l0.1,1.3c-2.3-0.1-4.6-0.1-6.9-0.1c-3.1,0-6.1,0-9,0.1
		l-0.1-1.3l2.5-0.7c0.3-0.1,0.6-0.2,0.7-0.4c0.1-0.2,0.2-0.4,0.2-0.7c0-0.3-0.1-0.8-0.3-1.3c-0.2-0.6-0.4-1.3-0.7-2.2l-1.7-4.8
		H227.8L227.8,247.1z M233.3,232.5c-0.3,0.9-0.6,1.8-1,2.7l-3.5,9.2h8.5l-3.1-9.2C233.9,234.3,233.6,233.4,233.3,232.5L233.3,232.5z
		 M268.4,255.4c0,0.5,0.2,0.8,0.6,0.9l3.3,0.9l0.1,1.3c-2.3-0.1-4.2-0.1-5.7-0.1c-1.5,0-3.4,0-5.7,0.1l-0.1-1.3l3.4-0.9
		c0.4-0.1,0.7-0.4,0.7-0.8c0-1.4,0.1-3.1,0.1-5.1v-20.3c0-1.7,0-3.1-0.1-4.2c0-0.4-0.2-0.7-0.6-0.8l-3.4-1l-0.1-1.3
		c2.4,0.1,4.2,0.1,5.5,0.1c1.7,0,3.2,0,4.7-0.1L288,244c0.7,0.9,1.4,1.8,2.1,2.7c0-1.2-0.1-2.3-0.1-3.4V230c0-1.6,0-3.1-0.1-4.2
		c0-0.4-0.2-0.6-0.7-0.8l-3.3-0.9l-0.1-1.4c2.3,0.1,4.2,0.1,5.7,0.1c1.5,0,3.4,0,5.7-0.1l0.1,1.3l-3.5,1c-0.4,0.1-0.6,0.4-0.6,0.8
		c-0.1,1.1-0.1,2.5-0.1,4.2v28.3l-2.9,0.3l-20-25.1c-0.6-0.8-1.3-1.7-2.1-2.7c0,1.3,0.1,2.4,0.1,3.5v16.1
		C268.3,252.4,268.3,254.1,268.4,255.4z"/>
	<g>
		<path fill-rule="evenodd" clip-rule="evenodd" fill="#FFFFFF" d="M19.3,112.1h-8.5v13.9h8.7v-2.6h-5.6v-3.2h4.3v-2.6h-4.3v-2.9
			h5.4V112.1L19.3,112.1z M22.4,125c1.6,0.7,3,1.3,4.6,1.3c2.8,0,5.1-1.2,5.1-4c0-4-6.1-4.7-6.1-6.8c0-0.4,0.3-1.2,1.7-1.2
			c0.8,0,1.8,0.2,3.2,0.8l0.8-2.5c-1.5-0.7-2.6-1-4-1c-3.8,0-4.8,2.5-4.8,3.9c0,4,5.8,4.3,5.8,6.8c0,0.9-0.7,1.3-1.7,1.3
			c-0.9,0-2.3-0.5-3.6-1.1L22.4,125L22.4,125z M44.9,112.1H34.8v2.6h3.6v11.3h3.1v-11.3h3.5V112.1z"/>
		<path fill-rule="evenodd" clip-rule="evenodd" fill="#FFFFFF" d="M58,116.5c0-2.7-1.8-4.5-5.6-4.5h-4v4.5v4.5h4
			C56.3,121,58,119.2,58,116.5L58,116.5z M51.5,116.5v-1.9h1.1c1.5,0,2,0.8,2,1.9c0,1.1-0.5,1.9-2,1.9h-1.1V116.5z"/>
		<path fill-rule="evenodd" clip-rule="evenodd" fill="#FFFFFF" d="M56.8,123.3h-8.4v2.6c2.8,0,5.6,0,8.4,0V123.3z"/>
	</g>
	<path fill-rule="evenodd" clip-rule="evenodd" fill="#FFFFFF" d="M74,14.1l4.6,13.1l4.9-1.7c3.1-1.1,4.2-3.3,3.5-5.4
		c-0.5-1.4-1.7-2.4-3.1-2.7c0.3-0.9,0.4-2,0-2.9c-0.7-2-2.3-3-5.4-1.9L74,14.1L74,14.1z M83.6,20.9c0.4,1,0,1.8-1.1,2.2l-1.8,0.6
		l-1.1-3.1l1.7-0.6C82.6,19.6,83.3,20,83.6,20.9L83.6,20.9z M78.7,18.2l-0.9-2.6l1.5-0.5c0.8-0.3,1.4,0.2,1.6,0.8
		c0.3,0.7,0.1,1.5-0.7,1.8L78.7,18.2L78.7,18.2z M91.5,22.8l2.9-0.8l0.1-2.9l4.8-1.4L101,20l3-0.9L95.3,7.2l-3.1,0.9L91.5,22.8
		L91.5,22.8z M94.9,11.6l2.8,3.9l-3.1,0.9L94.9,11.6L94.9,11.6z M118.9,16.4l-3.9-5.1c1.1-1,1.5-2.5,1.2-4c-0.5-2.6-2.5-4.1-6.3-3.4
		l-4,0.7l2.5,13.6l3-0.6l-0.9-4.8l1.4-0.3l0.2,0l3.3,4.4L118.9,16.4L118.9,16.4z M110.5,6.5c1.5-0.3,2.1,0.4,2.3,1.5
		c0.2,1.2-0.3,2-1.6,2.2l-1.1,0.2l-0.7-3.7L110.5,6.5L110.5,6.5z M121.7,2l1.8,13.7l5.1-0.7c3.2-0.4,4.8-2.4,4.5-4.6
		c-0.2-1.5-1.1-2.7-2.5-3.3c0.5-0.8,0.8-1.8,0.6-2.8c-0.3-2.1-1.7-3.4-4.8-3L121.7,2L121.7,2z M129.7,10.6c0.1,1-0.4,1.8-1.5,1.9
		l-1.9,0.3l-0.4-3.3l1.8-0.2C129,9.1,129.6,9.7,129.7,10.6L129.7,10.6z M125.4,6.9l-0.4-2.8l1.6-0.2c0.8-0.1,1.3,0.5,1.4,1.1
		c0.1,0.8-0.2,1.5-1,1.6L125.4,6.9L125.4,6.9z M146.7,0.1l-8.5,0.2l0.4,13.9l8.7-0.2l-0.1-2.6l-5.6,0.1l-0.1-3.2l4.3-0.1l-0.1-2.6
		l-4.3,0.1l-0.1-2.9l5.4-0.1L146.7,0.1L146.7,0.1z M163,14.1l-2.8-5.8c1.3-0.8,2-2.1,2-3.6c0.1-2.7-1.6-4.5-5.4-4.6l-4-0.1
		l-0.4,13.9l3.1,0.1l0.1-4.9l1.4,0l0.2,0l2.3,4.9L163,14.1L163,14.1z M156.9,2.7c1.5,0,2,0.8,2,1.9c0,1.2-0.7,1.9-2,1.9l-1.1,0
		l0.1-3.8L156.9,2.7L156.9,2.7z M166.8,13.6c1.5,0.9,2.9,1.5,4.5,1.6c2.8,0.2,5.2-0.8,5.4-3.5c0.3-4-5.7-5.1-5.5-7.2
		c0-0.4,0.4-1.2,1.8-1.1c0.8,0.1,1.8,0.4,3.1,1.1l1-2.4c-1.5-0.8-2.5-1.2-3.9-1.3c-3.8-0.3-5,2.1-5.1,3.5c-0.3,4,5.5,4.8,5.3,7.2
		c-0.1,0.9-0.8,1.2-1.8,1.1c-0.9-0.1-2.3-0.7-3.5-1.4L166.8,13.6L166.8,13.6z M191.9,3.9l-1,5.3l-5-0.9l1-5.3l-3-0.6l-2.5,13.6
		l3,0.6l1.1-5.8l5,0.9l-1.1,5.8l3,0.6l2.5-13.6L191.9,3.9L191.9,3.9z M204.8,18.8c-2.4-0.7-3.1-3.1-2.3-5.7c0.7-2.5,2.6-4,4.8-3.3
		c2.1,0.6,2.7,3,2,5.5C208.6,17.7,206.8,19.4,204.8,18.8L204.8,18.8z M204.1,21.3c4,1.2,7.2-1.1,8.4-5c1.2-4-0.3-7.7-4.4-8.9
		c-4.3-1.3-7.5,1-8.7,4.8C198.1,16.4,199.7,20,204.1,21.3L204.1,21.3z M219.9,11.4l-4.6,13.1l2.9,1l1.6-4.5l1.3,0.5
		c3.1,1.1,5.4-0.2,6.3-2.6c0.9-2.5-0.1-4.9-3.8-6.2L219.9,11.4L219.9,11.4z M222.9,15.2c1.5,0.5,1.8,1.5,1.4,2.6
		c-0.4,1.1-1.3,1.6-2.5,1.2l-1.1-0.4l1.3-3.7L222.9,15.2z"/>
	<path fill-rule="evenodd" clip-rule="evenodd" fill="#FFFFFF" d="M240,115.5c0.9-0.8,1.9-1.3,3-1.3c1.7,0,2,1,2,1.6
		c0,2.7-6.1,3.7-6.1,9.4v0.8h9.5v-2.5h-6.1c1.1-3.2,5.9-3.8,5.9-7.8c0-1.5-1.1-3.9-4.9-3.9c-2.1,0-3.5,0.7-4.6,1.9L240,115.5
		L240,115.5z M257.2,123.8c-1.7,0-2.3-2-2.3-4.8c0-2.6,0.5-4.8,2.3-4.8c1.8,0,2.3,2.2,2.3,4.8C259.5,121.7,259,123.8,257.2,123.8
		L257.2,123.8z M257.2,126.3c4.1,0,5.4-3.1,5.4-7.3c0-4-1.3-7.3-5.4-7.3c-4.1,0-5.4,3.2-5.4,7.3
		C251.8,123.2,253.1,126.3,257.2,126.3L257.2,126.3z M267,116.9l2-1.7v8.2h-2.3v2.5h7.6v-2.5H272v-11.3h-3v0l0,0l-3.4,2.9L267,116.9
		L267,116.9z M281.7,125.9l5.3-13.2v-0.7h-9.3v2.5h5.6l-5.3,11.4H281.7z"/>
</g>
</svg>
