<?xml version="1.0" encoding="utf-8"?>
<!-- Generator: Adobe Illustrator 18.0.0, SVG Export Plug-In . SVG Version: 6.00 Build 0)  -->
<!DOCTYPE svg PUBLIC "-//W3C//DTD SVG 1.1//EN" "http://www.w3.org/Graphics/SVG/1.1/DTD/svg11.dtd">
<svg version="1.1" id="Layer_1" xmlns="http://www.w3.org/2000/svg" xmlns:xlink="http://www.w3.org/1999/xlink" x="0px" y="0px"
	 viewBox="0 0 500 500" enable-background="new 0 0 500 500" xml:space="preserve">
<path fill="#2B2A29" d="M97.6,486.5c-3-21.5-13-41-28-56c-14.5-14.5-34-25-56.1-28v-305c21.5-3,41-13,56.1-28c14.5-14.5,25-34,28-56
	h305.3c3,21.5,13,41,28,56c14.5,14.5,34,25,56.1,28V403c-21.5,3-41,13-56.1,28c-14.5,14.5-25,34-28,56H97.6V486.5z M109.1,472.5
	h282.8c5-20,15.5-37.5,29.5-51.5c14-14,32-24.5,52.1-29.5v-283c-20-5-37.5-15.5-52.1-29.5c-14-14-24.5-32-29.5-51.5H109.1
	c-5,20-15.5,37.5-29.5,51.5s-32,24.5-52.1,29.5V391c20,5,37.5,15.5,52.1,29.5C93.6,435,103.6,452.5,109.1,472.5L109.1,472.5z
	 M84.6,500h330.8c0-46.5,38-84.5,84.6-84.5v-331c-46.5,0-84.6-38-84.6-84.5H84.6c0,46.5-38,84.5-84.6,84.5v331
	C46.5,415.5,84.6,453.5,84.6,500z"/>
</svg>
