<?xml version="1.0" encoding="utf-8"?>
<!-- Generator: Adobe Illustrator 17.1.0, SVG Export Plug-In . SVG Version: 6.00 Build 0)  -->
<!DOCTYPE svg PUBLIC "-//W3C//DTD SVG 1.1//EN" "http://www.w3.org/Graphics/SVG/1.1/DTD/svg11.dtd">
<svg version="1.1" id="Layer_1" xmlns="http://www.w3.org/2000/svg" xmlns:xlink="http://www.w3.org/1999/xlink" x="0px" y="0px"
	 viewBox="0 0 640 640" enable-background="new 0 0 640 640" xml:space="preserve">
<path fill="#FFFFFF" d="M368.3,136.9V96.6v-2.9h1.4c5.8-1.4,11.5-4.3,17.3-5.8c7.2-1.4,15.9-2.9,23.1-4.3
	c11.5-1.4,23.1-2.9,33.2-4.3c14.4-1.4,27.4-1.4,36-1.4l0,0c1.4,0,2.9,0,4.3-1.4l0,0c1.4,0,2.9-1.4,2.9-2.9c1.4-1.4,1.4-1.4,2.9-2.9
	l0,0c0-1.4,1.4-2.9,1.4-4.3V38.9c0-5.8-1.4-10.1-5.8-13c-2.9-4.3-8.6-7.2-14.4-10.1c-7.2-2.9-15.9-5.8-25.9-7.2s-20.2-2.9-30.3-4.3
	c-8.6-1.4-18.7-1.4-28.8-2.9C374.1,0,362.5,0,352.4,0S333.7,0,325,0c-10.1,0-20.2,0-30.3,0c-7.2,0-13,0-15.9,0h-13
	c-5.8,0-10.1,0-14.4,0c-5.8,0-10.1,0-11.5,0l0,0l0,0l0,0c-1.4,0-2.9,0-4.3,1.4l0,0c0,1.4-1.4,1.4-2.9,2.9c-1.4,0-1.4,1.4-1.4,2.9
	s-1.4,2.9-1.4,4.3v75l0,0v1.4v1.4l0,0v1.4v1.4l0,0v47.6v1.4h-1.4c-23.1,7.2-43.2,21.6-57.7,41.8c-13,17.3-21.6,40.4-21.6,64.9v358.9
	c0,8.6,4.3,17.3,10.1,23.1l0,0c5.8,5.8,14.4,10.1,23.1,10.1h236.4c8.6,0,17.3-4.3,23.1-10.1l0,0c5.8-5.8,10.1-14.4,10.1-23.1V247.9
	c0-24.5-8.6-47.6-21.6-66.3c-14.4-18.7-34.6-34.6-57.7-41.8h-1.4v-2.9H368.3z M462,56.2c-7.2,0-15.9,1.4-25.9,1.4
	c-7.2,1.4-15.9,1.4-24.5,2.9c-10.1,1.4-20.2,2.9-28.8,5.8c-8.6,1.4-15.9,4.3-21.6,7.2l0,0h-1.4l0,0l0,0h-1.4h-98h-5.8h-2.9v-1.4
	v-5.8v-36v-5.8v-1.4h2.9h5.8l0,0c13-1.4,27.4-1.4,44.7-1.4c18.7,0,38.9,1.4,57.7,2.9c24.5,1.4,47.6,4.3,66.3,7.2
	c20.2,2.9,33.2,5.8,37.5,7.2l2.9,1.4l1.4,1.4v1.4v2.9v4.3v5.8v2.9h-2.9L462,56.2L462,56.2z M255.9,100.9h87.9h2.9v2.9v28.8v2.9h-2.9
	h-2.9c-1.4,0-1.4,0-2.9,0h-75c-1.4,0-2.9,0-2.9,0h-2.9h-2.9v-2.9v-28.8v-2.9H255.9L255.9,100.9z M427.4,606.8c0,2.9-1.4,4.3-2.9,7.2
	l0,0c-1.4,1.4-4.3,2.9-7.2,2.9H180.9c-2.9,0-4.3-1.4-7.2-2.9l0,0c-1.4-1.4-2.9-4.3-2.9-7.2V247.9c0-24.5,10.1-47.6,25.9-63.4
	s38.9-25.9,63.4-25.9h76.4c24.5,0,47.6,10.1,63.4,25.9l0,0c15.9,15.9,25.9,38.9,25.9,63.4v358.9H427.4z"/>
<path fill="#FFFFFF" d="M361.1,239.3H238.6c-21.6,0-37.5,17.3-37.5,37.5v271c0,21.6,17.3,37.5,37.5,37.5h122.5
	c20.2,0,37.5-17.3,37.5-37.5v-271C398.6,255.1,381.3,239.3,361.1,239.3L361.1,239.3z M222.7,272.4c7.2,98,13,239.3,25.9,291.2
	c-2.9,0-5.8,0-7.2,0c-14.4,1.4-17.3-2.9-17.3-27.4C224.1,446.8,224.1,360.4,222.7,272.4z"/>
</svg>
