<?xml version="1.0" encoding="utf-8"?>
<!-- Generator: Adobe Illustrator 18.0.0, SVG Export Plug-In . SVG Version: 6.00 Build 0)  -->
<!DOCTYPE svg PUBLIC "-//W3C//DTD SVG 1.1//EN" "http://www.w3.org/Graphics/SVG/1.1/DTD/svg11.dtd">
<svg version="1.1" id="Capa_1" xmlns="http://www.w3.org/2000/svg" xmlns:xlink="http://www.w3.org/1999/xlink" x="0px" y="0px"
	 viewBox="0 0 500 500" enable-background="new 0 0 500 500" xml:space="preserve">
<g>
	<g>
		<path d="M307.4,2.8C285.8,0.5,259,0,240.4,0c-17.2,0-29.4,0.4-29.9,0.4c-5.7,0.2-10.2,4.8-10.2,10.5v41c0,5.5,4.3,10.1,9.7,10.5
			v8.8h-4.1c-5.4,0-9.9,4.1-10.4,9.4l-6.1,60.4c-10.6,3.4-19.8,7.9-26.9,13.3c-6.3,3.9-11.1,9.8-13.7,16.7
			c-1.5,3.6-2.2,7.2-2.2,10.9V466c0,18.7,15.2,34,34,34h125.3c18.7,0,34-15.2,34-34V182c0-3.7-0.7-7.3-2.2-10.9
			c-2.6-6.9-7.5-12.8-13.7-16.7c-7.1-5.4-16.3-9.8-26.9-13.3L291,80.7c-0.5-5.4-5.1-9.4-10.4-9.4h-4.1v-8.8c0,0,4.1-0.4,5.5-1
			c14.9-7.1,49.5-9.2,61.5-9.4c5.7-0.1,10.3-4.8,10.3-10.5V26.3C353.5,10,331.4,5.4,307.4,2.8z M318.7,182v284
			c0,7.1-5.8,12.9-12.9,12.9H180.4c-7.1,0-12.9-5.8-12.9-12.9V182c0-0.9,6.1-27.7,75.6-27.7C305.5,154.3,318.7,181.1,318.7,182z
			 M243.1,133.3c-11.2,0-22,0.9-32.1,2.6l4.4-43.7h55.3l4.4,43.7C265.1,134.2,254.3,133.3,243.1,133.3z M255.2,71.2H231v-8.8h24.1
			L255.2,71.2L255.2,71.2z M332.5,31.4c-14.7,0.8-41.2,3.1-57.6,10.1h-53.6V21.2c34.5-3.1,104.4,4.6,111.2,8V31.4L332.5,31.4z"/>
		<path d="M192.8,204.2c-5.8,0-10.5,4.7-10.5,10.5v167.2c0,5.8,4.7,10.5,10.5,10.5h100.5c5.8,0,10.5-4.7,10.5-10.5V214.7
			c0-5.8-4.7-10.5-10.5-10.5H192.8z M282.8,371.4h-79.5V225.2h79.5V371.4z"/>
	</g>
</g>
</svg>
