<?xml version="1.0" encoding="utf-8"?>
<!-- Generator: Adobe Illustrator 18.0.0, SVG Export Plug-In . SVG Version: 6.00 Build 0)  -->
<!DOCTYPE svg PUBLIC "-//W3C//DTD SVG 1.1//EN" "http://www.w3.org/Graphics/SVG/1.1/DTD/svg11.dtd">
<svg version="1.1" id="Layer_1" xmlns="http://www.w3.org/2000/svg" xmlns:xlink="http://www.w3.org/1999/xlink" x="0px" y="0px"
	 viewBox="0 0 235.2 228.6" enable-background="new 0 0 235.2 228.6" xml:space="preserve">
<path id="Form_8_copy_2" fill="#FFFFFF" d="M63.8,29.4v-0.6c0-1.6-0.4-3.2-1-4.7c-1.6-3.7-4.7-6.6-8.6-7.8c-3-0.9-6.2-0.8-9.1,0.3
	c-1.6,0.6-3.1,1.5-4.3,2.7c-2.7,2.5-4.3,6-4.4,9.7c-0.4,58.7-1.1,117.4,0,176.1c0,1.5,0.4,3,0.9,4.4c1.4,3.5,4.1,6.3,7.6,7.7
	c1.3,0.5,2.7,0.8,4.1,1c0.3,0,0.7,0,1,0c1.6,0,3.1-0.3,4.6-0.8c3.8-1.3,6.9-4.3,8.3-8.1c0.5-1.4,0.8-2.9,0.8-4.5
	c0.4-58.3,1.1-116.7,0-175C63.8,29.7,63.8,29.5,63.8,29.4z M121.8,53.2h102.8V34.8c-34.8,0-69.7,0-104.5,0h-11.9
	c0.4,0.4,0.8,0.7,1.2,1.1s0.7,0.7,1.1,1.1c2.4,2.5,4.6,5.2,6.6,8.1c1.3,1.9,2.5,3.8,3.6,5.8C121,51.6,121.4,52.4,121.8,53.2z
	 M50,49.2c-0.6,0-1.2-0.1-1.7-0.3c-1.4-0.5-2.6-1.6-3.2-2.9c-0.2-0.6-0.4-1.2-0.4-1.8c-0.1-2.2-0.1-4.5,0-6.7c0-0.8,0.2-1.5,0.6-2.2
	c1-1.8,2.8-2.8,4.8-2.8c0.5,0,1.1,0.1,1.6,0.3c2.1,0.7,3.5,2.6,3.6,4.7c0.1,2.2,0.1,4.5,0,6.7c0,0.5-0.1,1.1-0.3,1.6
	c-0.5,1.3-1.5,2.4-2.7,2.9c-0.5,0.2-1.1,0.4-1.7,0.5C50.4,49.2,50.2,49.2,50,49.2L50,49.2z M74.5,34.8c1,56.8,1,113.7-0.1,170.5
	c-0.2,6.3-2.8,12.2-7.3,16.5c-2.5,2.4-5.4,4.2-8.6,5.4c-2.5,0.9-5.1,1.4-7.7,1.4c-0.2,0-0.4,0-0.6,0c-2.6,0-5.3-0.4-7.8-1.3
	c-3.1-1-5.9-2.6-8.3-4.8c-5.1-4.4-8.1-10.8-8.2-17.6c-0.4-56.7-1.1-113.5-0.1-170.3c-0.6,0-1.1-0.1-1.7-0.1
	c-3.5-0.3-6.9-1.2-10.1-2.7c-2-0.9-3.8-2.1-5.5-3.5c-1.6-1.4-3-3-4.1-4.7c-2.5-4-4-8.6-4.2-13.4C-0.1,8.4,0,6.5,0.2,4.6
	c0-0.2,0-0.2,0-0.3c0.1-0.7,0.4-1.4,0.9-2.1c0.4-0.6,0.9-1,1.5-1.4c0.5-0.3,1.1-0.6,1.7-0.7c2.5-0.6,5,0.7,6.1,3
	c0.3,0.8,0.5,1.6,0.5,2.4c0,0.5-0.1,0.9-0.1,1.4c0,0.8-0.1,1.6,0,2.4c0,3.9,1.4,7.7,4,10.6c0.5,0.5,1,0.9,1.5,1.3
	c1.1,0.8,2.4,1.5,3.7,1.9c2,0.7,4,1.1,6.1,1.2h0.2c0.3-1.4,0.7-2.8,1.3-4.2c1.7-3.9,4.3-7.4,7.7-10c9.4-7,22.4-6.5,31.2,1.3
	c2.3,2.1,4.2,4.6,5.6,7.3c0.9,1.8,1.5,3.6,1.9,5.5c1.1,0,2.3,0,3.4,0c6.3,0,12.6,0,18.9,0c3.3,0,6.5,0,9.8,0h0.3l0.2,0h13.6l83.9,0
	h26c0.2,0,0.4,0,0.6,0c0.4,0,0.7,0.1,1.1,0.2c1.6,0.5,2.9,1.8,3.4,3.3c0.1,0.3,0.2,0.7,0.2,1.1c0,0.2,0,0.4,0,0.5v28.8
	c0,0.2,0,0.4,0,0.5c0,0.4-0.1,0.7-0.2,1.1c-0.5,1.6-1.8,2.8-3.4,3.4c-0.4,0.1-0.7,0.2-1.1,0.2c-0.2,0-0.4,0-0.6,0H118.4
	c-0.2,0-0.3,0-0.5,0c-0.3,0-0.7-0.1-1-0.2c-1-0.3-1.9-0.9-2.6-1.7c-0.2-0.3-0.4-0.6-0.6-0.9c-0.3-0.7-0.6-1.4-1-2.1
	c-0.9-1.9-1.9-3.7-3.1-5.5c-0.8-1.3-1.7-2.6-2.6-3.9c-0.7-0.9-1.4-1.9-2.2-2.8c-0.6-0.7-1.2-1.4-1.9-2.1c-4-4.4-9.1-7.6-14.9-9.2
	c-1.4-0.3-2.8-0.5-4.2-0.5h-2.3c-0.4,0-0.8,0-1.1,0L74.5,34.8L74.5,34.8z"/>
</svg>
