<?xml version="1.0" encoding="utf-8"?>
<!-- Generator: Adobe Illustrator 18.0.0, SVG Export Plug-In . SVG Version: 6.00 Build 0)  -->
<!DOCTYPE svg PUBLIC "-//W3C//DTD SVG 1.1//EN" "http://www.w3.org/Graphics/SVG/1.1/DTD/svg11.dtd">
<svg version="1.1" id="Layer_1" xmlns="http://www.w3.org/2000/svg" xmlns:xlink="http://www.w3.org/1999/xlink" x="0px" y="0px"
	 viewBox="0 0 500 500" enable-background="new 0 0 500 500" xml:space="preserve">
<path id="Form_8_copy_2" d="M135.6,69.5v-1.3c0-3.4-0.9-6.8-2.1-10c-3.4-7.9-10-14-18.3-16.6c-6.4-1.9-13.2-1.7-19.3,0.6
	c-3.4,1.3-6.6,3.2-9.1,5.7c-5.7,5.3-9.1,12.8-9.4,20.6c-0.9,124.8-2.3,249.6,0,374.4c0,3.2,0.9,6.4,1.9,9.4
	c3,7.4,8.7,13.4,16.2,16.4c2.8,1.1,5.7,1.7,8.7,2.1c0.6,0,1.5,0,2.1,0c3.4,0,6.6-0.6,9.8-1.7c8.1-2.8,14.7-9.1,17.6-17.2
	c1.1-3,1.7-6.2,1.7-9.6c0.9-123.9,2.3-248.1,0-372C135.6,70.2,135.6,69.7,135.6,69.5z M258.9,120.1h218.5V81c-74,0-148.2,0-222.2,0
	H230c0.9,0.9,1.7,1.5,2.6,2.3s1.5,1.5,2.3,2.3c5.1,5.3,9.8,11.1,14,17.2c2.8,4,5.3,8.1,7.7,12.3
	C257.2,116.7,258.1,118.4,258.9,120.1z M106.3,111.6c-1.3,0-2.6-0.2-3.6-0.6c-3-1.1-5.5-3.4-6.8-6.2c-0.4-1.3-0.9-2.6-0.9-3.8
	c-0.2-4.7-0.2-9.6,0-14.2c0-1.7,0.4-3.2,1.3-4.7c2.1-3.8,6-6,10.2-6c1.1,0,2.3,0.2,3.4,0.6c4.5,1.5,7.4,5.5,7.7,10
	c0.2,4.7,0.2,9.6,0,14.2c0,1.1-0.2,2.3-0.6,3.4c-1.1,2.8-3.2,5.1-5.7,6.2c-1.1,0.4-2.3,0.9-3.6,1.1
	C107.1,111.6,106.7,111.6,106.3,111.6L106.3,111.6z M158.4,81c2.1,120.7,2.1,241.7-0.2,362.5c-0.4,13.4-6,25.9-15.5,35.1
	c-5.3,5.1-11.5,8.9-18.3,11.5c-5.3,1.9-10.8,3-16.4,3c-0.4,0-0.9,0-1.3,0c-5.5,0-11.3-0.9-16.6-2.8c-6.6-2.1-12.5-5.5-17.6-10.2
	c-10.8-9.4-17.2-23-17.4-37.4c-0.9-120.5-2.3-241.3-0.2-362c-1.3,0-2.3-0.2-3.6-0.2c-7.4-0.6-14.7-2.6-21.5-5.7
	c-4.3-1.9-8.1-4.5-11.7-7.4c-3.4-3-6.4-6.4-8.7-10C4,48.7,0.9,38.9,0.4,28.7c-0.6-3.8-0.4-7.9,0-11.9c0-0.4,0-0.4,0-0.6
	c0.2-1.5,0.9-3,1.9-4.5c0.9-1.3,1.9-2.1,3.2-3c1.1-0.6,2.3-1.3,3.6-1.5c5.3-1.3,10.6,1.5,13,6.4c0.6,1.7,1.1,3.4,1.1,5.1
	c0,1.1-0.2,1.9-0.2,3c0,1.7-0.2,3.4,0,5.1c0,8.3,3,16.4,8.5,22.5c1.1,1.1,2.1,1.9,3.2,2.8c2.3,1.7,5.1,3.2,7.9,4
	c4.3,1.5,8.5,2.3,13,2.6h0.4c0.6-3,1.5-6,2.8-8.9C62.3,41.5,67.8,34,75,28.5c20-14.9,47.6-13.8,66.3,2.8c4.9,4.5,8.9,9.8,11.9,15.5
	c1.9,3.8,3.2,7.7,4,11.7c2.3,0,4.9,0,7.2,0c13.4,0,26.8,0,40.2,0c7,0,13.8,0,20.8,0h0.6h0.4h28.9h178.4h55.3c0.4,0,0.9,0,1.3,0
	c0.9,0,1.5,0.2,2.3,0.4c3.4,1.1,6.2,3.8,7.2,7c0.2,0.6,0.4,1.5,0.4,2.3c0,0.4,0,0.9,0,1.1v61.2c0,0.4,0,0.9,0,1.1
	c0,0.9-0.2,1.5-0.4,2.3c-1.1,3.4-3.8,6-7.2,7.2c-0.9,0.2-1.5,0.4-2.3,0.4c-0.4,0-0.9,0-1.3,0H251.7c-0.4,0-0.6,0-1.1,0
	c-0.6,0-1.5-0.2-2.1-0.4c-2.1-0.6-4-1.9-5.5-3.6c-0.4-0.6-0.9-1.3-1.3-1.9c-0.6-1.5-1.3-3-2.1-4.5c-1.9-4-4-7.9-6.6-11.7
	c-1.7-2.8-3.6-5.5-5.5-8.3c-1.5-1.9-3-4-4.7-6c-1.3-1.5-2.6-3-4-4.5c-8.5-9.4-19.3-16.2-31.7-19.6c-3-0.6-6-1.1-8.9-1.1h-4.9
	c-0.9,0-1.7,0-2.3,0L158.4,81L158.4,81z"/>
</svg>
