<?xml version="1.0" encoding="utf-8"?>
<!-- Generator: Adobe Illustrator 17.1.0, SVG Export Plug-In . SVG Version: 6.00 Build 0)  -->
<!DOCTYPE svg PUBLIC "-//W3C//DTD SVG 1.1//EN" "http://www.w3.org/Graphics/SVG/1.1/DTD/svg11.dtd">
<svg version="1.1" id="Layer_1" xmlns="http://www.w3.org/2000/svg" xmlns:xlink="http://www.w3.org/1999/xlink" x="0px" y="0px"
	 viewBox="0 0 45.9 45.9" enable-background="new 0 0 45.9 45.9" xml:space="preserve">
<path fill-rule="evenodd" clip-rule="evenodd" d="M44.3,9.8c-1.4,0.4-3.2,0.6-5.1,0.7c0.1,0.6,0.1,1.1-0.1,1.7
	c2.2-0.2,4.3-0.5,5.7-1.1C46.2,10.4,46.1,9.2,44.3,9.8L44.3,9.8z M0.9,0.9L0.9,0.9C1.5,0.3,2.3,0,3.1,0h0c0.8,0,1.6,0.3,2.2,0.9
	l3.8,3.8C9.7,5.3,10,6.1,10,6.9l0,0c0,0.3,0,0.5-0.1,0.8l0,0l0,0l0,0l0,0v0l0,0l0,0l0,0l0,0l0,0l0,0l0,0l0,0l0,0l0,0l0,0l0,0l0,0
	l0,0l0,0l0,0l0,0l0,0l0,0l0,0l0,0l0,0l0,0l0,0l0,0l0,0l0,0l0,0l0,0l0,0l0,0l0,0l0,0l0,0l0,0l0,0l0,0l0,0l0,0l0,0l0,0l0,0l0,0l0,0
	l0,0l0,0l0,0l0,0l0,0l0,0l0,0l0,0l0,0l0,0l0,0l0,0l0,0l0,0l0,0l0,0l0,0l0,0l0,0l0,0l0,0l0,0l0,0.1l0,0C9.6,8.5,9.4,8.8,9.1,9.1l0,0
	C9,9.2,8.8,9.3,8.7,9.4L7.9,8.6c0,0-0.1-0.1-0.1-0.2c0,0,0-0.1,0-0.1V8.2c0-0.1,0-0.1,0-0.1C7.8,8,7.9,8,7.9,7.9l0,0
	c0.3-0.3,0.4-0.7,0.4-1.1h0c0-0.4-0.1-0.8-0.4-1.1L4.2,2.1C3.9,1.8,3.5,1.6,3.1,1.6c-0.4,0-0.8,0.1-1.1,0.4l0,0
	C1.8,2.3,1.6,2.7,1.6,3.1h0c0,0.4,0.1,0.8,0.4,1.1l2.4,2.4l0,0.1c-0.2,0.5-0.3,1-0.3,1.6l0,0.3L0.9,5.3C0.3,4.7,0,3.9,0,3.1l0,0
	C0,2.3,0.3,1.5,0.9,0.9L0.9,0.9z M6,6C5.4,6.6,5.1,7.4,5.1,8.2l0,0c0,0.4,0.1,0.8,0.2,1.2c0.7,0,1.3,0,2,0L7.2,9.3
	C6.9,9,6.7,8.6,6.7,8.2h0c0-0.4,0.1-0.8,0.4-1.1v0C7.2,7.1,7.3,7.1,7.3,7c0,0,0-0.1,0-0.1V6.9c0-0.1,0-0.1,0-0.2
	c0-0.1-0.1-0.1-0.1-0.2L6.4,5.7C6.3,5.8,6.1,5.9,6,6L6,6L6,6z M20.2,16.8c0,0.1,0,0.3,0,0.4l0,0c0,0.3,0,0.5-0.1,0.8l0,0l0,0l0,0
	l0,0v0l0,0l0,0l0,0l0,0l0,0l0,0l0,0l0,0l0,0l0,0l0,0l0,0l0,0l0,0l0,0l0,0l0,0l0,0l0,0l0,0l0,0l0,0l0,0l0,0v0l0,0l0,0l0,0l0,0l0,0
	l0,0l0,0l0,0l0,0l0,0l0,0l0,0l0,0l0,0l0,0l0,0l0,0l0,0l0,0l0,0l0,0l0,0l0,0l0,0v0l0,0l0,0l0,0l0,0l0,0l0,0l0,0l0,0l0,0l0,0l0,0l0,0
	l0,0l0,0l0,0h0l0,0.1l0,0c-0.1,0.3-0.4,0.6-0.6,0.9l0,0c-0.1,0.1-0.2,0.2-0.4,0.3L18.1,19c0,0-0.1-0.1-0.1-0.2c0,0,0-0.1,0-0.1v-0.1
	c0-0.1,0-0.1,0-0.1c0.1,0,0.1-0.1,0.2-0.1v0c0.3-0.3,0.4-0.7,0.4-1.1h0c0-0.1,0-0.3-0.1-0.4L20.2,16.8L20.2,16.8z M11.5,9.5
	l-0.8-0.8c0.1-0.3,0.1-0.6,0.1-0.9l0-0.8c0-0.2,0-0.3,0-0.5l0.8,0.8L13,8.6l0.8,0.8c-0.3,0-0.5,0-0.8,0h0c-0.4,0-0.8,0-1.2,0.1
	L11.5,9.5L11.5,9.5z M17.5,16.8l-1.6,0c-0.3,0.5-0.5,1.1-0.5,1.7l0,0c0,0.8,0.3,1.6,0.9,2.2l3.8,3.8c0.6,0.6,1.4,0.9,2.2,0.9
	c0.8,0,1.6-0.3,2.2-0.9l0,0c0.1-0.1,0.2-0.2,0.3-0.3l-0.8-0.8c0,0-0.1-0.1-0.2-0.1c-0.1,0-0.1,0-0.2,0h0c-0.1,0-0.1,0-0.2,0l0,0l0,0
	v0c-0.3,0.3-0.7,0.4-1.1,0.4c-0.4,0-0.8-0.1-1.1-0.4l-3.8-3.8c-0.3-0.3-0.4-0.7-0.4-1.1h0c0-0.4,0.1-0.8,0.4-1.1l0,0
	c0.1-0.1,0.1-0.1,0.2-0.1c0,0,0-0.1,0-0.1v-0.1c0-0.1,0-0.1,0-0.2C17.6,16.9,17.6,16.9,17.5,16.8L17.5,16.8z M12.5,16.9L12.5,16.9
	l1.3,1.3l0.8,0.8c0-0.3,0-0.5,0-0.8v0c0-0.4,0-0.8,0.1-1.3L12.5,16.9L12.5,16.9z M21.4,21.6L21.4,21.6c0.6-0.6,1.4-0.9,2.2-0.9h0
	c0.8,0,1.6,0.3,2.2,0.9l3.8,3.8c0.6,0.6,0.9,1.4,0.9,2.2l0,0c0,0.3,0,0.5-0.1,0.8l0,0l0,0l0,0l0,0v0l0,0l0,0l0,0l0,0l0,0l0,0l0,0
	l0,0l0,0l0,0l0,0l0,0l0,0l0,0l0,0l0,0l0,0l0,0l0,0l0,0l0,0l0,0l0,0l0,0v0l0,0l0,0l0,0l0,0l0,0l0,0l0,0l0,0l0,0l0,0l0,0l0,0l0,0l0,0
	l0,0l0,0l0,0l0,0l0,0l0,0l0,0l0,0l0,0l0,0v0l0,0l0,0l0,0l0,0l0,0l0,0l0,0l0,0l0,0l0,0l0,0l0,0l0,0l0,0l0,0l0,0l0,0.1l0,0
	c-0.1,0.3-0.4,0.6-0.6,0.9l0,0c-0.1,0.1-0.2,0.2-0.4,0.3l-0.8-0.8c0,0-0.1-0.1-0.1-0.2c0,0,0-0.1,0-0.1v-0.1c0-0.1,0-0.1,0-0.1
	c0.1,0,0.1-0.1,0.2-0.1l0,0c0.3-0.3,0.4-0.7,0.4-1.1h0c0-0.4-0.1-0.8-0.4-1.1l-0.7-0.7l-2.2-2.2l-0.8-0.8l0,0l0,0l0,0l0,0l0,0l0,0
	l0,0l0,0l0,0l0,0v0l0,0l0,0l0,0l0,0l0,0l0,0l0,0l0,0l0,0l0,0c-0.1-0.1-0.2-0.2-0.4-0.2l0,0l0,0l0,0l0,0l0,0h0l0,0l0,0l0,0l0,0h0l0,0
	l0,0l0,0l0,0h0l0,0l0,0l0,0l0,0l0,0l0,0l0,0l0,0h0l0,0l0,0l0,0l0,0l0,0l0,0l0,0l0,0l0,0l0,0l0,0l0,0l0,0l0,0l0,0l0,0l0,0
	c-0.1,0-0.1,0-0.2,0l0,0c-0.1,0-0.2,0-0.3,0l0,0l0,0h0h0h0l0,0l0,0h0l0,0h0l0,0l0,0h0l0,0l0,0c-0.1,0-0.2,0-0.3,0l0,0
	c-0.1,0-0.1,0-0.2,0l0,0l0,0l0,0l0,0l0,0l0,0l0,0l0,0l0,0l0,0l0,0l0,0l0,0l0,0l0,0l0,0l0,0h0l0,0l0,0l0,0l0,0l0,0l0,0l0,0l0,0
	c0,0-0.1,0-0.1,0l-0.1,0.1l0,0c-0.1,0.1-0.2,0.1-0.2,0.2l0,0l0,0l0,0c-0.1,0-0.1,0-0.2,0v0c-0.1,0-0.1,0-0.2,0
	c-0.1,0-0.1-0.1-0.2-0.1l-0.8-0.8C21.2,21.7,21.3,21.6,21.4,21.6L21.4,21.6z M21.8,19.7L21,18.9c0.1-0.3,0.1-0.6,0.1-0.9l0-0.8
	c0-0.2,0-0.3,0-0.5l0,0l0.8,0.8l1.3,1.3l0.8,0.8c-0.3,0-0.5,0-0.8,0h0C22.8,19.6,22.3,19.7,21.8,19.7L21.8,19.7z M26.6,26.6
	c-0.6,0.6-0.9,1.4-0.9,2.2l0,0c0,0.8,0.3,1.6,0.9,2.2l3.8,3.8c0.6,0.6,1.4,0.9,2.2,0.9c0.8,0,1.6-0.3,2.2-0.9l0,0
	c0.1-0.1,0.2-0.2,0.3-0.3l-0.8-0.8c0,0-0.1-0.1-0.2-0.1c-0.1,0-0.1,0-0.2,0h0c-0.1,0-0.1,0-0.2,0l0,0l0,0l0,0
	c-0.3,0.3-0.7,0.4-1.1,0.4c-0.4,0-0.8-0.1-1.1-0.4l-3.8-3.8c-0.3-0.3-0.4-0.7-0.4-1.1h0c0-0.4,0.1-0.8,0.4-1.1h0
	c0.1-0.1,0.1-0.1,0.2-0.1c0,0,0-0.1,0-0.1v-0.1c0-0.1,0-0.1,0-0.2c0-0.1-0.1-0.1-0.1-0.2L27,26.3C26.8,26.4,26.7,26.5,26.6,26.6
	L26.6,26.6L26.6,26.6z M24.9,27l-0.8-0.8c-0.3,0.1-0.6,0.1-0.9,0.1l-0.8,0c-0.2,0-0.3,0-0.5,0l0.8,0.8l1.3,1.3l0.8,0.8
	c0-0.3,0-0.5,0-0.8v0C24.7,27.9,24.8,27.4,24.9,27L24.9,27z M31.6,31.8L31.6,31.8c0.6-0.6,1.4-0.9,2.2-0.9h0c0.8,0,1.6,0.3,2.2,0.9
	l3.8,3.8c0.6,0.6,0.9,1.4,0.9,2.2l0,0c0,0.3,0,0.5-0.1,0.8l0,0l0,0l0,0l0,0v0l0,0l0,0l0,0l0,0l0,0l0,0l0,0l0,0l0,0l0,0l0,0l0,0l0,0
	l0,0l0,0l0,0l0,0l0,0l0,0l0,0l0,0l0,0l0,0l0,0v0l0,0l0,0l0,0l0,0l0,0l0,0l0,0l0,0l0,0l0,0l0,0l0,0l0,0l0,0l0,0l0,0l0,0l0,0l0,0l0,0
	l0,0l0,0l0,0l0,0v0l0,0l0,0l0,0l0,0l0,0l0,0l0,0l0,0l0,0l0,0l0,0l0,0l0,0l0,0l0,0l0,0l0,0.1l0,0c-0.1,0.3-0.4,0.6-0.6,0.9l0,0
	c-0.1,0.1-0.2,0.2-0.4,0.3l-0.8-0.8c0,0-0.1-0.1-0.1-0.2c0,0,0-0.1,0-0.1v-0.1c0-0.1,0-0.1,0-0.1c0.1,0,0.1-0.1,0.2-0.1l0,0
	c0.3-0.3,0.4-0.7,0.4-1.1h0c0-0.4-0.1-0.8-0.4-1.1L37.9,36l-2.2-2.2l-0.8-0.8l0,0l0,0l0,0l0,0l0,0l0,0l0,0l0,0l0,0l0,0l0,0l0,0l0,0
	l0,0l0,0l0,0l0,0l0,0l0,0l0,0l0,0c-0.1-0.1-0.2-0.2-0.4-0.2l0,0l0,0l0,0l0,0l0,0h0l0,0l0,0l0,0l0,0h0l0,0l0,0l0,0l0,0l0,0l0,0l0,0
	l0,0l0,0l0,0l0,0l0,0l0,0h0l0,0l0,0l0,0l0,0l0,0l0,0l0,0l0,0l0,0l0,0l0,0l0,0l0,0h0l0,0l0,0l0,0c-0.1,0-0.1,0-0.2,0l0,0
	c-0.1,0-0.2,0-0.3,0l0,0l0,0h0h0h0l0,0l0,0h0l0,0h0l0,0l0,0h0l0,0l0,0c-0.1,0-0.2,0-0.3,0l0,0c-0.1,0-0.1,0-0.2,0l0,0l0,0l0,0h0l0,0
	l0,0l0,0l0,0l0,0l0,0l0,0l0,0l0,0l0,0l0,0l0,0l0,0h0l0,0l0,0l0,0l0,0l0,0l0,0l0,0l0,0c0,0-0.1,0-0.1,0l-0.1,0.1l0,0
	c-0.1,0.1-0.2,0.1-0.2,0.2l0,0l0,0l0,0c-0.1,0-0.1,0-0.2,0v0c-0.1,0-0.1,0-0.2,0c-0.1,0-0.1-0.1-0.2-0.1l-0.8-0.8
	C31.5,32,31.6,31.9,31.6,31.8L31.6,31.8z M32.1,30l-0.8-0.8c0.1-0.3,0.1-0.6,0.1-0.9l0-0.8c0-0.2,0-0.3,0-0.5l0.8,0.8l1.3,1.3
	l0.8,0.8c-0.3,0-0.5,0-0.8,0h0C33,29.9,32.6,29.9,32.1,30L32.1,30z M35.1,37.2l-0.8-0.8c-0.3,0.1-0.6,0.1-0.9,0.1l-0.8,0
	c-0.2,0-0.3,0-0.5,0l0.8,0.8l1.3,1.3l0.8,0.8c0-0.3,0-0.5,0-0.8v0C35,38.2,35,37.7,35.1,37.2L35.1,37.2z M45,45
	c0.6-0.6,0.9-1.4,0.9-2.2l0,0c0-0.8-0.3-1.6-0.9-2.2l-3.2-3.2l0,0.3c0,0.5-0.1,1.1-0.3,1.6l0,0.1l2.4,2.4c0.3,0.3,0.4,0.7,0.4,1.1h0
	c0,0.4-0.1,0.8-0.4,1.1h0c-0.3,0.3-0.7,0.4-1.1,0.4c-0.4,0-0.8-0.1-1.1-0.4L38,40.1c-0.3-0.3-0.4-0.7-0.4-1.1h0
	c0-0.4,0.1-0.8,0.4-1.1v0c0.1-0.1,0.1-0.1,0.2-0.1c0,0,0-0.1,0-0.1v-0.1c0,0,0-0.1,0-0.1c0-0.1-0.1-0.1-0.1-0.2l-0.8-0.8
	c-0.1,0.1-0.3,0.2-0.4,0.3l0,0c-0.3,0.3-0.5,0.6-0.6,0.9l0,0l0,0.1l0,0l0,0l0,0l0,0l0,0l0,0l0,0l0,0l0,0l0,0l0,0l0,0l0,0l0,0l0,0
	l0,0l0,0l0,0l0,0l0,0l0,0l0,0l0,0l0,0l0,0l0,0l0,0l0,0l0,0l0,0l0,0l0,0l0,0l0,0l0,0l0,0l0,0l0,0l0,0l0,0l0,0v0l0,0l0,0l0,0l0,0l0,0
	l0,0l0,0l0,0l0,0l0,0l0,0l0,0l0,0l0,0l0,0l0,0l0,0l0,0l0,0l0,0l0,0l0,0l0,0l0,0v0l0,0l0,0l0,0l0,0c-0.1,0.3-0.1,0.5-0.1,0.8l0,0
	c0,0.8,0.3,1.6,0.9,2.2l3.8,3.8c0.6,0.6,1.4,0.9,2.2,0.9h0C43.6,45.9,44.4,45.6,45,45L45,45L45,45z M24.9,30.2c-0.3,0-0.5,0-0.7-0.2
	c-1,0.9-2,1.7-3,2.5c-1.7,1.3-3.7,2.5-5.5,3.8c-0.3,0.2-0.6,0.3-1,0c-0.4-0.3,0.2-0.7,0.4-0.9c3.1-1.9,6-3.9,8.6-6l-0.4-0.4L22,27.9
	l0,0l-0.8-0.8c-0.2-0.2-0.4-0.5-0.3-0.9l0,0c-0.1,0-0.1-0.1-0.2-0.1c-3.1,2.3-6.6,4.4-10.8,6.5c-4.2,2-0.1,8.9,3.9,6.5
	c4.4-2.7,8.1-5.4,11.3-8.4c-0.1-0.1-0.1-0.2-0.2-0.4C24.9,30.3,24.9,30.3,24.9,30.2L24.9,30.2z M12.8,34.9c0.5,0.4,0.6,1.1,0.3,1.6
	c-0.4,0.5-1.1,0.6-1.6,0.3c-0.5-0.4-0.6-1.1-0.3-1.6C11.6,34.6,12.3,34.5,12.8,34.9L12.8,34.9z M26.6,20.8c2.7-2.9,5.1-6.4,7.5-10.6
	h0c1.3-2.6,5.1-0.6,3.8,1.9h0c-2.2,4.9-4.6,9-7.4,12.7c-0.2-0.3-0.5-0.5-0.8-0.8c1.4-1.9,2.7-3.9,3.9-6.2c-1.3,2.1-2.7,4.1-4.2,5.9
	L26.6,20.8L26.6,20.8z M36,12c0.4,0,0.7-0.3,0.7-0.7c0-0.4-0.3-0.7-0.7-0.7c-0.4,0-0.7,0.3-0.7,0.7C35.3,11.7,35.6,12,36,12L36,12z
	 M32.7,10.5c-1.7-0.1-3.3-0.1-4.5-0.1c-7.6,0.1-15.2,0.2-23,0.2c-0.8,0-1.7,0.2-1.7,1.1c0.1,1.1,0.1,2.1,0.2,3.1l0.5,1.2l20.1-0.1
	l0.7-1l0.2-1.8c0-0.3,0.2-0.5,0.5-0.5c0.9,0,4.4,0,5.8,0C32,11.7,32.3,11.1,32.7,10.5L32.7,10.5z M22.6,11.4
	C16.6,11.8,8,12.2,4.8,13c0-0.2,0-0.3,0-0.5c0-0.8,0.2-1.1,1.7-1.1C11.9,11.5,17.2,11.5,22.6,11.4z"/>
</svg>
