<?xml version="1.0" standalone="no"?>
<!DOCTYPE svg PUBLIC "-//W3C//DTD SVG 20010904//EN"
 "http://www.w3.org/TR/2001/REC-SVG-20010904/DTD/svg10.dtd">
<svg version="1.0" xmlns="http://www.w3.org/2000/svg"
 width="704.000000pt" height="704.000000pt" viewBox="0 0 704.000000 704.000000"
 preserveAspectRatio="xMidYMid meet">
<metadata>
Created by potrace 1.11, written by Peter Selinger 2001-2013
</metadata>
<g transform="translate(0.000000,704.000000) scale(0.100000,-0.100000)"
fill="#000000" stroke="none">
<path d="M3130 7030 c-536 -29 -1092 -126 -1520 -265 -201 -66 -424 -151 -428
-164 -2 -7 7 -40 21 -74 33 -82 57 -200 57 -280 0 -59 -16 -172 -27 -190 -4
-7 -111 78 -246 196 -37 33 -70 57 -74 54 -3 -4 -10 -44 -16 -90 -12 -99 -15
-94 125 -279 48 -64 88 -121 88 -126 0 -15 -114 -118 -171 -154 -123 -79 -246
-110 -422 -107 l-112 2 -8 -249 c-10 -276 4 -808 28 -1119 105 -1346 449
-2355 1047 -3070 466 -558 1097 -918 1885 -1076 l153 -30 87 16 c160 29 410
94 560 146 455 157 820 375 1185 709 l66 61 46 -15 c26 -9 49 -16 51 -16 3 0
5 20 5 44 0 39 -3 45 -25 50 -29 7 -107 74 -100 85 2 4 -19 30 -46 57 -28 27
-57 61 -65 76 -20 38 -18 92 5 119 l20 24 23 -23 c19 -19 21 -25 10 -42 -28
-45 -16 -70 76 -162 74 -74 93 -88 120 -88 22 0 36 7 48 25 21 33 12 58 -48
122 -47 49 -50 55 -44 89 l7 36 25 -23 24 -23 30 29 30 29 -41 42 c-23 23 -40
46 -38 51 2 4 36 55 75 113 257 380 462 860 594 1390 11 47 23 93 26 103 5 16
-62 17 -1315 17 l-1321 0 0 -1400 0 -1400 23 5 c292 66 432 107 622 182 348
137 648 323 918 567 l107 97 29 -20 c64 -46 64 -45 -34 -139 -413 -394 -921
-652 -1553 -788 -184 -39 -168 -39 -387 8 -746 160 -1380 550 -1828 1123 -527
674 -845 1660 -942 2915 -21 279 -36 825 -28 1050 l6 185 81 3 c188 7 358 77
510 208 48 42 91 72 95 67 3 -4 19 -23 36 -41 l29 -32 -50 -51 c-68 -70 -157
-132 -256 -178 -90 -43 -221 -81 -277 -81 -68 0 -65 27 -57 -452 4 -238 13
-505 19 -593 l12 -160 1403 -3 1402 -2 0 1346 0 1346 -157 -7 c-453 -20 -806
-62 -1172 -141 -258 -56 -666 -178 -666 -200 0 -5 7 -49 14 -99 9 -57 11 -120
7 -174 -7 -98 -41 -250 -60 -277 -13 -17 -17 -16 -60 20 -38 31 -45 42 -40 59
55 172 55 359 0 515 l-14 40 121 45 c894 329 2138 425 3202 246 332 -56 705
-151 963 -246 111 -41 123 -48 119 -67 -41 -170 -49 -225 -43 -321 12 -217 96
-398 251 -544 148 -138 357 -220 563 -221 l52 0 0 -397 c0 -507 -14 -774 -61
-1193 -73 -652 -212 -1223 -421 -1725 -113 -272 -346 -677 -461 -802 l-40 -43
45 -48 c58 -62 73 -105 56 -158 -14 -42 -66 -84 -104 -84 -21 0 -24 -5 -24
-40 0 -37 2 -40 28 -40 43 0 124 45 150 84 36 53 46 102 33 163 -7 28 -21 62
-31 76 l-19 23 85 125 c457 669 728 1530 834 2650 28 297 40 609 40 1055 l0
470 -137 0 c-157 0 -223 13 -339 70 -184 90 -324 264 -370 459 -10 42 -16 112
-16 176 0 98 3 116 40 225 22 65 39 120 38 122 -2 1 -77 30 -167 63 -490 180
-1012 292 -1599 344 -212 19 -744 27 -970 15z m-1014 -886 c53 -74 102 -133
108 -130 6 2 82 36 168 75 87 39 162 71 166 71 5 0 44 -75 87 -167 43 -93 79
-169 80 -171 1 -1 73 16 160 38 243 61 232 78 108 -167 -58 -115 -109 -211
-112 -215 -4 -5 -88 30 -188 76 -256 120 -547 220 -766 266 -51 10 -57 14 -52
33 3 12 12 54 20 92 9 39 32 137 51 218 34 140 37 147 54 132 10 -9 62 -77
116 -151z m878 44 c-36 -57 -102 -144 -183 -242 l-66 -78 -23 53 c-22 50 -22
53 -5 70 41 40 297 248 301 245 2 -2 -9 -24 -24 -48z m-1871 -159 c73 -61 146
-123 162 -138 17 -15 164 -139 329 -276 l298 -249 -58 -52 c-103 -92 -89 -95
-213 37 -59 63 -154 166 -211 229 -57 63 -130 144 -163 180 -33 36 -107 127
-163 203 -103 137 -130 177 -119 177 3 0 65 -50 138 -111z m883 -264 c138 -35
274 -77 274 -84 0 -3 -17 -19 -37 -35 l-37 -30 -130 67 c-117 60 -192 106
-175 107 4 0 51 -11 105 -25z m449 -135 l47 -20 -93 -98 c-179 -188 -475 -462
-499 -462 -5 0 -21 5 -36 10 -15 6 -40 8 -55 5 -23 -5 -404 -247 -432 -275 -5
-4 -1 -29 7 -54 48 -140 -23 -282 -161 -322 -165 -48 -330 89 -310 258 10 83
57 151 132 191 62 33 165 31 229 -6 l49 -27 31 24 c17 13 242 202 500 419
l469 394 37 -8 c20 -5 58 -18 85 -29z m235 -112 c73 -34 127 -64 120 -66 -16
-6 -316 53 -329 65 -7 6 52 63 65 63 7 0 72 -28 144 -62z m-358 -508 l196
-169 49 27 c64 36 166 38 229 5 88 -46 138 -136 133 -236 l-3 -52 49 -18 c27
-10 84 -23 127 -29 71 -10 79 -13 76 -32 -3 -19 -11 -21 -70 -24 -42 -2 -94 4
-141 16 l-76 20 -28 -30 c-100 -106 -280 -96 -368 20 -57 73 -68 178 -29 254
9 16 14 31 12 32 -44 37 -426 276 -439 276 -11 0 -19 3 -19 7 0 9 92 103 100
103 3 0 94 -76 202 -170z m1656 -2214 c32 -17 195 -181 211 -213 17 -34 13
-88 -8 -114 l-20 -24 -23 23 c-19 19 -21 25 -10 42 28 45 16 70 -76 162 -73
72 -94 88 -119 88 -36 0 -55 -20 -55 -56 0 -18 16 -42 52 -79 50 -51 53 -55
47 -95 -3 -23 -8 -44 -12 -48 -3 -3 -40 28 -81 70 -68 67 -77 80 -80 119 -6
53 10 86 55 116 39 26 80 29 119 9z m113 -260 c-8 -15 -11 -37 -8 -55 6 -30 5
-31 -28 -31 -25 0 -35 5 -40 20 -9 29 3 74 27 105 l21 27 20 -21 c18 -18 19
-23 8 -45z m214 -26 c27 -27 47 -51 44 -53 -2 -2 -20 -7 -41 -10 -47 -7 -68
15 -68 71 0 23 4 42 8 42 4 0 30 -22 57 -50z m1005 -90 c40 -40 37 -63 -28
-194 -65 -134 -147 -273 -213 -362 -37 -51 -43 -55 -57 -40 -14 14 -12 21 25
73 46 67 56 83 50 83 -2 0 -32 -36 -66 -80 l-62 -81 30 -34 c53 -60 51 -122
-5 -170 l-24 -20 35 -37 35 -37 25 23 c32 30 74 36 122 20 39 -14 194 -159
219 -206 18 -35 18 -88 -2 -116 -18 -26 -36 -28 -55 -6 -10 12 -10 20 -1 35
27 43 15 70 -70 156 -89 89 -109 97 -173 69 l-30 -13 28 -13 c21 -11 32 -11
54 -1 23 11 29 9 51 -12 l24 -24 -35 -22 c-40 -24 -86 -27 -125 -7 -37 19
-208 196 -216 224 -4 12 -13 22 -20 22 -19 0 -4 74 19 100 23 26 31 25 50 -3
14 -21 14 -27 0 -55 -14 -28 -14 -34 -1 -61 19 -37 34 -47 49 -32 7 7 5 16 -8
31 -15 17 -16 24 -7 46 7 13 12 33 12 42 0 10 -40 57 -89 106 -88 88 -90 89
-129 83 -31 -5 -43 -3 -56 12 -16 18 -16 20 10 40 19 15 41 21 76 21 48 0 53
-2 122 -70 40 -38 78 -70 84 -70 30 0 19 27 -33 80 l-58 58 50 59 c56 65 131
169 182 253 19 30 51 76 73 103 35 41 45 47 79 47 25 0 46 -7 59 -20z m330 5
c0 -31 -86 -64 -207 -80 l-53 -7 0 36 c0 36 1 36 43 37 23 0 67 7 97 14 80 18
120 18 120 0z m-941 -30 c216 -3 397 -8 402 -11 10 -6 -3 -34 -27 -58 -12 -13
-39 -16 -134 -16 l-118 0 -6 -45 c-14 -89 14 -84 -443 -78 l-403 6 -10 36
c-14 51 -13 146 3 159 20 17 55 19 202 16 77 -2 317 -6 534 -9z m-309 -285 c0
-22 -1 -40 -3 -40 -2 0 -21 18 -42 40 l-39 40 42 0 42 0 0 -40z m115 18 c-4
-13 -8 -42 -10 -65 -3 -40 0 -45 75 -117 61 -59 84 -76 107 -76 16 0 34 5 40
11 15 15 55 -7 51 -29 -4 -24 -72 -55 -100 -46 -13 3 -69 52 -126 107 -110
109 -128 140 -111 202 9 32 13 35 46 35 32 0 35 -2 28 -22z m105 -11 c0 -36
-24 -77 -44 -77 -18 0 -50 37 -37 44 5 3 12 20 16 36 5 25 11 30 36 30 26 0
29 -3 29 -33z m150 -79 c0 -4 -17 -8 -38 -8 -53 0 -73 24 -65 74 l6 37 48 -47
c27 -27 49 -52 49 -56z m-57 -345 c28 -29 49 -54 46 -56 -56 -44 -148 -110
-242 -172 -109 -73 -129 -93 -100 -102 13 -5 212 128 288 191 28 23 57 47 66
54 18 14 49 6 49 -12 0 -37 -404 -331 -490 -357 -33 -10 -44 -9 -84 11 -83 40
-127 156 -85 220 9 14 70 54 135 90 65 36 170 99 233 141 98 63 117 73 125 60
5 -9 31 -40 59 -68z m75 60 c5 -10 6 -31 3 -46 l-6 -28 -45 45 -44 46 42 0
c29 0 44 -5 50 -17z m360 -125 c-54 -10 -78 10 -78 62 0 20 3 40 7 44 4 3 31
-17 60 -46 l54 -53 -43 -7z m68 -285 c14 -19 19 -93 6 -93 -4 0 -32 25 -62 55
l-54 55 48 0 c35 0 53 -5 62 -17z"/>
<path d="M2461 6049 c-50 -22 -51 -33 -1 -19 19 5 36 6 39 2 16 -23 124 -152
127 -152 2 0 -17 43 -43 95 -30 60 -53 95 -63 94 -8 0 -35 -9 -59 -20z"/>
<path d="M2055 5844 c256 -73 440 -142 658 -247 81 -38 149 -68 151 -66 3 3
122 222 144 264 13 25 -20 -18 -87 -112 -40 -57 -74 -103 -76 -103 -1 0 -42
19 -91 41 -201 94 -461 182 -643 220 -108 22 -127 23 -56 3z"/>
<path d="M1160 5942 c0 -24 343 -412 508 -576 59 -58 85 -77 97 -72 14 5 -14
38 -132 154 -133 131 -333 343 -436 460 -20 23 -37 38 -37 34z"/>
<path d="M1905 5209 c-10 -30 18 -58 43 -43 9 6 17 22 17 35 0 34 -50 41 -60
8z"/>
<path d="M1095 4806 c-141 -62 -139 -266 3 -328 157 -70 307 104 219 254 -44
76 -143 109 -222 74z"/>
<path d="M2640 4829 c-80 -32 -128 -111 -116 -193 9 -60 42 -107 96 -133 153
-78 313 76 241 232 -22 48 -44 69 -94 90 -41 17 -90 19 -127 4z"/>
<path d="M5238 2388 c-8 -21 2 -38 22 -38 19 0 34 25 24 41 -8 13 -41 11 -46
-3z"/>
<path d="M4145 2360 c-117 -5 -120 -6 -123 -29 -3 -22 -1 -23 30 -18 18 3 114
13 213 22 352 31 358 32 170 32 -93 -1 -224 -3 -290 -7z"/>
<path d="M4288 1429 c-11 -6 -18 -22 -18 -39 0 -23 5 -31 25 -36 15 -4 32 -1
40 6 21 18 19 57 -4 70 -23 12 -22 12 -43 -1z"/>
<path d="M3580 6218 l0 -592 40 39 40 39 0 211 0 210 288 287 287 287 189 -25
188 -26 29 28 c16 15 26 31 22 35 -14 14 -352 59 -518 70 -88 5 -184 14 -214
19 -30 6 -121 10 -203 10 l-148 0 0 -592z"/>
<path d="M4181 6086 l-601 -601 2 -261 3 -261 819 811 819 812 -134 32 c-74
18 -173 41 -220 51 l-87 18 -601 -601z"/>
<path d="M5292 6527 l-31 -32 111 -34 110 -35 -6 -29 c-3 -16 -6 -47 -6 -69 0
-40 -8 -48 -896 -931 -493 -491 -903 -893 -910 -895 -12 -3 -14 31 -14 194 l0
198 -35 -34 -35 -34 0 -690 0 -690 35 34 35 34 0 211 0 210 578 575 c317 316
746 743 954 949 l376 374 27 -54 c30 -60 104 -168 130 -189 14 -12 20 -10 41
12 l26 25 -52 68 c-65 86 -113 181 -147 292 -23 78 -26 105 -27 243 -1 85 2
175 7 200 l7 45 -82 29 c-168 59 -162 59 -196 23z"/>
<path d="M4712 4432 l-1134 -1127 4 -65 3 -65 196 -3 195 -2 1103 1096 1102
1097 -98 47 c-54 26 -128 70 -165 98 -37 29 -69 52 -70 52 -2 -1 -513 -508
-1136 -1128z"/>
<path d="M6257 5312 c-15 -15 -27 -31 -27 -35 0 -3 17 -9 38 -12 78 -14 72 -1
72 -160 l0 -143 -862 -856 -862 -856 -216 0 -216 0 -32 -33 c-18 -18 -32 -36
-32 -40 0 -4 312 -7 693 -7 l693 0 39 40 39 40 -207 0 c-114 0 -207 3 -207 8
0 9 1133 1142 1143 1142 11 0 8 -88 -8 -250 -21 -213 -23 -204 28 -150 l43 45
12 165 c29 392 45 1102 25 1113 -5 2 -35 7 -68 11 -58 6 -62 5 -88 -22z"/>
<path d="M670 3978 c0 -13 9 -90 20 -173 11 -82 20 -158 20 -167 0 -17 56 -18
998 -20 l997 -3 3 -1571 2 -1571 87 -32 c199 -76 364 -126 547 -167 60 -13
111 -24 113 -24 1 0 2 843 1 1873 l-3 1872 -1392 3 -1393 2 0 -22z"/>
<path d="M5996 3525 l-359 -355 305 0 304 0 27 143 c32 170 92 568 84 567 -1
-1 -163 -161 -361 -355z"/>
<path d="M755 3378 c3 -13 18 -93 35 -178 58 -299 154 -638 252 -885 22 -55
41 -101 42 -102 1 -1 269 265 596 592 l595 595 -763 0 -762 0 5 -22z"/>
<path d="M1818 2623 l-637 -638 52 -100 c29 -55 73 -133 97 -173 l43 -74 549
549 548 548 0 263 c0 144 -3 262 -8 262 -4 0 -294 -287 -644 -637z"/>
<path d="M1954 2038 l-512 -513 53 -73 c247 -338 577 -636 928 -836 l47 -27 0
981 c0 539 -1 980 -3 980 -1 0 -232 -231 -513 -512z"/>
</g>
</svg>
