<?xml version="1.0" encoding="utf-8"?>
<!-- Generator: Adobe Illustrator 17.1.0, SVG Export Plug-In . SVG Version: 6.00 Build 0)  -->
<!DOCTYPE svg PUBLIC "-//W3C//DTD SVG 1.1//EN" "http://www.w3.org/Graphics/SVG/1.1/DTD/svg11.dtd">
<svg version="1.1" id="Layer_1" xmlns="http://www.w3.org/2000/svg" xmlns:xlink="http://www.w3.org/1999/xlink" x="0px" y="0px"
	 viewBox="0 0 156.3 175.7" enable-background="new 0 0 156.3 175.7" xml:space="preserve">
<g id="XMLID_1_">
	<g>
		<path fill="#FFFFFF" d="M123.6,143.1c-0.3,0.3-0.4,0.7-0.4,1.1c0,0.4,0.2,0.8,0.4,1.1l3.8,3.8c0.3,0.3,0.7,0.4,1.1,0.4
			c0.4,0,0.8-0.1,1.1-0.4c0.3-0.3,0.4-0.7,0.4-1.1h0c0-0.4-0.2-0.8-0.4-1.1l-2.4-2.4l0-0.1c0.2-0.5,0.3-1,0.3-1.6v-0.3l1.3,1.3
			l1.9,1.9c0.6,0.6,0.9,1.4,0.9,2.2s-0.3,1.6-0.9,2.2c-0.6,0.6-1.4,0.9-2.2,0.9h0c-0.1,0-0.2,0-0.3,0c-0.7-0.1-1.4-0.4-1.9-0.9
			l-1.4-1.3l-2.4-2.4c-0.6-0.6-0.9-1.4-0.9-2.2v0c0-0.3,0-0.5,0.1-0.8v0l0,0v0v0v0l0,0v0v0v0l0,0v0v0l0,0v0v0v0h0v0v0l0,0v0v0v0h0v0
			v0v0h0v0v0l0,0v0v0l0,0v0v0h0v0v0l0,0v0v0h0v0v0l0-0.1l0,0c0.1-0.3,0.4-0.6,0.6-0.9c0.1-0.1,0.2-0.2,0.4-0.3l0.8,0.8
			c0,0.1,0.1,0.1,0.1,0.2c0,0,0,0.1,0,0.1v0.1c0,0.1,0,0.1,0,0.1C123.7,143,123.6,143.1,123.6,143.1z"/>
		<path fill="#FFFFFF" d="M118.6,142.5l-0.8-0.8c0.2,0,0.3,0,0.5,0l0.8-0.1c0.3,0,0.6-0.1,0.9-0.1l0.8,0.8c-0.1,0.5-0.1,0.9-0.1,1.4
			v0c0,0.3,0,0.6,0,0.8l-0.8-0.8L118.6,142.5z"/>
		<path fill="#FFFFFF" d="M118,138.1c-0.1,0-0.1-0.1-0.2-0.1l-0.8-0.8c0.1-0.1,0.2-0.2,0.3-0.3c0.6-0.6,1.4-0.9,2.2-0.9
			s1.6,0.3,2.2,0.9l3.8,3.8c0.6,0.6,0.9,1.4,0.9,2.2h0c0,0.3,0,0.5-0.1,0.8v0l0,0l0,0v0v0l0,0v0v0v0h0v0v0v0l0,0v0v0l0,0v0v0h0v0v0
			l0,0v0v0l0,0v0v0l0,0v0v0h0v0v0v0h0v0v0l0,0v0l0,0l0,0.1l0,0c-0.2,0.3-0.4,0.6-0.6,0.9c-0.1,0.1-0.3,0.2-0.4,0.3l-0.8-0.8
			c0-0.1-0.1-0.1-0.1-0.2c0,0,0-0.1,0-0.1v-0.1c0,0,0-0.1,0-0.1c0.1,0,0.1-0.1,0.2-0.1c0.3-0.3,0.4-0.7,0.4-1.1
			c0-0.4-0.1-0.8-0.4-1.1l-0.7-0.7l-2.2-2.2l-0.8-0.8l0,0l0,0l0,0l0,0h0l0,0v0c-0.1-0.1-0.2-0.2-0.4-0.2h0v0h0h0l0,0h0h0v0h0l0,0h0
			h0h0v0h0h0l0,0l0,0c0,0-0.1,0-0.2,0h0c-0.1,0-0.2,0-0.3,0h0h0h0h0h0c-0.1,0-0.2,0-0.3,0c-0.1,0-0.1,0-0.2,0l0,0l0,0h0h0l0,0h0h0
			l0,0h0l0,0c0,0-0.1,0-0.1,0l-0.1,0.1l0,0c-0.1,0.1-0.2,0.1-0.2,0.2l0,0l0,0c-0.1,0-0.1,0-0.2,0v0C118.1,138.2,118,138.2,118,138.1
			z"/>
		<path fill="#FFFFFF" d="M119.1,135c-0.5,0-0.9,0-1.4,0.1l-0.8-0.8c0.1-0.3,0.1-0.6,0.1-0.9l0-0.8c0-0.2,0-0.3,0-0.5l0.8,0.8
			l1.3,1.3l0.8,0.8C119.7,135,119.4,135,119.1,135L119.1,135z"/>
		<path fill="#FFFFFF" d="M112.9,133.9c0,0.4,0.2,0.8,0.4,1.1l0.8,0.8l2.9,2.9c0.3,0.3,0.7,0.4,1.1,0.4c0.4,0,0.8-0.2,1.1-0.4l0,0
			l0,0c0.1,0,0.1,0,0.2,0c0.1,0,0.1,0,0.2,0c0.1,0,0.1,0.1,0.2,0.1l0.8,0.8c-0.1,0.1-0.2,0.2-0.3,0.3c-0.6,0.6-1.4,0.9-2.2,0.9
			c-0.8,0-1.6-0.3-2.2-0.9l-3.8-3.8c-0.5-0.5-0.8-1.2-0.9-1.9c0-0.1,0-0.2,0-0.3v0c0-0.8,0.3-1.6,0.9-2.2c0.1-0.1,0.2-0.2,0.4-0.3
			l0.8,0.8c0.1,0,0.1,0.1,0.1,0.2c0,0.1,0,0.1,0,0.2v0.1c0,0,0,0.1,0,0.1c-0.1,0.1-0.1,0.1-0.2,0.2
			C113,133.2,112.9,133.5,112.9,133.9z"/>
		<path fill="#FFFFFF" d="M109.6,133.5l-1.3-1.3l-0.8-0.8c0.1,0,0.2,0,0.3,0c0.1,0,0.1,0,0.2,0l0.8-0.1c0.3,0,0.6-0.1,0.9-0.1
			l0.8,0.8c-0.1,0.5-0.1,0.9-0.1,1.4v0c0,0.3,0,0.5,0,0.8c0,0,0,0,0,0L109.6,133.5z"/>
		<path fill="#FFFFFF" d="M107.5,127.8l-0.8-0.8c0.1-0.1,0.2-0.2,0.3-0.3c0.6-0.6,1.4-0.9,2.2-0.9h0c0.8,0,1.6,0.3,2.2,0.9l2.9,2.9
			l0.9,0.9c0.6,0.6,0.9,1.4,0.9,2.2c0,0.3,0,0.5-0.1,0.8h0v0v0l0,0v0v0v0l0,0v0v0v0h0v0v0v0l0,0v0v0l0,0v0v0l0,0v0v0l0,0v0v0l0,0v0
			v0l0,0v0v0h0v0v0l0,0v0v0h0v0v0v0h0v0l0,0.1l0,0c-0.2,0.3-0.4,0.6-0.6,0.9c-0.1,0.1-0.2,0.2-0.4,0.3l-0.8-0.8
			c0-0.1-0.1-0.1-0.1-0.2c0,0,0-0.1,0-0.1V134c0,0,0-0.1,0-0.1c0.1,0,0.1-0.1,0.2-0.1c0.3-0.3,0.4-0.7,0.4-1.1
			c0-0.4-0.2-0.8-0.4-1.1l-0.7-0.7l-2.2-2.2l-0.8-0.8l0,0h0v0l0,0l0,0h0v0l0,0h0c-0.1-0.1-0.2-0.2-0.4-0.2h0v0h0h0v0h0h0l0,0h0l0,0
			h0h0l0,0h0h0v0h0l0,0c0,0-0.1,0-0.2,0c-0.1,0-0.2,0-0.3,0h0h0h0h0h0h0h0c-0.1,0-0.2,0-0.3,0c-0.1,0-0.1,0-0.2,0l0,0l0,0h0h0l0,0h0
			h0v0h0h0c0,0-0.1,0-0.1,0l-0.1,0.1l0,0c-0.1,0.1-0.2,0.1-0.2,0.2l0,0h0c-0.1,0-0.1,0-0.2,0s-0.1,0-0.2,0
			C107.6,127.9,107.6,127.8,107.5,127.8z"/>
		<path fill="#FFFFFF" d="M106.8,123.2l0-0.8c0-0.2,0-0.3,0-0.5h0l0.8,0.8l1.3,1.3l0.8,0.8c-0.3,0-0.5,0-0.8,0h0
			c-0.5,0-0.9,0-1.4,0.1l-0.8-0.8C106.7,123.8,106.8,123.5,106.8,123.2z"/>
		<path fill="#FFFFFF" d="M104.5,124.9l-0.8-0.8c0,0-0.1-0.1-0.1-0.1c0,0,0-0.1,0-0.1v-0.1c0-0.1,0-0.1,0-0.2c0.1,0,0.1-0.1,0.2-0.2
			c0.3-0.3,0.4-0.7,0.4-1.1c0-0.2,0-0.3-0.1-0.4l1.7,0c0,0.1,0,0.3,0,0.4c0,0.3,0,0.5-0.1,0.8l0,0v0v0v0h0v0v0v0v0h0v0v0v0l0,0v0v0
			l0,0v0v0l0,0v0v0l0,0v0v0h0v0v0v0l0,0v0v0h0v0v0l0,0v0v0h0v0v0l0,0v0v0l0,0.1l0,0c-0.2,0.3-0.4,0.6-0.6,0.9
			C104.8,124.7,104.7,124.8,104.5,124.9z"/>
		<path fill="#FFFFFF" d="M110.1,129.6c-0.6,0.6-1.4,0.9-2.2,0.9c-0.8,0-1.6-0.3-2.2-0.9l-3.8-3.8c-0.6-0.6-0.9-1.4-0.9-2.2
			c0-0.6,0.2-1.2,0.5-1.7l1.6,0c0,0.1,0.1,0.1,0.1,0.1c0,0.1,0,0.1,0,0.2v0.1c0,0,0,0,0,0.1c-0.1,0-0.1,0.1-0.2,0.1
			c-0.3,0.3-0.4,0.7-0.4,1.1c0,0.4,0.1,0.8,0.4,1.1l0,0l3.8,3.8c0.3,0.3,0.7,0.4,1.1,0.4c0.4,0,0.8-0.1,1.1-0.4l0-0.1h0
			c0.1,0,0.1,0,0.2,0c0.1,0,0.1,0,0.2,0c0,0,0.1,0.1,0.2,0.1l0.8,0.8C110.3,129.5,110.2,129.6,110.1,129.6z"/>
		<path fill="#FFFFFF" d="M100.1,123.3L100.1,123.3c0,0.3,0,0.6,0.1,0.8l-0.8-0.8l-1.3-1.3v0l2.1,0
			C100.1,122.4,100.1,122.8,100.1,123.3z"/>
		<path fill="#FFFFFF" d="M90.7,113.4c0-0.8,0.3-1.6,0.9-2.2c0.1-0.1,0.2-0.2,0.4-0.3l0.8,0.8c0,0,0.1,0.1,0.1,0.2
			c0,0.1,0,0.1,0,0.2v0.1c0,0,0,0.1,0,0.1c-0.1,0-0.1,0.1-0.2,0.1v0c-0.3,0.3-0.4,0.7-0.4,1.1c0,0.4,0.2,0.8,0.4,1.1l0.2,0.2
			c-0.7,0-1.3,0-2,0C90.8,114.2,90.7,113.8,90.7,113.4z"/>
		<path fill="#FFFFFF" d="M98.6,114.5c-0.4,0-0.8,0-1.2,0.1l-0.3,0l-0.8-0.8c0.1-0.3,0.1-0.6,0.2-0.9l0-0.8c0-0.2,0-0.3,0-0.5
			l0.8,0.8l1.3,1.3l0.8,0.8C99.1,114.5,98.9,114.5,98.6,114.5L98.6,114.5z"/>
		<path fill="#FFFFFF" d="M90.9,106.1l3.8,3.8c0.6,0.6,0.9,1.4,0.9,2.2c0,0.3,0,0.5-0.1,0.8l0,0v0v0l0,0v0v0v0l0,0v0v0l0,0v0v0v0h0
			v0v0v0l0,0v0v0h0v0v0v0h0v0v0l0,0v0v0l0,0v0v0h0v0v0v0h0v0v0h0v0v0l0,0l0,0.1l0,0c-0.2,0.3-0.4,0.6-0.6,0.9
			c-0.1,0.1-0.2,0.2-0.4,0.3l-0.8-0.8c-0.1,0-0.1-0.1-0.1-0.1c0,0,0-0.1,0-0.1v-0.1c0-0.1,0-0.1,0-0.2c0.1-0.1,0.1-0.1,0.2-0.2
			c0.3-0.3,0.4-0.7,0.4-1.1h0c0-0.4-0.1-0.8-0.4-1.1l-3.8-3.8c-0.3-0.3-0.7-0.4-1.1-0.4c-0.4,0-0.8,0.1-1.1,0.4
			c-0.3,0.3-0.4,0.7-0.4,1.1c0,0.4,0.2,0.8,0.4,1.1l2.4,2.4l0,0.1c-0.2,0.5-0.3,1-0.3,1.6v0.3l-3.2-3.2c-0.6-0.6-0.9-1.4-0.9-2.2
			c0-0.8,0.3-1.6,0.9-2.2c0.6-0.6,1.4-0.9,2.2-0.9C89.5,105.1,90.3,105.5,90.9,106.1z"/>
		<path fill="#FFFFFF" d="M97.1,141.8c0.5,0.4,1.2,0.2,1.5-0.3s0.3-1.2-0.3-1.6s-1.2-0.3-1.6,0.3C96.5,140.8,96.6,141.5,97.1,141.8z
			 M99.4,144.3c-4,2.4-8.1-4.4-3.9-6.5c4.2-2.1,7.7-4.2,10.8-6.6c0.1,0,0.1,0.1,0.2,0.1v0c0,0.3,0.1,0.7,0.3,0.9l0.8,0.8h0l1.3,1.3
			l0.4,0.4c-2.6,2.2-5.4,4.1-8.6,6c-0.2,0.1-0.8,0.6-0.4,0.9c0.3,0.2,0.7,0.2,0.9,0c1.9-1.3,3.9-2.5,5.6-3.8c1.1-0.8,2.1-1.7,3-2.5
			c0.2,0.2,0.5,0.2,0.7,0.2c0,0.1,0,0.1,0.1,0.1c0.1,0.1,0.1,0.3,0.2,0.4C107.5,138.9,103.8,141.6,99.4,144.3z"/>
		<path fill="#FFFFFF" d="M124.6,117.3c0.2-0.6,0.3-1.1,0.1-1.7c1.9-0.1,3.7-0.3,5.1-0.7c1.8-0.6,1.8,0.6,0.4,1.3
			C128.9,116.8,126.9,117.1,124.6,117.3z"/>
		<path fill="#FFFFFF" d="M122.3,116.4c0-0.4-0.3-0.7-0.7-0.7c-0.4,0-0.7,0.3-0.7,0.7c0,0.4,0.3,0.7,0.7,0.7
			C122,117.1,122.3,116.8,122.3,116.4z M123.5,117.2c-2.2,4.9-4.6,9-7.4,12.7c-0.2-0.3-0.5-0.5-0.8-0.8c1.4-1.9,2.7-3.9,3.9-6.2
			c-1.3,2.1-2.7,4.1-4.2,5.9l-2.9-2.9c2.5-2.8,4.8-5.9,7-9.8c0.2-0.3,0.3-0.5,0.5-0.8c0.4-0.9,1.1-1.2,1.8-1.2
			C123,114.1,124.4,115.6,123.5,117.2z"/>
		<path fill="#FFFFFF" d="M89.1,116.7c0-0.8,0.8-1.1,1.7-1.1c7.8,0.1,15.4-0.1,23-0.1c1.2,0,2.8,0,4.5,0.1c-0.4,0.7-0.7,1.3-1.1,1.9
			c-1.4,0-4.9,0-5.8,0c-0.3,0-0.5,0.2-0.5,0.5l-0.2,1.8l-0.8,1.1l-4.2,0L89.9,121l-0.5-1.2C89.3,118.8,89.2,117.8,89.1,116.7z
			 M92.1,116.6c-1.5,0-1.7,0.2-1.7,1c0,0.2,0,0.3,0,0.5c3.2-0.8,11.8-1.2,17.7-1.6C102.8,116.6,97.5,116.6,92.1,116.6z"/>
		<path fill="#FFFFFF" d="M57.6,26.6l8.3-6.9c-1,2.1-3.7,5.6-7.1,9.5C58.5,28.4,58.1,27.5,57.6,26.6z"/>
		<path fill="#FFFFFF" d="M59.1,63.7c2.4-0.8,3.7-3.4,2.9-5.7c-0.8-2.4-3.4-3.7-5.7-2.9c-2.4,0.8-3.7,3.4-2.9,5.7
			C54.1,63.2,56.7,64.5,59.1,63.7z M62.7,62.8c-0.7,1.1-1.8,1.9-3.1,2.4c-3.2,1.1-6.7-0.7-7.7-3.9c-0.6-1.8-0.3-3.8,0.7-5.3
			l-9.9-6.5C42,49.2,41.4,49,40.8,49c0.8-0.7,1.7-1.6,2.7-2.6l10.1,8.5c0.6-0.6,1.3-1,2.2-1.3c3.2-1.1,6.7,0.7,7.7,3.9
			c0.4,1.3,0.4,2.6,0,3.7l0.1,0c1.7,0.7,3.5,1.3,5.6,1.3c1.4,0,1.1,1.2-0.1,1.3C67.1,64,64.7,63.5,62.7,62.8z"/>
		<path fill="#FFFFFF" d="M47.4,33.9l-1.9,1.6c-4.1-1.8-6.9-3.6-8.1-4.4c2,0.4,4,0.9,6,1.5C44.6,33,46,33.4,47.4,33.9z"/>
		<path fill="#FFFFFF" d="M49.5,32.3c4.2,1.5,8.3,3.5,12.2,5.5l4.5-8.3l-4.9,6.8c-5.1-2.7-15-6.4-22.4-7.3C42.4,30,46,31,49.5,32.3z
			 M56.3,29.6c-0.9-1.9-2-4.1-2.8-5.7c-1.1,0.5-2.5,1.1-3.9,1.7l2.9-0.8L56.3,29.6z M37,30.1c0.4-1.7,0.8-3.4,1.3-5.4
			c0.5-2,1-4.1,1.6-6.6c2.3,2.6,3.7,4.9,5.7,7.7c2.2-1.1,6.2-2.9,8.7-3.9c1.2,2.4,3.1,6.4,4.1,8.6c3.3-0.8,5.9-1.6,9.4-2.2
			c-1.2,2.3-2.2,4.2-3.1,6c-0.9,1.8-1.7,3.4-2.5,5c-3.9-2.1-8-4-12.2-5.5C45.7,32.2,41.4,31.1,37,30.1z"/>
		<path fill="#FFFFFF" d="M34.7,43.3c-2.9-2.7-6.1-6-9.2-9.2c-0.6-0.6-1.2-1.3-1.8-2c-1.7-1.8-3.3-3.6-4.6-5.1l-0.6-0.5
			c1,1.6,2.8,3.8,4.8,6.1c0.5,0.6,1.1,1.3,1.7,1.9c2.9,3.2,6.1,6.6,8.9,9.3L34.7,43.3z M37.9,41.8l-3.9,3.3c-2.8-2.7-6.2-6.4-9.5-10
			c-0.5-0.6-1-1.2-1.6-1.8c-0.5-0.5-1-1.1-1.4-1.6c-0.9-1.1-1.8-2.2-2.6-3.2c-2-2.6-3.7-4.8-4.5-6.3l8.1,6.8l2.1,1.7L37.9,41.8z"/>
		<path fill="#FFFFFF" d="M23.6,61.3c0.8-2.4-0.5-5-2.9-5.7c-2.4-0.8-4.9,0.5-5.7,2.9c-0.8,2.4,0.5,5,2.9,5.7
			C20.3,65,22.8,63.7,23.6,61.3z M23.5,55.3l25.1-21.1c0.3,0.1,0.7,0.3,1.1,0.4c1,0.4,2.1,0.8,3.1,1.2c-6.4,6.7-13,13-14.8,14
			c-1.3-0.7-2.4-0.6-3.6,0.1l-9.9,6.5c1,1.5,1.3,3.4,0.7,5.3c-1.1,3.2-4.5,4.9-7.7,3.9s-4.9-4.5-3.9-7.7c1.1-3.2,4.5-4.9,7.7-3.8
			C22.1,54.3,22.8,54.8,23.5,55.3z M38.3,46.8c0.5,0.2,1-0.1,1.2-0.6c0.2-0.5-0.1-1-0.6-1.2c-0.5-0.2-1,0.1-1.2,0.6
			C37.6,46.2,37.8,46.7,38.3,46.8z"/>
		<path d="M121.6,115.7c0.4,0,0.7,0.3,0.7,0.7c0,0.4-0.3,0.7-0.7,0.7c-0.4,0-0.7-0.3-0.7-0.7C120.9,116,121.2,115.7,121.6,115.7z"/>
		<path d="M106.8,122.5l0,0.8c0,0.3-0.1,0.6-0.2,0.9l0.8,0.8c0.5-0.1,0.9-0.1,1.4-0.1h0c0.3,0,0.5,0,0.8,0l-0.8-0.8l-1.3-1.3
			l-0.8-0.8h0C106.8,122.1,106.8,122.3,106.8,122.5z M103.7,124.1l0.8,0.8c0.1-0.1,0.3-0.2,0.4-0.3c0.3-0.3,0.5-0.6,0.6-0.9l0,0
			l0-0.1v0v0l0,0v0v0h0v0v0l0,0v0v0h0v0v0l0,0v0v0v0h0v0v0l0,0v0v0l0,0v0v0l0,0v0v0l0,0v0v0v0h0v0v0v0v0h0v0v0v0l0,0
			c0.1-0.3,0.1-0.5,0.1-0.8c0-0.2,0-0.3,0-0.4l0-1.1l4.2,0l0.8-1.1l0.2-1.8c0-0.3,0.2-0.5,0.5-0.5c0.9,0,4.4,0,5.8,0
			c0.4-0.6,0.8-1.2,1.1-1.9l0.9,0.5c-2.2,3.9-4.5,7.1-7,9.8l2.9,2.9l-0.8,0.8l-2.9-2.9c-0.6-0.6-1.4-0.9-2.2-0.9h0
			c-0.8,0-1.6,0.3-2.2,0.9c-0.1,0.1-0.2,0.2-0.3,0.3l0.8,0.8c0,0,0.1,0.1,0.2,0.1c0.1,0,0.1,0,0.2,0s0.1,0,0.2,0h0l0,0
			c0.1-0.1,0.2-0.1,0.2-0.2l0,0l0.1-0.1c0,0,0.1,0,0.1,0h0h0v0h0h0l0,0h0h0l0,0l0,0c0.1,0,0.1,0,0.2,0c0.1,0,0.2,0,0.3,0h0h0h0h0h0
			h0h0c0.1,0,0.2,0,0.3,0c0,0,0.1,0,0.2,0l0,0h0v0h0h0l0,0h0h0l0,0h0l0,0h0h0v0h0h0v0h0c0.1,0.1,0.3,0.1,0.4,0.2h0l0,0v0h0l0,0l0,0
			v0h0l0,0l0.8,0.8l2.2,2.2l0.7,0.7c0.3,0.3,0.4,0.7,0.4,1.1c0,0.4-0.2,0.8-0.4,1.1c-0.1,0.1-0.1,0.1-0.2,0.1c0,0.1,0,0.1,0,0.1v0.1
			c0,0,0,0.1,0,0.1c0,0.1,0.1,0.1,0.1,0.2l0.8,0.8l-0.6,0.6l-0.8-0.8c-0.3-0.3-0.4-0.7-0.4-1.1c0-0.4,0.2-0.8,0.4-1.1
			c0-0.1,0.1-0.1,0.2-0.2c0,0,0,0,0-0.1v-0.1c0-0.1,0-0.1,0-0.2c0-0.1-0.1-0.1-0.1-0.2l-0.8-0.8c-0.1,0.1-0.3,0.2-0.4,0.3
			c-0.6,0.6-0.9,1.4-0.9,2.2v0c0,0.1,0,0.2,0,0.3l-0.9,0.1c0-0.3,0-0.5,0-0.8v0c0-0.5,0-0.9,0.1-1.4l-0.8-0.8
			c-0.3,0.1-0.6,0.1-0.9,0.1l-0.8,0.1c-0.1,0-0.1,0-0.2,0l0-0.9c0.8,0,1.6-0.3,2.2-0.9c0.1-0.1,0.2-0.2,0.3-0.3l-0.8-0.8
			c0,0-0.1-0.1-0.2-0.1c-0.1,0-0.1,0-0.2,0c-0.1,0-0.1,0-0.2,0h0l0,0.1c-0.3,0.3-0.7,0.4-1.1,0.4c-0.4,0-0.8-0.1-1.1-0.4l-3.8-3.8
			L103.7,124.1z"/>
		<path d="M98.7,141.6c-0.4,0.5-1,0.6-1.5,0.3s-0.6-1.1-0.3-1.6c0.4-0.5,1.1-0.6,1.6-0.3S99,141.1,98.7,141.6z"/>
		<path d="M108.2,116.6c-6,0.4-14.5,0.8-17.7,1.6c0-0.2,0-0.3,0-0.5c0-0.8,0.2-1,1.7-1C97.5,116.6,102.8,116.6,108.2,116.6z"/>
		<path d="M124.8,115.6c0.1,0.6,0.1,1.1-0.1,1.7c2.2-0.2,4.3-0.5,5.6-1.1c1.5-0.7,1.4-1.8-0.4-1.3
			C128.5,115.3,126.7,115.6,124.8,115.6z M117.7,135.2c0.5-0.1,0.9-0.1,1.4-0.1h0c0.3,0,0.5,0,0.8,0l-0.8-0.8l-1.3-1.3l-0.8-0.8
			c0,0.2,0,0.3,0,0.5l0,0.8c0,0.3-0.1,0.6-0.1,0.9L117.7,135.2z M118.3,141.8c-0.2,0-0.3,0-0.5,0l0.8,0.8l1.3,1.3l0.8,0.8
			c0-0.3,0-0.6,0-0.8v0c0-0.5,0-0.9,0.1-1.4l-0.8-0.8c-0.3,0.1-0.6,0.1-0.9,0.1L118.3,141.8z M118.1,138.2L118.1,138.2
			c0.1,0,0.1,0,0.2,0l0,0l0,0c0.1-0.1,0.2-0.1,0.2-0.2l0,0l0.1-0.1c0,0,0.1,0,0.1,0l0,0h0l0,0h0h0l0,0h0h0l0,0l0,0
			c0.1,0,0.1,0,0.2,0c0.1,0,0.2,0,0.3,0h0h0h0h0h0c0.1,0,0.2,0,0.3,0h0c0.1,0,0.1,0,0.2,0l0,0l0,0h0h0v0h0h0h0l0,0h0v0h0h0l0,0h0h0
			v0h0c0.1,0.1,0.3,0.1,0.4,0.2v0l0,0h0l0,0l0,0l0,0l0,0l0.8,0.8l2.2,2.2l0.7,0.7c0.3,0.3,0.4,0.7,0.4,1.1c0,0.4-0.1,0.8-0.4,1.1
			c-0.1,0.1-0.1,0.1-0.2,0.1c0,0.1,0,0.1,0,0.1v0.1c0,0,0,0.1,0,0.1c0,0.1,0.1,0.1,0.1,0.2l0.8,0.8c0.1-0.1,0.3-0.2,0.4-0.3
			c0.3-0.3,0.5-0.6,0.6-0.9l0,0l0-0.1l0,0v0l0,0v0v0h0v0v0v0h0v0v0l0,0v0v0l0,0v0v0l0,0v0v0h0v0v0l0,0v0v0l0,0v0v0v0h0v0v0v0l0,0v0
			v0l0,0l0,0v0c0.1-0.3,0.1-0.5,0.1-0.8h0c0-0.8-0.3-1.6-0.9-2.2l-3.8-3.8c-0.6-0.6-1.4-0.9-2.2-0.9s-1.6,0.3-2.2,0.9
			c-0.1,0.1-0.2,0.2-0.3,0.3l0.8,0.8c0,0.1,0.1,0.1,0.2,0.1C118,138.2,118.1,138.2,118.1,138.2z M100.1,124.1c0-0.3-0.1-0.5-0.1-0.8
			v0c0-0.4,0-0.8,0.1-1.3l-2.1,0v0l1.3,1.3L100.1,124.1z M106.3,131.3c-3.1,2.3-6.6,4.4-10.8,6.6c-4.2,2-0.1,8.9,3.9,6.5
			c4.4-2.7,8.1-5.4,11.3-8.4c-0.1-0.1-0.1-0.2-0.2-0.4c0,0,0-0.1-0.1-0.1c-0.3,0-0.5-0.1-0.7-0.2c-1,0.9-2,1.7-3,2.5
			c-1.7,1.3-3.7,2.5-5.6,3.8c-0.3,0.2-0.6,0.3-0.9,0c-0.4-0.3,0.2-0.7,0.4-0.9c3.1-1.9,6-3.9,8.6-6l-0.4-0.4l-1.3-1.3h0l-0.8-0.8
			c-0.2-0.2-0.4-0.5-0.3-0.9v0C106.4,131.3,106.3,131.3,106.3,131.3z M96.5,113c0,0.3-0.1,0.6-0.2,0.9l0.8,0.8l0.3,0
			c0.4-0.1,0.8-0.1,1.2-0.1h0c0.3,0,0.5,0,0.8,0l-0.8-0.8l-1.3-1.3l-0.8-0.8c0,0.2,0,0.3,0,0.5L96.5,113z M121.3,148.3
			c-11,11.2-25,18.1-41.4,21.3l-0.4,0.1V99.5h66.1c-3.8,16.7-9.7,30.2-17.6,40.8l0.8,0.8l1.3,1.3l-1.5,1.5l-1.3-1.3v0.3
			c0,0.5-0.1,1.1-0.3,1.6l0,0.1l2.4,2.4c0.3,0.3,0.4,0.7,0.4,1.1h0c0,0.4-0.1,0.8-0.4,1.1c-0.3,0.3-0.7,0.4-1.1,0.4
			c-0.4,0-0.8-0.1-1.1-0.4l-3.8-3.8c-0.3-0.3-0.4-0.7-0.4-1.1c0-0.4,0.2-0.8,0.4-1.1c0.1-0.1,0.1-0.1,0.2-0.2c0,0,0-0.1,0-0.1v-0.1
			c0,0,0-0.1,0-0.1c0-0.1-0.1-0.1-0.1-0.2l-0.8-0.8c-0.1,0.1-0.3,0.2-0.4,0.3c-0.3,0.3-0.5,0.6-0.6,0.9l0,0l0,0.1v0v0h0v0v0l0,0v0v0
			h0v0v0l0,0v0v0l0,0v0v0h0v0v0v0h0v0v0v0l0,0v0v0h0v0v0v0l0,0v0v0l0,0v0v0v0l0,0v0v0v0l0,0v0c-0.1,0.3-0.1,0.5-0.1,0.8v0
			c0,0.8,0.3,1.6,0.9,2.2l2.4,2.4l-1.5,1.5L121.3,148.3z M89.7,113.4c0-0.5,0.1-1.1,0.3-1.6l0-0.1l-2.4-2.4
			c-0.3-0.3-0.4-0.7-0.4-1.1c0-0.4,0.2-0.8,0.4-1.1c0.3-0.3,0.7-0.4,1.1-0.4c0.4,0,0.8,0.1,1.1,0.4l3.8,3.8c0.3,0.3,0.4,0.7,0.4,1.1
			h0c0,0.4-0.2,0.8-0.4,1.1c-0.1,0.1-0.1,0.1-0.2,0.2c0,0,0,0.1,0,0.2v0.1c0,0,0,0.1,0,0.1c0,0,0.1,0.1,0.1,0.1l0.8,0.8
			c0.1-0.1,0.3-0.2,0.4-0.3c0.3-0.3,0.5-0.6,0.6-0.9l0,0l0-0.1l0,0v0v0h0v0v0h0v0v0v0h0v0v0l0,0v0v0l0,0v0v0h0v0v0v0h0v0v0l0,0v0v0
			v0h0v0v0v0l0,0v0v0l0,0v0v0v0l0,0v0v0l0,0c0.1-0.3,0.1-0.5,0.1-0.8c0-0.8-0.3-1.6-0.9-2.2l-3.8-3.8c-0.6-0.6-1.4-0.9-2.2-0.9
			c-0.8,0-1.6,0.3-2.2,0.9c-0.6,0.6-0.9,1.4-0.9,2.2c0,0.8,0.3,1.6,0.9,2.2l3.2,3.2V113.4z M90.8,115.7c-0.8,0-1.7,0.2-1.7,1.1
			c0.1,1.1,0.1,2.1,0.2,3.1l0.5,1.2l15.9-0.1l0,1.1l-1.7,0c0,0.1,0.1,0.3,0.1,0.4c0,0.4-0.2,0.8-0.4,1.1c-0.1,0.1-0.1,0.1-0.2,0.2
			c0,0,0,0.1,0,0.2v0.1c0,0,0,0.1,0,0.1c0,0,0.1,0.1,0.1,0.1l-0.6,0.6l0,0c-0.3-0.3-0.4-0.7-0.4-1.1c0-0.4,0.1-0.8,0.4-1.1
			c0-0.1,0.1-0.1,0.2-0.1c0,0,0-0.1,0-0.1v-0.1c0-0.1,0-0.1,0-0.2c0,0,0-0.1-0.1-0.1l-1.6,0c-0.3,0.5-0.5,1.1-0.5,1.7
			c0,0.8,0.3,1.6,0.9,2.2l3.8,3.8c0.6,0.6,1.4,0.9,2.2,0.9l0,0.9c-0.1,0-0.2,0-0.3,0l0.8,0.8l1.3,1.3l0.8,0.8c0,0,0,0,0,0l0.9-0.1
			c0.1,0.7,0.4,1.4,0.9,1.9l3.8,3.8c0.6,0.6,1.4,0.9,2.2,0.9c0.8,0,1.6-0.3,2.2-0.9c0.1-0.1,0.2-0.2,0.3-0.3l-0.8-0.8
			c0-0.1-0.1-0.1-0.2-0.1c-0.1,0-0.1,0-0.2,0c-0.1,0-0.1,0-0.2,0l0,0l0,0c-0.3,0.3-0.7,0.4-1.1,0.4c-0.4,0-0.8-0.2-1.1-0.4l-2.9-2.9
			l0.6-0.6c0.1-0.1,0.3-0.2,0.4-0.3c0.3-0.3,0.5-0.6,0.6-0.9l0,0l0-0.1v0h0v0v0v0h0v0v0l0,0v0v0h0v0v0l0,0v0v0l0,0v0v0l0,0v0v0l0,0
			v0v0l0,0v0v0l0,0v0v0v0h0v0v0v0l0,0v0v0v0l0,0v0v0h0c0.1-0.3,0.1-0.5,0.1-0.8c0-0.8-0.3-1.6-0.9-2.2l-0.9-0.9l0.8-0.8
			c1.5-1.8,2.9-3.8,4.2-5.9c-1.1,2.3-2.4,4.3-3.9,6.2c0.3,0.3,0.5,0.5,0.8,0.8c2.8-3.6,5.2-7.8,7.4-12.7c0.9-1.7-0.5-3.1-2-3.1
			c-0.7,0-1.4,0.4-1.8,1.2c-0.2,0.3-0.3,0.5-0.5,0.8l-0.9-0.5c-1.7-0.1-3.3-0.1-4.5-0.1C106.2,115.6,98.6,115.7,90.8,115.7z
			 M90.7,113.4c0,0.4,0.1,0.8,0.2,1.2c0.7,0,1.3,0,2,0l-0.2-0.2c-0.3-0.3-0.4-0.7-0.4-1.1c0-0.4,0.2-0.8,0.4-1.1v0
			c0.1-0.1,0.1-0.1,0.2-0.1c0,0,0-0.1,0-0.1V112c0-0.1,0-0.1,0-0.2c0-0.1-0.1-0.1-0.1-0.2l-0.8-0.8c-0.1,0.1-0.3,0.2-0.4,0.3
			C91,111.8,90.7,112.6,90.7,113.4z"/>
		<path d="M66.2,29.6l-4.5,8.3c-3.9-2.1-8-4-12.2-5.5c-3.5-1.3-7-2.3-10.6-3.2c7.5,0.8,17.3,4.6,22.4,7.3L66.2,29.6z"/>
		<path d="M62,58c0.8,2.4-0.5,4.9-2.9,5.7c-2.4,0.8-5-0.5-5.7-2.9c-0.8-2.4,0.5-4.9,2.9-5.7C58.6,54.3,61.2,55.6,62,58z"/>
		<path d="M53.5,24c0.8,1.5,1.8,3.7,2.8,5.7l-3.8-4.7l-2.9,0.8C51,25,52.4,24.4,53.5,24z"/>
		<path d="M37.7,45.7c0.2-0.5,0.7-0.8,1.2-0.6c0.5,0.2,0.7,0.7,0.6,1.2c-0.2,0.5-0.7,0.8-1.2,0.6C37.8,46.7,37.6,46.2,37.7,45.7z"/>
		<path d="M20.8,55.6c2.4,0.8,3.7,3.4,2.9,5.7c-0.8,2.4-3.4,3.7-5.7,2.9c-2.4-0.8-3.7-3.4-2.9-5.7C15.8,56,18.4,54.8,20.8,55.6z"/>
		<path d="M43.5,46.4c-1,1-1.9,1.8-2.7,2.6c0.6,0,1.2,0.2,1.8,0.6l9.9,6.5c-1,1.5-1.3,3.4-0.7,5.3c1.1,3.2,4.5,4.9,7.7,3.9
			c1.3-0.4,2.4-1.3,3.1-2.4c2,0.6,4.3,1.2,6.4,1c1.2-0.1,1.4-1.3,0.1-1.3c-2.2,0-3.9-0.7-5.6-1.3l-0.1,0c0.4-1.2,0.4-2.5,0-3.7
			c-1.1-3.2-4.5-4.9-7.7-3.9c-0.8,0.3-1.6,0.7-2.2,1.3L43.5,46.4z M61,39.8c-1.7-0.9-3.5-1.8-5.3-2.6c-0.7-0.3-1.3-0.6-2-0.9
			c-0.5,0.5-1.1,1.1-1.6,1.7C54.9,38.7,57.9,39.4,61,39.8z M58.8,29.2c3.4-3.9,6.1-7.4,7.1-9.5l-8.3,6.9
			C58.1,27.5,58.5,28.4,58.8,29.2z M34.1,45.1l3.9-3.3L24.7,30.7l-2.1-1.7l1.4-1.7l1.6,1.3c1.1-2.7,1.7-5.7,1.7-8.8
			c0-1.4-0.1-2.9-0.4-4.3c-0.1-0.4-0.2-0.9-0.3-1.3c12.8-4.9,30.5-8.3,50-8.5V73H6.6c-0.5-5.7-0.8-11.6-0.9-17.8v0
			c0-0.6,0-1.1,0-1.7v0c0-1.1,0-2.3,0-3.4V50c0-2.3,0-4.8,0.1-7.2c5.8-0.3,11-2.8,14.9-6.7c0.4-0.4,0.7-0.7,1-1.1
			c-0.6-0.7-1.2-1.5-1.8-2.2l1.8-1.2c0.5,0.6,0.9,1.1,1.4,1.6c0.5,0.6,1,1.2,1.6,1.8C27.9,38.7,31.3,42.3,34.1,45.1z M43.3,32.6
			c-2-0.5-4-1-6-1.5c1.2,0.8,4,2.6,8.1,4.4l1.9-1.6C46,33.4,44.6,33,43.3,32.6z M48.5,34.3L23.5,55.3c-0.6-0.6-1.4-1-2.2-1.3
			c-3.2-1.1-6.7,0.7-7.7,3.8c-1.1,3.2,0.6,6.7,3.9,7.7s6.7-0.7,7.7-3.9c0.6-1.8,0.3-3.8-0.7-5.3l9.9-6.5c1.2-0.8,2.3-0.8,3.6-0.1
			c1.7-1,8.4-7.3,14.8-14c-1-0.4-2.1-0.8-3.1-1.2C49.2,34.5,48.9,34.4,48.5,34.3z M37,30.1c4.3,1,8.7,2.1,12.9,3.7
			c4.2,1.5,8.3,3.5,12.2,5.5c0.8-1.5,1.6-3.2,2.5-5c0.9-1.8,1.9-3.8,3.1-6c-3.4,0.5-6,1.4-9.4,2.2c-1-2.2-2.8-6.2-4.1-8.6
			c-2.5,1-6.5,2.9-8.7,3.9c-2-2.8-3.5-5.1-5.7-7.7c-0.6,2.5-1.1,4.6-1.6,6.6C37.8,26.7,37.4,28.4,37,30.1z"/>
		<path d="M25.6,34.2c3,3.2,6.3,6.5,9.2,9.2L34,43.9c-2.8-2.8-6.1-6.1-8.9-9.3c-0.6-0.6-1.1-1.3-1.7-1.9c-2.1-2.4-3.8-4.5-4.8-6.1
			l0.6,0.5c1.3,1.6,2.9,3.3,4.6,5.1C24.3,32.9,24.9,33.5,25.6,34.2z"/>
		<path d="M35.9,5.2c4.2-1.1,8.7-2.1,13.5-2.9c4.6-0.8,9.3-1.4,14.2-1.8C68.3,0.2,73.1,0,78.1,0h0.1h0.1c4.9,0,9.8,0.2,14.5,0.6
			c4.9,0.4,9.7,1,14.2,1.8c4.7,0.8,9.2,1.8,13.5,2.9c4.3,1.2,8.4,2.5,12.1,3.9l1.7,0.6l2.6,1l-1,2.6c-0.4,1-0.7,2-0.9,3.1
			c-0.2,1-0.3,2.1-0.3,3.2c0,4.8,1.9,9.2,5.1,12.3c3.2,3.2,7.5,5.1,12.3,5.1h0.6c0.1,0,0.3,0,0.6,0l2.9-0.2l0.1,3
			c0.6,21-0.7,39.3-3.7,55c-3,15.9-7.8,29.2-14.2,40.2c-1,1.8-2.1,3.5-3.2,5.2c-0.9,1.3-1.9,2.7-2.8,4c0.4,0.5,0.8,1,1,1.6
			c0.3,0.8,0.4,1.2,0.4,2c0,0.7-0.1,1.4-0.4,2c-0.5,1.3-1.5,2.3-2.8,2.8c-0.8,0.3-1.6,0.5-2.4,0.4l0.1-2.1c0.1,0,0.2,0,0.3,0h0
			c0.8,0,1.6-0.3,2.2-0.9c0.6-0.6,0.9-1.4,0.9-2.2s-0.3-1.6-0.9-2.2l-1.9-1.9l1.5-1.5c0.9-1.2,1.7-2.3,2.5-3.5
			c0.5-0.8,1-1.6,1.6-2.5c0.6-0.9,1.1-1.7,1.5-2.5c3.1-5.3,5.8-11.3,8.1-17.8c2.3-6.6,4.2-13.7,5.7-21.5c1.5-7.8,2.5-16.1,3.2-25.2
			c0.6-9.1,0.8-18.9,0.5-29.3h0l-0.4,0h0c-0.1,0-0.1,0-0.3,0h-0.1H152v0c-2.7,0-5.3-0.5-7.7-1.5c-2.5-1-4.7-2.5-6.6-4.4
			c-1.9-1.9-3.4-4.1-4.4-6.6c-1-2.4-1.5-5-1.5-7.7c0-0.6,0-1.2,0.1-1.9c0.1-0.7,0.1-1.3,0.3-1.9c0.1-0.7,0.3-1.3,0.4-1.8
			c0.2-0.6,0.4-1.2,0.6-1.8l-1.7-0.6c-1.8-0.7-3.7-1.4-5.7-2c-1.9-0.6-4-1.2-6.1-1.8c-2.1-0.5-4.2-1.1-6.5-1.5
			c-2.2-0.5-4.4-0.9-6.7-1.3c-2.2-0.4-4.5-0.7-6.9-1c-2.3-0.3-4.7-0.5-7-0.7c-2.5-0.2-4.8-0.4-7.1-0.5c-2.2-0.1-4.6-0.1-7.2-0.1
			h-0.1h-0.1c-2.6,0-4.9,0.1-7.1,0.1c-2.3,0.1-4.7,0.2-7.2,0.5c-2.4,0.2-4.7,0.4-7,0.7c-2.4,0.3-4.7,0.6-6.9,1
			C47.5,5.5,45.3,6,43,6.4c-2.2,0.5-4.4,1-6.5,1.5c-2.1,0.6-4.2,1.2-6.1,1.8c-2,0.6-3.9,1.3-5.6,2l-1.7,0.6c0.2,0.6,0.4,1.2,0.6,1.8
			c0.2,0.6,0.3,1.2,0.4,1.8c0.1,0.6,0.2,1.2,0.3,1.9c0.1,0.7,0.1,1.3,0.1,1.9c0,2.4-0.4,4.7-1.2,6.9l0.7,0.6l-1.4,1.7l-8.1-6.8
			c0.8,1.5,2.5,3.8,4.5,6.3l-1.8,1c-2-2.4-3.6-4.6-4.5-6.2v0c-0.1-0.3-0.2-0.4-0.3-0.7l0,0c-0.1-0.4,0-0.6,0-0.8L13,18l2.8,2.4
			l5.2,4.3c0.5-1.6,0.7-3.2,0.7-5c0-1.1-0.1-2.2-0.3-3.2c-0.2-1.1-0.5-2.1-0.9-3.1l-1-2.6l2.6-1l1.7-0.6C27.5,7.7,31.5,6.4,35.9,5.2
			z"/>
		<path fill="#FFFFFF" d="M76.7,5.7c-19.5,0.2-37.2,3.5-50,8.5c0.1,0.4,0.2,0.9,0.3,1.3c0.3,1.4,0.4,2.8,0.4,4.3
			c0,3.1-0.6,6.1-1.7,8.8L24,27.2l-0.7-0.6c0.8-2.2,1.2-4.5,1.2-6.9c0-0.6,0-1.2-0.1-1.9c-0.1-0.7-0.1-1.3-0.3-1.9
			c-0.1-0.7-0.3-1.3-0.4-1.8c-0.2-0.6-0.4-1.2-0.6-1.8l1.7-0.6c1.8-0.7,3.7-1.4,5.6-2c1.9-0.6,4-1.2,6.1-1.8
			c2.1-0.5,4.2-1.1,6.5-1.5c2.2-0.5,4.5-0.9,6.8-1.3c2.2-0.4,4.5-0.7,6.9-1c2.3-0.3,4.7-0.5,7-0.7c2.5-0.2,4.8-0.4,7.2-0.5
			c2.2-0.1,4.6-0.1,7.1-0.1h0.1h0.1c2.5,0,4.9,0.1,7.2,0.1c2.3,0.1,4.7,0.2,7.1,0.5c2.4,0.2,4.7,0.4,7,0.7c2.4,0.3,4.7,0.6,6.9,1
			c2.3,0.4,4.5,0.8,6.7,1.3c2.3,0.5,4.4,1,6.5,1.5c2.1,0.6,4.2,1.2,6.1,1.8c2,0.6,3.9,1.3,5.7,2l1.7,0.6c-0.2,0.6-0.4,1.2-0.6,1.8
			c-0.2,0.6-0.3,1.2-0.4,1.8c-0.1,0.6-0.2,1.2-0.3,1.9c-0.1,0.7-0.1,1.3-0.1,1.9c0,2.7,0.6,5.3,1.5,7.7c1,2.5,2.5,4.7,4.4,6.6
			c1.9,1.8,4.1,3.3,6.6,4.4c2.4,1,5,1.5,7.7,1.5v0h0.6h0.1c0.2,0,0.3,0,0.3,0h0l0.4,0h0c0.3,10.4,0.1,20.2-0.5,29.3
			c-0.6,9.1-1.7,17.4-3.2,25.2c-1.5,7.8-3.4,14.9-5.7,21.5c-2.3,6.5-5,12.4-8.1,17.8c-0.5,0.8-1,1.7-1.5,2.5
			c-0.6,0.9-1.1,1.8-1.6,2.5c-0.8,1.2-1.6,2.4-2.5,3.5l-1.3-1.3l-0.8-0.8c7.8-10.6,13.8-24.1,17.6-40.8H79.6v70.2l0.4-0.1
			c16.4-3.2,30.3-10.1,41.4-21.3l2,2c-1.8,1.8-3.7,3.5-5.6,5.2c-2.1,1.7-4.3,3.4-6.6,4.9c-2.4,1.6-4.8,3-7.2,4.2
			c-3.8,1.9-7.8,3.6-12,4.9c-4.2,1.4-8.6,2.4-13.2,3.2l-0.5,0.1l-0.5-0.1c-4.6-0.8-9-1.9-13.2-3.2c-4.2-1.3-8.2-3-12-4.9
			c-2.4-1.2-4.8-2.6-7.2-4.2c-2.3-1.5-4.6-3.2-6.6-4.9c-2.9-2.4-5.5-5-8-7.7c-2.5-2.8-4.9-5.8-7-9c-0.5-0.8-1-1.6-1.6-2.5
			c-0.5-0.9-1.1-1.7-1.5-2.5c-3.1-5.3-5.8-11.3-8.1-17.8c-2.3-6.6-4.2-13.7-5.7-21.5c-1.5-7.8-2.5-16.1-3.2-25.2
			C2.9,60.1,2.7,50.4,3,40h0l0.4,0h0c0.1,0,0.1,0,0.3,0h0.1h0.6v0c2.7,0,5.3-0.5,7.7-1.5c2.5-1,4.7-2.5,6.6-4.4
			c0.4-0.4,0.8-0.9,1.2-1.3c0.6,0.7,1.2,1.5,1.8,2.2c-0.3,0.4-0.7,0.7-1,1.1c-3.9,3.9-9.1,6.4-14.9,6.7c-0.1,2.4-0.1,4.8-0.1,7.2
			v0.1c0,1.1,0,2.3,0,3.4v0c0,0.6,0,1.1,0,1.7v0C5.8,61.4,6.1,67.3,6.6,73h70.1V5.7z"/>
		<path d="M51.2,167.1c-5-2.5-10-5.8-14.4-9.4c-6-5-11.2-10.9-15.5-17.3c-1.1-1.7-2.2-3.4-3.2-5.2c-6.4-11-11.1-24.3-14.2-40.2
			c-3-15.7-4.3-34-3.7-55l0.1-3l2.9,0.2c0.3,0,0.5,0,0.6,0h0.6c4.8,0,9.2-1.9,12.3-5.1c0.5-0.5,1-1,1.4-1.5
			c-0.3-0.4-0.6-0.7-0.9-1.1l1.8-1c0.8,1,1.7,2.1,2.6,3.2l-1.8,1.2c-0.4,0.5-0.8,0.9-1.2,1.3c-1.9,1.8-4.1,3.3-6.6,4.4
			c-2.4,1-5,1.5-7.7,1.5v0H3.7H3.6c-0.2,0-0.3,0-0.3,0h0L3,40h0C2.7,50.4,2.9,60.1,3.5,69.2c0.6,9.1,1.7,17.4,3.2,25.2
			c1.5,7.8,3.4,14.9,5.7,21.5c2.3,6.5,5,12.4,8.1,17.8c0.5,0.8,1,1.7,1.5,2.5c0.6,0.9,1.1,1.8,1.6,2.5c2.1,3.1,4.4,6.2,7,9
			c2.5,2.8,5.1,5.3,8,7.7c2.1,1.7,4.3,3.4,6.6,4.9c2.4,1.6,4.8,3,7.2,4.2c3.8,1.9,7.8,3.6,12,4.9c4.2,1.4,8.6,2.4,13.2,3.2l0.5,0.1
			l0.5-0.1c4.6-0.8,9-1.9,13.2-3.2c4.2-1.3,8.2-3,12-4.9c2.4-1.2,4.9-2.6,7.2-4.2c2.3-1.5,4.6-3.2,6.6-4.9c2-1.6,3.8-3.4,5.6-5.2
			l1.5-1.5l1.4,1.3c0.5,0.5,1.2,0.8,1.9,0.9l-0.1,2.1c-0.5,0-1.1-0.2-1.6-0.4c-0.3-0.1-0.7-0.3-1-0.5c-1.8,1.9-3.8,3.7-5.9,5.4
			c-4.4,3.7-9.4,6.9-14.4,9.4c-7.9,4-16.6,6.8-26,8.4l-0.5,0.1l-0.5,0.1l-0.5-0.1l-0.5-0.1C67.8,173.8,59.1,171.1,51.2,167.1z"/>
	</g>
	<g>
	</g>
</g>
<path fill-rule="evenodd" clip-rule="evenodd" fill="#C41039" d="M76.7,169.6c-6.7-1.3-13-3.2-18.9-5.7V85.5H8
	c-0.4-3.1-0.8-6.3-1.2-9.6h69.9V169.6L76.7,169.6z M91.2,6.2c0.4,0,0.9,0.1,1.3,0.1l0,0l0.3,0l0.1,0l0.4,0l0,0l0.3,0l0.2,0l0.1,0
	c0.3,0,0.5,0,0.8,0.1l0.1,0l0.3,0l0.1,0c0.9,0.1,1.8,0.2,2.7,0.3l0,0c3.2,0.4,6.3,0.8,9.3,1.4l-1.8,1.8c-3-0.5-6.2-0.9-9.4-1.3
	L81.7,22.8v10.6l-2.1,2.1V24.9V5.7l0.3,0l0.2,0l0.1,0l0.3,0l0,0l0.3,0l0.2,0l0.1,0l0.3,0l0.1,0l0,0l0.4,0l0,0l0.1,0l0.3,0l0.1,0
	l0.2,0l0.2,0l0,0l0.3,0l0.1,0l0.2,0l0.3,0l0,0l0.4,0l0.1,0l0.3,0l0,0l0.3,0l0.2,0l0.1,0l0.3,0l0,0l0.2,0l0.2,0l0.4,0l0.1,0l0.2,0
	l0.2,0l0.1,0l0.3,0l0.1,0l0.2,0l0.3,0l0,0L88,6l0.1,0l0.2,0l0.3,0l0,0c0.3,0,0.6,0,0.9,0.1l0,0l0.4,0l0.1,0l0.3,0l0.1,0l0.2,0l0.2,0
	l0.1,0L91.2,6.2L91.2,6.2L91.2,6.2z M148,65.8l-28.8,28.7h10.7l-0.6,0.6l-1.5,1.5h-10.7h-13.7H92.7l2.1-2.1h10.7l43-42.7l0,0
	c0-2.3,0-4.7,0-7.1c-1-0.1-2-0.3-3-0.6l0.9-0.9l0.9-0.9c1.1,0.2,2.2,0.4,3.3,0.4c0.2,11.6-0.1,22.3-1.1,32.2l-2.4,2.4l0,0
	c0.3-2.4,0.5-4.9,0.7-7.4C147.9,68.6,148,67.2,148,65.8L148,65.8z M129,30.3c1.1,2.4,2.5,4.5,4.2,6.4l1.5-1.5l0,0
	c-3.7-4.1-5.9-9.5-5.9-15.4c0-1.4,0.1-2.9,0.4-4.3c0.1-0.5,0.2-0.9,0.3-1.4c-2-0.8-4.2-1.5-6.4-2.2l-0.8,0.8l-0.9,0.9
	c0.8,0.2,1.6,0.5,2.3,0.7c1.1,0.4,2.2,0.7,3.3,1.1c-0.1,0.6-0.2,1.3-0.3,2c0,0.5-0.1,1-0.1,1.5l-45,44.7V53.1l-0.6,0.6l-1.5,1.5
	v10.6v13.6v10.6l2.1-2.1V77.3L129,30.3L129,30.3z M24.5,134.9l27.4-27.4V93.9l-32.2,32.2C21.1,129.2,22.8,132.1,24.5,134.9z"/>
<path fill-rule="evenodd" clip-rule="evenodd" fill="#005496" d="M149.2,78.4c-0.7,6.5-1.7,12.5-2.9,18.3h-15.5L149.2,78.4
	L149.2,78.4z M52.1,161.2c-10.2-5.5-19-13.3-26-23.7l0.9-0.9l25.1-25.1V161.2L52.1,161.2z M17.3,120.8l0.8-0.8l29.2-29.2H9.5H8.9
	C10.8,102.1,13.6,112.1,17.3,120.8L17.3,120.8z M79.6,52.2V38.6l30.1-29.9c3.9,0.8,7.6,1.6,11.1,2.6L79.6,52.2L79.6,52.2z
	 M79.6,96.6h10.1l55.2-54.9c-3.3-1-6.2-2.8-8.6-5L79.6,93.1V96.6z"/>
</svg>
