<?xml version="1.0" encoding="utf-8"?>
<!-- Generator: Adobe Illustrator 18.0.0, SVG Export Plug-In . SVG Version: 6.00 Build 0)  -->
<!DOCTYPE svg PUBLIC "-//W3C//DTD SVG 1.1//EN" "http://www.w3.org/Graphics/SVG/1.1/DTD/svg11.dtd">
<svg version="1.1" id="Layer_1" xmlns="http://www.w3.org/2000/svg" xmlns:xlink="http://www.w3.org/1999/xlink" x="0px" y="0px"
	 viewBox="-1 -1 50 50" enable-background="new -1 -1 50 50" xml:space="preserve">
<g id="surface1">
	<path fill="#FFFFFF" d="M12.9-1C5.2-1-1,5.2-1,12.9v22.2C-1,42.8,5.2,49,12.9,49h22.2C42.8,49,49,42.8,49,35.1V12.9
		C49,5.2,42.8-1,35.1-1H12.9z M40.7,4.6c1.5,0,2.8,1.2,2.8,2.8s-1.2,2.8-2.8,2.8c-1.5,0-2.8-1.2-2.8-2.8S39.1,4.6,40.7,4.6z
		 M24,10.1c7.7,0,13.9,6.2,13.9,13.9S31.7,37.9,24,37.9S10.1,31.7,10.1,24S16.3,10.1,24,10.1z M24,15.7c-4.6,0-8.3,3.7-8.3,8.3
		s3.7,8.3,8.3,8.3s8.3-3.7,8.3-8.3S28.6,15.7,24,15.7z"/>
</g>
</svg>
