<?xml version="1.0" encoding="utf-8"?>
<!-- Generator: Adobe Illustrator 18.0.0, SVG Export Plug-In . SVG Version: 6.00 Build 0)  -->
<!DOCTYPE svg PUBLIC "-//W3C//DTD SVG 1.1//EN" "http://www.w3.org/Graphics/SVG/1.1/DTD/svg11.dtd">
<svg version="1.1" id="Layer_1" xmlns="http://www.w3.org/2000/svg" xmlns:xlink="http://www.w3.org/1999/xlink" x="0px" y="0px"
	 viewBox="-12 -12 50 50" enable-background="new -12 -12 50 50" xml:space="preserve">
<g id="surface1">
	<path fill="#FFFFFF" d="M28.9-12H-1.5C-6.9-12-12-7.8-12-2.4V28c0,5.4,5.1,10,10.5,10h30.4c5.4,0,9.1-4.6,9.1-10V-2.4
		C38-7.8,34.3-12,28.9-12z M27.1,16.9c2.7,2.5,3.3,3.8,3.4,3.9c1.1,1.9-1.3,2-1.3,2l-4.6,0.1c0,0-1,0.2-2.3-0.7
		C20.6,21,19,18,17.8,18.4c-1.3,0.4-1.2,3.2-1.2,3.2s0,0.5-0.3,0.8c-0.3,0.3-0.9,0.3-0.9,0.3h-2.1c0,0-4.5,0.4-8.5-3.8
		C0.5,14.3-3.4,5.4-3.4,5.4s-0.2-0.6,0-0.8c0.3-0.3,1-0.3,1-0.3l4.9,0c0,0,0.5,0.1,0.8,0.3c0.3,0.2,0.4,0.6,0.4,0.6s0.8,2,1.8,3.8
		c2,3.5,3,4.3,3.7,3.9c1-0.6,0.7-5,0.7-5s0-1.6-0.5-2.3C9.1,5,8.3,4.8,8,4.8c-0.3,0,0.2-0.7,0.8-1c0.9-0.4,2.4-0.5,4.3-0.4
		c1.4,0,1.8,0.1,2.4,0.2c1.7,0.4,1.1,2,1.1,5.7c0,1.2-0.2,2.9,0.7,3.5c0.4,0.2,1.3,0,3.6-3.9c1.1-1.8,1.9-4,1.9-4s0.2-0.4,0.5-0.6
		c0.3-0.2,0.7-0.1,0.7-0.1l5.1,0c0,0,1.5-0.2,1.8,0.5C31,5.5,30.1,7.2,28,10C24.6,14.6,24.2,14.2,27.1,16.9z"/>
</g>
</svg>
