<?xml version="1.0" encoding="utf-8"?>
<!-- Generator: Adobe Illustrator 18.0.0, SVG Export Plug-In . SVG Version: 6.00 Build 0)  -->
<!DOCTYPE svg PUBLIC "-//W3C//DTD SVG 1.1//EN" "http://www.w3.org/Graphics/SVG/1.1/DTD/svg11.dtd">
<svg version="1.1" id="Layer_1" xmlns="http://www.w3.org/2000/svg" xmlns:xlink="http://www.w3.org/1999/xlink" x="0px" y="0px"
	 viewBox="32.3 23.3 50 50" enable-background="new 32.3 23.3 50 50" xml:space="preserve">
<g id="surface1">
	<path fill="#FFFFFF" d="M73,23.3H41.7c-5.2,0-9.4,4.2-9.4,9.4V64c0,5.2,4.2,9.4,9.4,9.4H73c5.2,0,9.4-4.2,9.4-9.4V32.7
		C82.3,27.5,78.1,23.3,73,23.3z M71.7,50.3H67v17.3h-7.8V50.3h-3v-5.8h3v-3.7c0-4.9,2-7.8,7.8-7.8h5.8v5.8h-3.4
		c-2.2,0-2.4,0.8-2.4,2.4l0,3.3h5.3L71.7,50.3z"/>
</g>
</svg>
