<?xml version="1.0" encoding="utf-8"?>
<!-- Generator: Adobe Illustrator 18.0.0, SVG Export Plug-In . SVG Version: 6.00 Build 0)  -->
<!DOCTYPE svg PUBLIC "-//W3C//DTD SVG 1.1//EN" "http://www.w3.org/Graphics/SVG/1.1/DTD/svg11.dtd">
<svg version="1.1" id="Layer_1" xmlns="http://www.w3.org/2000/svg" xmlns:xlink="http://www.w3.org/1999/xlink" x="0px" y="0px"
	 viewBox="0 0 63.3 210.8" enable-background="new 0 0 63.3 210.8" xml:space="preserve">
<path fill-rule="evenodd" clip-rule="evenodd" fill="#434242" d="M30.5,201.1v-3c-0.5-0.4-0.9-0.7-1.4-1.1
	c-10.4-8.2-18.3-17-24.3-28.8c6.8,11.5,15.2,20.1,25.7,27.7v-11.1c-10.7-8-18.8-17.3-26.6-31.4h0C3,151.7,1.5,151,0,151.1l0,3.2
	c0.5-0.1,1.1,0,1.5,0.4c0.6,0.6,0.7,1.6,0.1,2.2c-0.4,0.4-1,0.6-1.6,0.5l0,7.1C8,179.9,17.2,191.1,30.5,201.1L30.5,201.1z
	 M18.5,164.2l-1.4-2l-0.3-3.5c-0.1-0.6-0.4-1-1-1c-1.8-0.1-4.2-0.1-7-0.1c-0.7-1.2-1.5-2.4-2.2-3.7c3.4-0.1,6.4-0.2,8.7-0.2
	c5.1,0,10.1,0.1,15.2,0.2v1.9c-1.4,0-2.8,0-4.2,0c1.3,0.1,2.7,0.2,4.2,0.3v8.2L18.5,164.2z M46.6,210.8v-5.4c-0.7,0-1.3-0.3-1.8-0.9
	c-0.7-1-0.5-2.3,0.5-3c0.4-0.3,0.8-0.4,1.3-0.4v-6.2c-6-3.3-11.3-6.5-16.1-10v11.1c3.3,2.4,6.8,4.7,10.4,6.9
	c0.5,0.3,1.5,1.2,0.8,1.7c-0.6,0.5-1.3,0.4-1.9,0c-3.1-2.2-6.4-4.2-9.4-6.4v3c3.9,3,8.2,5.8,12.8,8.7
	C44.4,210.5,45.5,210.8,46.6,210.8L46.6,210.8z M30.5,153.9c5.3,0.1,10.7,0.1,16.1,0.1v1.9c-5.4,0-10.7,0-16.1-0.1V153.9L30.5,153.9
	z M46.6,157.1v7.3l-16.1-0.1v-8.2C35.7,156.4,41.4,156.7,46.6,157.1z M51,197.2c-1.5-0.8-3-1.6-4.4-2.3v6.2c0.7,0,1.3,0.3,1.8,0.9
	c0.7,1,0.5,2.3-0.5,3c-0.4,0.3-0.8,0.4-1.3,0.4v5.4C53.1,211,58,200.7,51,197.2L51,197.2z M60.1,154.1c1.6,0,3.3,0.4,3.2,2
	c-0.1,2.2-0.3,4-0.4,6l-1.1,2.4l-15.3-0.1v-7.3c6,0.5,11.3,1,14.3,1.8c0-0.3,0-0.6,0.1-0.9c0.1-1.6-0.4-2-3.2-2c-3.7,0-7.4,0-11.1,0
	v-1.9C51,154.1,55.5,154.1,60.1,154.1z"/>
<path fill-rule="evenodd" clip-rule="evenodd" fill="#434242" d="M0,104.6c0.6,0.4,1.1,0.8,1.5,1c3.1-1.5,5.7-1.5,8.5,0.3l23.6,15.4
	c-2.3,3.6-3.1,8.2-1.6,12.5c2.5,7.6,10.7,11.7,18.3,9.1c7.6-2.5,11.7-10.7,9.1-18.3c-2.5-7.6-10.7-11.7-18.3-9.1
	c-2,0.7-3.7,1.7-5.2,3C23.2,107.9,11.5,98.2,0,88.6l0,5.5c0.9,0,1.8,0.6,2.1,1.5c0.4,1.1-0.2,2.4-1.4,2.8c-0.2,0.1-0.5,0.1-0.7,0.1
	L0,104.6L0,104.6z M36.9,66.1c-1.2,1.4-2.5,2.8-3.7,4.2C25.5,79,17.3,87.7,10.7,94.1l-9.2-7.7L33,60l24.2-20.3
	C54.1,45.5,46,55.6,36.9,66.1L36.9,66.1z M35.2,63.7c4-4.3,7.7-8.5,10.8-12.2l1.4-1.2c-2.5,3.8-6.6,8.9-11.5,14.5
	c-1.3,1.5-2.6,3-4,4.5C25.2,76.9,17.5,85,10.8,91.5l-1.7-1.4c6.8-6.4,14.6-14.2,21.7-21.7C32.3,66.8,33.8,65.3,35.2,63.7L35.2,63.7z
	 M55.9,125.8c1.9,5.6-1.2,11.7-6.8,13.6c-5.6,1.9-11.7-1.2-13.6-6.8c-1.9-5.6,1.2-11.7,6.8-13.6C47.9,117.1,54,120.2,55.9,125.8z"/>
<path fill-rule="evenodd" clip-rule="evenodd" fill="#434242" d="M26.3,26.1c-8.6-1-17.2-1.6-26-1.5l-0.4,0l0-2.4
	c0.7,0,1.4,0,2.2-0.1c7.2-0.1,14.4,0.3,21.5,1c-7-1.6-15.5-2.3-23.7-2.3L0,7.5l1.3-0.8l4.8,3.3C4,7.9,1.8,5.9,0.1,4.3L0,4.4L0,0
	c3.9,3.5,10.1,9.4,13.4,12.7C18.9,8.9,23,5.6,28.8,2.3c-0.5,4.9-1,9.2-1.4,13.1C27,19.2,26.7,22.7,26.3,26.1L26.3,26.1z M13.3,26.7
	C9,26.4,4.7,26.3,0.4,26.3l-0.4,0l0,4.5c12.3-0.1,21.7-2.2,25.2-3.2C21.2,27.3,17.2,26.9,13.3,26.7z"/>
</svg>
